{"glyphs":{"0":{"ha":715,"x_min":0,"x_max":715,"o":"m 258 -1 q 474 97 388 4 q 633 346 581 204 q 708 622 688 481 q 715 700 715 661 q 704 776 715 739 q 685 935 685 854 q 623 1073 685 1015 q 481 1131 561 1131 q 323 1075 397 1131 q 188 929 249 1019 q 85 733 128 839 q 19 522 42 626 q 0 343 1 436 q 38 167 0 256 q 160 26 76 79 q 258 -1 207 -1 m 261 76 q 169 112 208 76 q 108 199 131 147 q 81 303 85 250 l 78 375 q 103 547 78 461 q 242 869 146 721 q 406 1033 303 972 q 478 1054 442 1054 q 574 1015 538 1054 q 615 904 611 975 q 608 846 615 868 l 603 814 q 619 785 603 797 q 635 693 635 781 q 610 521 635 610 q 554 357 586 432 q 485 229 529 293 q 383 121 440 165 q 261 76 325 76 z "},"1":{"ha":401,"x_min":0,"x_max":401,"o":"m 172 -1 q 210 10 192 -1 q 229 39 229 21 q 222 60 229 53 q 196 69 215 68 q 188 78 188 71 q 265 507 214 299 q 379 925 307 672 q 401 1047 399 985 q 388 1083 401 1068 q 357 1097 375 1097 q 321 1081 338 1097 q 192 975 253 1032 l 176 961 q 115 894 142 932 q 108 874 108 885 q 117 855 108 864 q 138 846 125 846 q 197 885 160 846 q 314 986 253 935 l 313 975 q 301 929 308 950 q 189 524 244 750 q 113 94 133 297 q 108 74 111 78 q 86 69 104 69 q 43 75 67 69 l 36 76 q 0 39 4 76 q 17 9 0 19 q 54 -1 35 -1 l 172 -1 z "},"2":{"ha":746,"x_min":0,"x_max":746,"o":"m 497 -39 q 607 -1 554 -39 q 625 33 625 14 q 615 60 625 47 q 592 72 606 72 q 550 55 575 72 q 496 38 525 38 q 458 43 478 38 q 324 106 389 67 q 593 422 492 251 q 698 621 650 515 q 746 832 746 726 q 703 986 746 917 q 571 1082 661 1056 q 476 1096 524 1096 q 286 1040 372 1096 q 149 885 200 983 q 140 853 140 871 q 147 825 140 835 q 172 813 153 815 q 201 832 189 813 l 214 858 q 475 1017 307 1017 q 635 950 586 1017 q 669 828 669 896 q 646 706 669 760 q 528 464 603 579 q 261 156 388 247 q 249 150 256 150 l 240 153 q 113 188 182 188 l 92 186 q 28 159 54 183 q 0 99 3 135 q 96 10 0 13 q 242 53 163 10 l 254 56 q 265 51 260 56 q 407 -19 332 10 q 497 -39 453 -39 m 99 88 l 92 88 q 79 97 81 88 q 82 103 79 101 q 88 106 85 104 l 89 106 q 114 111 101 111 q 153 103 133 111 l 157 101 q 99 88 131 88 z "},"3":{"ha":690,"x_min":0,"x_max":690,"o":"m 251 -21 q 414 22 336 -21 q 565 258 565 106 q 418 494 565 418 q 639 696 556 568 q 678 773 667 739 q 690 857 689 807 q 615 1042 690 967 q 436 1117 539 1117 q 267 1077 347 1117 q 135 956 186 1038 q 96 836 96 903 q 113 767 96 803 q 169 732 131 732 q 194 742 185 732 q 204 767 204 753 q 181 796 204 785 q 169 811 169 801 q 169 831 169 821 q 272 990 169 918 q 425 1039 344 1039 q 472 1035 449 1039 q 553 990 519 1025 q 613 863 613 936 q 572 733 613 793 q 472 622 532 674 q 235 524 369 536 q 205 511 217 522 q 193 485 193 500 q 236 444 193 449 l 311 443 q 437 390 388 439 q 489 256 486 340 q 414 114 489 171 q 247 57 339 57 q 171 68 211 57 q 103 103 131 79 q 76 164 76 126 q 135 249 78 226 q 184 271 161 257 q 207 307 207 285 q 197 332 207 321 q 171 343 186 343 q 48 281 96 329 q 0 169 0 233 q 39 60 0 103 q 236 -21 122 -19 l 251 -21 z "},"4":{"ha":686,"x_min":0,"x_max":686,"o":"m 469 -1 q 517 101 513 -1 q 535 239 525 171 q 549 342 543 290 l 578 514 q 686 1060 607 686 q 653 1096 686 1092 q 618 1061 626 1096 q 501 525 547 800 q 485 507 499 507 q 289 514 394 513 l 151 517 q 399 979 314 743 q 414 1046 414 1011 q 408 1072 414 1064 q 386 1083 403 1081 q 361 1065 369 1083 q 336 1008 347 1039 q 203 740 278 869 l 182 706 q 46 519 121 592 q 15 488 29 504 q 0 457 0 472 q 10 431 0 442 q 38 419 19 419 l 53 421 q 194 439 124 439 l 354 432 q 469 429 413 432 q 485 424 485 429 q 483 404 483 418 q 457 242 468 324 q 449 187 453 215 q 442 126 444 158 q 432 49 439 88 l 432 39 q 469 -1 432 4 z "},"5":{"ha":722,"x_min":0,"x_max":722,"o":"m 242 1 q 335 17 296 4 q 421 57 375 29 q 546 172 496 101 q 607 385 607 272 q 431 621 607 610 q 319 597 374 621 q 213 546 265 581 l 211 560 q 233 664 218 615 q 317 1044 274 811 q 329 1058 318 1058 q 463 1053 399 1053 l 665 1053 q 706 1063 690 1053 q 722 1093 722 1074 q 712 1117 722 1107 q 685 1131 701 1128 l 593 1132 l 515 1131 q 429 1133 472 1131 q 343 1135 386 1135 q 186 1116 265 1135 q 53 1052 107 1097 q 0 928 0 1007 q 19 851 0 892 q 71 811 38 811 q 95 822 85 811 q 106 844 106 832 q 92 871 106 856 q 71 922 71 892 q 97 985 71 958 q 162 1027 124 1011 q 240 1050 200 1043 q 246 1043 246 1050 q 185 790 244 1033 q 126 507 147 651 l 126 494 q 140 459 126 475 q 171 443 153 443 q 224 464 196 443 q 438 543 353 543 q 485 528 465 543 q 517 473 504 514 q 531 390 531 432 q 494 235 531 313 q 404 139 461 176 q 247 81 335 85 q 146 124 188 81 q 104 225 104 167 q 116 282 107 251 q 125 321 125 313 q 93 350 125 347 q 54 331 68 350 q 34 283 40 311 q 28 229 28 254 q 90 69 28 138 q 242 1 153 1 z "},"6":{"ha":663,"x_min":0,"x_max":663,"o":"m 288 17 q 496 118 404 17 q 582 247 553 183 q 617 396 611 310 q 569 520 617 467 q 447 574 521 574 q 292 500 356 571 q 189 351 219 428 q 139 165 158 274 q 89 274 101 217 q 76 393 76 331 q 85 485 76 439 q 258 896 117 707 q 469 1040 367 1040 q 558 997 525 1040 q 590 897 590 953 q 565 794 590 844 q 560 772 560 783 q 592 740 560 743 q 625 763 615 740 q 663 907 663 832 q 592 1074 663 1015 q 469 1118 539 1118 q 364 1091 417 1118 q 272 1026 311 1064 q 76 733 151 906 q 0 381 0 560 q 21 231 0 307 q 93 103 42 156 q 288 17 179 17 m 285 93 q 232 104 258 93 l 222 107 q 211 121 211 111 l 221 179 q 252 298 229 240 q 310 404 275 356 q 401 485 344 453 q 444 496 424 496 q 510 468 482 496 q 539 396 538 440 q 519 296 539 342 q 468 205 499 250 q 395 128 438 160 q 285 93 353 96 z "},"7":{"ha":606,"x_min":0,"x_max":606,"o":"m 129 -4 q 157 10 144 -4 q 332 406 169 25 q 564 939 447 681 l 579 969 q 606 1051 600 1011 q 540 1107 606 1107 l 513 1107 q 240 1100 382 1107 l 117 1093 q 61 1099 82 1093 l 33 1104 q 10 1096 17 1104 q 0 1071 4 1088 q 37 1033 0 1043 q 106 1022 74 1022 l 281 1026 l 374 1025 q 519 1026 393 1026 q 447 868 517 1024 l 371 693 l 226 351 l 129 128 q 90 33 90 44 q 103 7 90 18 q 129 -4 115 -4 z "},"8":{"ha":718,"x_min":0,"x_max":718,"o":"m 329 -4 q 603 109 488 -4 q 718 375 718 222 q 706 469 715 429 q 669 554 697 510 q 547 672 624 629 l 558 681 q 658 774 618 713 q 699 903 699 836 q 614 1064 699 1000 q 556 1092 583 1092 l 539 1089 q 531 1092 533 1090 q 526 1094 528 1094 q 428 1117 478 1117 q 233 1038 324 1117 q 143 863 143 960 q 157 799 143 829 q 232 696 186 729 l 244 685 l 244 683 q 242 682 243 682 q 66 538 132 633 q 0 328 0 442 q 31 184 0 254 q 128 63 61 114 q 329 -4 221 -4 m 344 74 l 329 74 q 147 150 218 74 q 76 331 76 226 q 167 539 76 444 q 378 633 257 633 q 551 578 479 632 q 638 419 622 524 l 640 379 q 556 172 640 261 q 344 74 471 83 m 415 718 q 276 760 332 718 q 219 861 219 803 q 236 918 219 889 q 446 1042 304 1039 q 531 1007 492 1042 q 549 999 539 999 l 560 1000 q 583 986 572 1000 l 585 985 q 622 904 622 946 q 604 836 622 871 q 415 718 547 724 z "},"9":{"ha":674,"x_min":0,"x_max":674,"o":"m 247 3 q 403 56 336 3 q 502 199 469 108 q 553 386 535 290 q 588 544 554 389 q 646 835 639 788 l 663 974 q 674 1104 674 1046 q 640 1149 674 1146 q 613 1122 619 1149 q 601 1060 606 1096 l 597 1035 q 577 1053 588 1043 q 553 1072 567 1064 q 404 1113 482 1113 q 89 950 226 1113 q 24 841 49 899 q 0 714 0 783 q 68 540 0 610 q 221 478 131 478 q 538 693 407 478 q 493 471 538 679 l 485 428 q 432 228 464 326 q 243 81 375 81 q 148 132 185 81 q 111 244 111 183 q 138 342 111 293 q 142 360 142 351 q 108 390 142 390 q 63 365 79 390 q 40 306 47 340 q 33 240 33 271 q 82 92 33 158 q 247 3 142 3 m 196 554 q 110 607 143 554 q 78 724 78 660 q 140 889 78 807 q 254 994 186 954 q 417 1036 338 1036 q 528 1003 485 1036 q 547 969 547 992 l 536 917 q 503 801 525 858 q 196 554 414 563 z "},"\u0000":{"ha":0,"x_min":0,"x_max":0,"o":""},"\u001d":{"ha":0,"x_min":0,"x_max":0,"o":""}," ":{"ha":556,"x_min":0,"x_max":0,"o":""}," ":{"ha":556,"x_min":0,"x_max":0,"o":""},"!":{"ha":271,"x_min":69,"x_max":285,"o":"m 115 192 q 151 217 143 192 q 163 276 160 242 q 168 317 164 297 q 196 494 185 403 q 219 651 206 572 q 258 897 244 801 l 285 1079 l 283 1079 q 276 1114 283 1103 q 247 1126 269 1125 q 213 1094 222 1126 q 178 894 192 983 l 136 621 q 92 321 111 469 l 86 290 q 79 229 79 260 q 90 202 79 213 q 115 192 101 192 m 110 39 q 144 79 143 44 q 111 125 144 124 q 82 112 94 125 q 69 81 69 99 q 82 52 69 65 q 110 39 94 39 z "},"\"":{"ha":333,"x_min":28,"x_max":306,"o":"m 239 1028 q 274 1055 260 1028 q 295 1119 288 1082 q 306 1190 303 1157 q 286 1226 306 1213 q 244 1240 267 1240 q 186 1186 192 1240 l 185 1150 q 188 1119 185 1135 l 190 1110 q 239 1028 199 1028 m 78 1028 q 111 1051 99 1028 q 140 1153 132 1100 q 144 1167 142 1160 q 147 1185 147 1174 q 82 1236 140 1228 q 49 1222 64 1236 q 31 1189 33 1208 q 28 1151 28 1169 q 31 1107 28 1129 l 32 1092 q 41 1049 33 1069 q 78 1028 49 1028 z "},"#":{"ha":814,"x_min":83,"x_max":796,"o":"m 543 -6 q 581 30 571 -6 q 594 107 590 65 q 601 154 597 132 q 618 256 611 206 l 626 303 q 638 315 626 315 l 665 314 q 709 321 693 314 q 728 353 725 328 q 711 382 728 371 q 675 393 694 393 q 646 394 650 393 q 642 401 642 396 l 669 569 l 678 615 q 695 713 692 711 q 758 714 699 714 q 785 726 775 715 q 796 750 796 736 q 767 786 796 779 q 710 793 739 793 l 711 819 l 714 829 q 751 1068 751 1054 q 740 1103 751 1092 q 715 1114 728 1114 q 681 1085 689 1114 q 664 999 672 1060 q 631 804 649 921 q 625 794 629 796 q 614 792 621 792 q 554 796 583 796 q 351 794 485 794 q 342 801 342 794 q 360 913 349 858 q 381 1078 376 997 q 350 1115 381 1115 q 327 1106 336 1115 q 315 1082 318 1096 q 265 804 289 957 q 258 794 264 797 q 222 790 253 790 q 170 785 192 790 q 149 757 149 781 q 174 728 149 732 q 242 721 206 721 q 251 714 251 721 q 231 594 239 653 q 188 417 204 417 q 156 418 169 418 q 121 421 142 418 q 83 386 89 421 q 100 359 83 368 q 143 350 117 350 q 178 346 163 350 l 181 346 q 183 344 182 344 q 185 342 185 344 l 154 161 q 144 90 144 125 q 154 56 146 65 q 182 44 163 46 q 213 67 206 44 q 225 119 221 90 l 226 124 l 256 301 q 260 330 258 317 q 276 343 261 343 q 294 341 285 343 q 314 339 304 339 q 501 326 407 336 q 540 322 529 322 q 546 320 543 321 q 549 314 549 319 q 526 172 542 243 q 506 40 514 110 l 504 35 q 543 -6 504 3 m 557 400 l 522 403 q 333 415 426 415 l 294 414 q 279 424 279 414 q 296 528 279 435 q 326 701 313 614 q 343 721 326 721 l 365 719 l 400 721 q 606 718 475 718 q 615 711 615 718 l 615 706 q 572 450 592 579 q 565 408 567 429 q 557 400 563 400 z "},"$":{"ha":642,"x_min":69,"x_max":603,"o":"m 276 1 q 308 25 300 1 q 321 83 317 49 q 338 149 325 117 l 338 150 q 349 160 340 157 q 516 258 449 183 q 583 433 583 333 q 485 597 583 547 q 353 626 419 626 q 218 654 232 626 q 210 692 211 667 q 215 725 210 708 q 338 906 244 838 q 447 947 388 947 q 506 924 482 947 q 529 867 529 901 q 489 774 529 828 q 481 754 481 764 q 489 733 481 742 q 511 725 497 725 q 532 733 524 725 q 584 792 565 754 q 603 871 603 829 q 482 1021 603 985 q 469 1032 469 1024 q 483 1121 482 1097 q 449 1157 483 1154 q 417 1128 425 1157 l 400 1032 q 389 1018 400 1019 q 197 868 271 979 q 133 692 133 783 q 240 558 133 583 q 331 549 285 550 q 399 544 365 549 q 480 508 451 538 q 508 432 508 478 q 438 289 508 349 q 283 229 367 229 q 172 263 226 229 q 147 300 147 276 q 151 322 147 310 q 154 344 154 333 q 146 375 153 367 q 118 386 139 383 q 82 357 94 386 q 69 303 69 328 q 123 201 69 238 q 246 157 176 164 q 263 146 263 154 q 253 108 258 126 q 242 46 242 83 q 276 1 243 1 z "},"%":{"ha":697,"x_min":28,"x_max":646,"o":"m 61 19 q 117 76 89 19 q 397 593 257 356 q 614 982 556 863 l 640 1033 q 646 1054 646 1044 q 636 1077 646 1067 q 613 1088 626 1088 q 593 1081 600 1086 q 518 958 578 1071 l 471 874 q 392 736 431 806 l 301 578 q 144 300 218 442 l 39 97 q 28 61 29 78 q 61 19 28 25 m 186 849 q 244 868 215 849 q 304 957 304 907 q 272 1015 297 992 q 206 1038 247 1038 q 139 1006 168 1038 q 110 935 110 974 q 131 876 110 903 q 186 849 153 849 m 185 914 q 178 917 179 914 q 176 924 176 921 q 176 928 176 926 q 185 958 178 943 q 201 972 193 972 q 217 966 210 972 q 225 953 225 960 q 185 914 218 921 m 465 132 q 536 165 506 132 q 567 236 567 199 q 518 303 567 285 q 486 317 503 317 q 463 310 474 317 q 400 201 400 278 q 463 132 400 142 l 465 132 m 469 190 l 467 190 q 464 194 464 192 q 483 239 468 221 q 486 243 485 240 q 490 246 488 246 q 494 240 494 244 q 475 194 492 210 l 469 190 z "},"&":{"ha":790,"x_min":56,"x_max":700,"o":"m 642 29 q 664 42 657 33 q 672 68 671 50 q 656 98 672 85 q 619 124 639 111 q 586 153 586 143 q 596 161 586 157 q 618 169 606 165 q 674 195 647 181 q 700 233 700 210 q 690 257 700 247 q 667 267 681 267 q 650 263 658 267 q 589 235 619 247 l 543 217 q 533 224 536 217 q 403 596 429 403 l 399 618 q 413 643 399 631 q 564 786 497 704 q 614 910 614 844 q 578 999 611 964 q 493 1035 546 1035 q 393 992 432 1035 q 335 886 354 950 q 317 758 317 822 l 318 676 q 306 651 318 660 q 183 542 240 599 q 91 421 126 486 q 56 279 56 356 q 128 134 56 183 q 310 82 201 85 q 397 91 357 82 q 475 113 436 100 l 504 122 q 513 117 508 122 q 601 43 549 71 l 611 38 q 636 29 622 29 l 642 29 m 303 158 q 230 168 261 160 q 169 204 199 176 q 133 283 133 239 q 161 391 133 342 q 233 485 189 440 q 329 571 278 529 q 419 272 356 415 q 458 199 435 235 q 461 192 461 194 q 453 183 461 186 q 303 158 379 158 m 396 726 q 393 756 393 742 q 403 845 393 799 q 435 924 414 892 q 494 957 457 957 q 538 910 538 953 q 526 868 535 886 q 397 728 488 797 l 396 726 z "},"'":{"ha":200,"x_min":42,"x_max":163,"o":"m 96 1011 q 131 1038 117 1011 q 152 1103 144 1065 q 163 1174 160 1140 q 143 1210 163 1196 q 101 1224 124 1224 q 43 1169 49 1224 l 42 1133 q 44 1103 42 1118 l 47 1093 q 96 1011 56 1011 z "},"(":{"ha":347,"x_min":97,"x_max":360,"o":"m 231 -7 q 256 3 244 -7 q 267 28 267 13 q 260 57 267 42 q 258 60 258 57 q 193 243 210 149 q 176 433 176 338 q 257 864 176 667 q 353 1060 292 968 q 360 1081 360 1069 q 350 1106 358 1099 q 325 1117 342 1114 q 299 1101 308 1117 q 182 882 224 1000 q 97 418 99 667 q 120 213 97 315 q 190 24 143 110 q 231 -7 207 -7 z "},")":{"ha":265,"x_min":0,"x_max":200,"o":"m 33 4 q 76 33 61 4 l 126 138 q 149 201 139 168 q 200 546 200 386 q 104 1113 200 913 q 72 1133 92 1133 q 49 1124 60 1133 q 39 1100 39 1115 q 43 1083 39 1092 q 122 582 122 874 q 115 447 121 504 q 44 142 96 263 l 28 111 q 0 39 7 79 q 8 15 0 26 q 33 4 17 4 z "},"*":{"ha":232,"x_min":42,"x_max":218,"o":"m 136 999 q 154 1007 149 999 q 165 1038 160 1015 q 186 1033 175 1033 q 208 1042 199 1033 q 218 1064 218 1050 q 190 1107 218 1088 q 175 1125 176 1117 q 188 1145 175 1132 q 201 1175 201 1158 q 194 1196 201 1185 q 172 1207 186 1207 l 164 1207 q 148 1214 157 1207 q 131 1221 139 1221 q 115 1216 119 1221 q 107 1200 111 1211 l 104 1192 l 99 1194 q 74 1203 88 1203 q 52 1194 61 1203 q 43 1171 43 1185 q 47 1151 43 1158 q 58 1138 51 1144 q 69 1127 64 1132 q 74 1118 74 1122 q 65 1102 74 1111 q 50 1083 57 1093 q 42 1058 43 1072 q 51 1035 42 1044 q 72 1026 61 1026 q 91 1032 88 1029 q 104 1039 94 1035 q 136 999 114 1000 z "},"+":{"ha":618,"x_min":97,"x_max":563,"o":"m 274 118 q 300 129 292 118 q 315 161 308 140 l 319 189 q 351 368 336 278 q 356 378 351 376 q 519 383 360 379 q 550 394 538 383 q 563 421 563 406 q 549 449 563 436 q 519 461 536 461 l 421 461 l 375 457 q 364 467 364 457 l 365 472 q 381 585 376 528 l 382 599 q 385 632 385 615 q 382 656 385 644 q 369 675 379 668 q 350 682 360 682 q 319 656 326 679 q 311 604 313 633 q 290 465 307 558 q 282 457 290 457 l 133 454 q 107 442 117 453 q 97 415 97 431 q 106 394 97 404 q 129 380 114 383 q 161 376 144 376 l 264 379 q 274 372 274 379 l 246 219 q 238 161 240 192 q 274 118 238 124 z "},",":{"ha":267,"x_min":56,"x_max":172,"o":"m 94 -31 q 147 15 128 -31 q 172 104 167 60 q 154 140 172 122 q 110 158 136 158 q 67 122 81 158 q 58 75 58 99 l 58 68 q 56 32 58 50 q 65 -10 56 10 q 94 -31 75 -31 z "},"-":{"ha":399,"x_min":97,"x_max":349,"o":"m 164 392 l 225 396 l 261 397 q 318 401 290 397 q 349 436 346 410 q 335 463 349 453 q 300 474 321 474 q 133 463 157 463 q 97 426 97 463 q 106 406 97 415 q 131 395 115 397 q 164 392 147 393 z "},"­":{"ha":399,"x_min":97,"x_max":349,"o":"m 164 392 l 225 396 l 261 397 q 318 401 290 397 q 349 436 346 410 q 335 463 349 453 q 300 474 321 474 q 133 463 157 463 q 97 426 97 463 q 106 406 97 415 q 131 395 115 397 q 164 392 147 393 z "},".":{"ha":256,"x_min":42,"x_max":149,"o":"m 82 31 q 126 52 104 31 q 149 101 149 74 q 135 138 149 124 q 101 153 121 153 q 60 133 78 153 q 42 88 42 114 q 50 46 42 61 q 82 31 58 31 z "},"/":{"ha":578,"x_min":0,"x_max":603,"o":"m 38 7 q 72 31 58 7 l 140 164 l 331 544 l 490 857 q 589 1049 547 976 q 603 1083 599 1064 q 593 1108 601 1100 q 567 1118 585 1115 q 540 1100 550 1118 q 361 774 443 939 l 49 154 q 0 43 0 65 q 12 17 0 26 q 38 7 24 7 z "},":":{"ha":321,"x_min":97,"x_max":224,"o":"m 150 514 q 199 533 176 514 q 224 576 221 553 q 203 628 224 607 q 164 649 183 649 q 147 645 153 649 q 135 638 140 642 q 125 629 129 633 q 97 576 97 607 q 113 533 97 551 q 150 514 129 514 m 161 204 q 201 224 183 204 q 219 268 218 243 q 203 307 219 292 q 163 324 188 322 q 119 304 138 322 q 100 260 101 286 q 117 220 100 236 q 161 204 135 204 z "},";":{"ha":304,"x_min":83,"x_max":213,"o":"m 118 142 q 151 167 139 142 q 186 260 186 243 q 169 292 186 279 q 133 306 153 306 q 94 286 104 301 q 83 243 83 271 l 86 217 q 93 166 88 189 q 118 142 99 143 m 154 519 q 194 539 175 519 q 213 581 213 558 q 192 619 210 603 q 153 635 175 635 q 117 617 132 633 q 103 581 103 601 q 113 534 104 549 q 154 519 122 519 z "},";":{"ha":304,"x_min":83,"x_max":213,"o":"m 118 142 q 151 167 139 142 q 186 260 186 243 q 169 292 186 279 q 133 306 153 306 q 94 286 104 301 q 83 243 83 271 l 86 217 q 93 166 88 189 q 118 142 99 143 m 154 519 q 194 539 175 519 q 213 581 213 558 q 192 619 210 603 q 153 635 175 635 q 117 617 132 633 q 103 581 103 601 q 113 534 104 549 q 154 519 122 519 z "},"<":{"ha":472,"x_min":139,"x_max":407,"o":"m 326 190 q 353 201 342 190 q 364 226 364 211 q 353 257 364 242 q 229 413 288 333 q 225 422 225 418 q 308 519 225 432 q 396 617 353 567 q 407 647 407 633 q 397 668 407 658 q 375 678 388 678 q 346 664 360 678 q 258 574 303 618 q 139 429 139 460 q 256 251 139 389 l 293 207 q 326 190 308 190 z "},"=":{"ha":628,"x_min":97,"x_max":554,"o":"m 140 289 q 239 290 192 289 q 331 292 286 292 l 414 292 q 460 294 436 294 q 526 301 497 294 q 554 338 554 308 q 542 364 554 353 q 511 375 529 375 l 192 367 q 133 364 163 367 q 97 326 97 354 q 136 289 99 289 l 140 289 m 232 472 q 304 475 278 472 q 468 482 401 482 q 536 504 521 482 q 543 524 543 514 q 528 555 540 549 q 497 561 517 561 q 346 551 419 561 q 215 543 278 543 l 140 543 q 103 508 104 543 q 113 487 103 496 q 139 476 122 478 q 175 474 161 475 q 201 473 189 474 q 232 472 214 472 z "},">":{"ha":382,"x_min":69,"x_max":338,"o":"m 103 203 q 146 224 124 203 l 226 301 q 318 394 290 363 q 338 438 335 414 q 328 468 338 457 q 194 624 269 553 l 150 671 q 122 685 136 685 q 101 675 110 685 q 92 654 92 665 q 113 606 92 631 q 156 561 133 582 q 250 449 197 519 q 253 439 253 444 q 247 429 253 435 q 125 311 185 371 l 114 301 q 83 269 97 286 q 69 236 69 253 q 80 213 69 224 q 103 203 90 203 z "},"?":{"ha":593,"x_min":56,"x_max":593,"o":"m 136 281 q 174 303 158 281 q 204 350 190 325 q 280 447 236 406 q 372 526 324 489 q 468 608 419 564 q 593 881 593 731 q 585 955 593 922 q 553 1018 578 988 q 368 1104 474 1104 q 227 1072 296 1104 q 108 975 158 1040 q 56 863 64 928 q 89 821 56 824 q 122 856 113 821 q 156 919 132 890 q 367 1028 238 1021 q 390 1024 379 1028 l 397 1022 q 499 957 465 1015 q 518 874 518 915 q 490 763 518 814 q 418 669 463 713 q 322 585 374 625 q 222 499 269 544 q 140 393 174 453 l 128 375 q 108 342 117 358 q 100 311 100 326 q 109 290 100 299 q 136 281 118 281 m 135 64 q 163 77 157 64 q 171 117 169 90 q 139 153 171 151 q 110 138 121 153 q 100 101 100 122 q 135 64 100 67 z "},"@":{"ha":883,"x_min":97,"x_max":843,"o":"m 404 99 q 515 117 457 99 q 621 169 574 136 q 638 200 638 183 q 628 227 638 215 q 603 239 618 239 q 581 232 593 239 q 557 219 568 225 q 490 188 519 199 q 410 176 460 176 q 239 238 303 181 q 175 388 175 296 q 210 564 178 479 q 364 775 251 696 q 550 829 450 829 q 676 796 617 826 q 767 657 767 749 q 726 496 767 569 q 674 428 706 456 q 610 401 642 401 q 564 458 567 401 q 576 548 564 503 q 601 635 588 593 q 619 700 618 686 q 610 724 619 715 q 586 733 600 733 q 565 726 571 733 q 551 703 558 718 q 522 676 539 676 q 497 685 508 681 q 467 690 486 690 q 349 626 392 685 q 292 494 306 568 q 286 450 286 472 q 294 399 286 425 q 358 351 315 351 q 424 378 397 351 q 474 440 450 406 l 483 454 q 489 433 489 444 q 529 353 496 382 q 608 325 563 325 q 731 375 678 325 q 813 501 783 425 q 843 650 843 576 q 829 742 842 704 q 779 815 817 781 q 544 906 675 906 q 333 847 429 906 q 175 674 236 788 q 119 534 140 610 q 97 386 97 458 q 141 234 97 299 q 255 134 185 169 q 404 99 325 99 m 364 431 q 418 593 364 524 q 467 621 436 618 q 485 610 483 621 l 482 599 q 396 457 447 522 q 364 431 385 442 z "},"A":{"ha":947,"x_min":-14,"x_max":1015,"o":"m 183 4 q 300 42 244 4 q 504 247 422 124 l 549 314 q 544 238 549 276 q 619 82 544 126 q 693 61 654 61 q 782 90 740 61 q 960 292 878 156 l 976 319 q 1000 361 990 340 q 1015 410 1010 382 q 1006 438 1015 429 q 978 449 996 446 q 936 408 951 449 l 928 392 q 728 143 835 215 q 692 133 710 133 q 635 169 657 133 q 622 235 622 201 q 654 442 622 322 q 724 635 679 557 q 743 692 739 660 q 731 722 743 711 q 704 732 718 732 q 678 719 689 732 q 636 640 657 696 q 608 582 624 610 q 476 344 549 460 q 307 142 404 228 q 183 82 240 82 q 110 121 136 82 q 74 215 85 160 q 64 321 64 271 q 126 643 64 467 q 301 942 179 813 q 490 1039 394 1039 q 583 992 550 1039 q 617 875 615 944 q 596 769 617 821 q 592 753 592 760 q 601 731 592 739 q 622 722 611 722 q 644 731 632 722 q 660 753 656 740 q 690 883 690 818 q 637 1044 690 976 q 479 1115 583 1111 q 368 1088 421 1115 q 270 1019 315 1061 q 190 932 225 978 q 56 680 100 811 q -8 406 11 549 q -14 318 -14 361 q -8 224 -11 251 q 14 144 -4 189 q 108 22 39 65 q 183 4 147 4 z "},"B":{"ha":789,"x_min":-28,"x_max":738,"o":"m 164 -79 q 421 -3 294 -79 q 631 181 547 72 q 706 303 676 239 q 735 442 735 367 q 669 592 731 544 q 500 647 608 640 q 629 735 574 689 q 717 857 685 782 q 738 951 738 903 q 697 1067 738 1015 q 594 1143 656 1118 q 442 1171 519 1171 q 285 1151 367 1171 q 135 1094 204 1132 q 24 999 67 1056 q -19 868 -19 943 q 22 762 -19 810 q 124 708 63 714 q 156 739 153 708 q 138 764 156 756 l 125 772 q 74 808 92 790 q 56 861 56 825 q 76 935 56 897 q 283 1072 129 1028 l 288 1074 q 293 1067 293 1074 q 272 950 288 1004 q 175 511 218 731 q 136 317 153 415 q 117 286 132 296 q 17 191 63 249 q -28 69 -28 133 q 1 -17 -28 21 q 164 -79 49 -79 m 160 -3 l 135 -1 q 95 6 114 0 q 63 31 76 13 q 49 68 49 49 q 67 125 49 93 q 114 182 86 157 l 114 161 q 151 125 117 129 q 183 146 169 125 q 196 203 196 167 q 199 232 196 218 q 218 258 201 246 q 392 319 300 301 l 410 324 q 476 344 446 332 q 506 383 506 356 q 475 417 506 417 l 439 410 q 257 360 324 388 l 221 346 q 240 447 228 399 l 254 514 q 264 524 254 522 q 499 569 411 569 q 582 554 540 569 q 660 442 660 521 q 623 304 654 361 q 536 189 592 247 q 364 53 464 110 q 160 -3 264 -3 m 285 640 q 281 644 281 640 l 282 650 q 313 792 296 722 q 358 1017 342 906 q 361 1058 361 1038 q 362 1076 361 1068 q 365 1088 363 1085 q 375 1090 367 1090 q 403 1093 392 1090 l 414 1094 q 515 1087 472 1094 q 594 1057 558 1079 q 660 947 660 1014 q 599 810 660 869 q 453 710 538 751 q 290 642 368 668 l 285 640 z "},"C":{"ha":726,"x_min":-14,"x_max":783,"o":"m 257 6 q 433 51 346 6 q 597 165 521 96 q 731 308 674 233 l 739 319 q 767 361 756 342 q 783 408 779 381 q 774 430 783 421 q 754 439 764 439 q 711 404 735 439 q 579 254 650 325 q 381 113 493 161 q 260 83 310 83 q 85 210 136 83 q 64 365 64 281 q 92 557 64 457 q 221 857 128 719 q 316 957 263 919 q 446 1001 369 994 q 508 985 479 1001 q 550 900 550 960 q 533 826 550 861 q 332 682 476 699 q 286 700 307 682 q 261 713 272 713 q 245 706 251 713 q 239 688 239 699 q 272 638 239 653 q 350 622 306 624 q 528 695 446 622 q 625 874 611 768 l 626 907 q 574 1030 626 981 q 451 1079 522 1079 q 175 925 293 1079 q 26 610 75 794 q -3 481 6 539 q -14 349 -12 424 q 27 154 -14 246 q 171 21 68 63 q 257 6 214 6 z "},"D":{"ha":921,"x_min":-28,"x_max":906,"o":"m 165 -118 q 325 -79 235 -118 q 582 97 468 -14 q 747 286 674 182 q 906 757 906 511 q 825 1003 906 893 q 722 1083 782 1057 q 592 1117 663 1110 q 451 1125 522 1125 q 289 1103 367 1125 q 57 968 149 1076 q 3 832 3 900 q 23 760 4 792 q 72 728 42 728 q 95 738 86 728 q 104 758 104 747 q 93 781 104 771 q 72 829 72 804 q 81 865 72 847 q 278 1021 144 989 l 283 1022 q 289 1017 289 1022 q 265 911 279 964 q 239 779 250 850 q 219 672 229 725 q 202 567 210 619 q 185 459 194 514 q 169 349 176 404 q 133 285 168 308 q 22 186 72 247 q -28 57 -28 125 q 18 -58 -28 -10 q 139 -117 64 -107 l 165 -118 m 164 -39 q 85 -13 119 -39 q 50 54 50 13 q 81 131 50 86 q 149 199 111 176 q 142 139 146 164 l 139 111 q 150 80 139 92 q 175 68 161 68 q 201 78 189 68 q 217 107 214 89 l 233 246 q 240 262 235 257 q 251 271 244 267 q 460 354 356 326 q 588 399 522 374 q 607 428 607 407 q 568 463 606 463 q 522 454 543 463 l 519 453 q 257 360 383 421 l 250 358 q 260 442 253 401 l 269 500 q 322 806 300 701 q 360 1029 344 911 q 362 1037 360 1035 q 369 1039 364 1039 q 468 1047 413 1047 q 662 1021 572 1047 q 799 900 751 994 q 829 757 829 831 q 770 479 829 611 q 613 238 711 347 q 193 -37 403 3 l 164 -39 z "},"E":{"ha":860,"x_min":28,"x_max":808,"o":"m 333 -62 q 526 -20 428 -62 q 692 96 625 22 q 760 261 760 169 q 692 395 760 343 q 542 447 624 447 q 338 385 435 447 l 333 382 q 285 325 285 360 q 297 296 285 308 q 322 283 308 283 q 340 290 332 283 q 433 349 379 328 q 535 371 486 371 q 613 354 574 371 q 681 258 681 325 q 666 190 679 218 q 624 135 653 163 q 488 47 567 79 q 338 14 410 14 q 208 44 271 14 q 118 138 144 74 q 104 215 104 176 q 111 281 104 249 q 335 578 156 482 q 489 618 407 618 q 553 612 525 617 q 618 607 581 607 q 675 647 672 608 q 590 696 675 688 q 489 699 556 699 q 340 765 407 717 q 279 879 279 811 q 350 1026 279 953 q 451 1093 392 1068 q 565 1118 510 1118 q 700 1072 638 1118 q 729 1028 729 1053 q 710 989 729 1007 q 526 914 635 917 q 475 922 496 914 l 439 931 q 419 921 428 931 q 411 900 411 911 q 434 865 411 878 q 488 847 457 853 q 543 842 518 842 q 688 879 608 842 q 774 943 739 904 q 808 1031 808 982 q 771 1115 808 1078 q 678 1173 733 1151 q 567 1196 622 1194 q 393 1151 476 1196 q 256 1033 310 1106 q 201 876 201 960 q 346 669 201 749 q 220 599 268 635 q 126 497 172 563 q 54 365 81 432 q 28 221 28 297 q 126 4 28 79 q 333 -62 222 -62 z "},"F":{"ha":874,"x_min":0,"x_max":1069,"o":"m 218 -18 q 417 104 347 -18 q 503 349 475 222 l 504 353 q 538 504 524 428 q 543 519 539 515 q 558 524 547 524 l 611 522 q 665 529 646 522 q 683 564 683 536 q 665 592 682 586 q 621 599 649 599 q 574 596 597 599 l 563 594 q 556 600 556 594 l 556 606 q 626 1088 601 856 q 630 1097 628 1094 q 763 1100 632 1099 q 1029 1106 957 1101 q 1058 1119 1046 1108 q 1069 1143 1069 1129 q 1047 1176 1068 1169 q 1007 1181 1032 1181 q 874 1176 944 1181 l 717 1178 q 556 1171 636 1178 q 399 1140 475 1164 q 260 1063 324 1115 q 175 885 175 985 q 214 759 175 817 q 326 683 253 701 l 332 683 q 368 718 365 683 q 343 749 368 740 q 253 883 253 776 q 315 1009 253 960 q 461 1078 376 1058 q 544 1093 501 1093 l 558 1092 l 514 813 l 478 606 q 460 590 475 590 q 424 594 442 594 q 382 561 385 592 q 394 535 382 543 q 428 524 406 528 l 449 525 q 463 513 460 525 q 459 497 463 504 q 455 483 456 489 q 453 474 454 478 q 365 171 424 318 q 218 60 314 60 q 150 78 182 60 q 101 128 118 96 q 78 222 78 175 q 117 347 78 286 q 218 408 156 408 l 258 407 q 284 417 275 407 q 293 440 293 426 q 218 486 293 483 q 105 447 154 486 q 28 349 56 408 q 0 229 0 290 q 24 111 0 172 q 103 16 49 50 q 218 -18 157 -18 z "},"G":{"ha":824,"x_min":0,"x_max":797,"o":"m 290 -4 q 417 32 354 -4 q 526 121 479 68 q 583 199 554 156 q 581 125 583 151 q 578 68 578 99 q 589 35 578 49 q 615 22 600 22 q 654 65 654 24 q 706 451 663 258 l 719 518 q 725 538 722 532 q 734 545 728 544 q 754 546 740 546 q 797 581 792 546 q 735 619 794 619 l 681 617 l 547 621 q 513 588 513 621 q 549 552 513 558 q 618 546 585 546 l 633 546 q 643 540 643 546 q 539 278 599 397 q 393 107 486 174 q 293 75 343 75 q 170 131 226 75 q 97 253 114 188 q 78 400 79 318 q 90 522 78 461 q 171 763 114 647 q 321 963 228 879 q 483 1038 401 1038 q 585 1006 539 1038 q 632 919 632 975 q 614 857 632 890 q 608 838 608 847 q 616 819 608 826 q 635 811 624 811 q 703 925 703 822 q 647 1054 703 996 q 569 1101 608 1089 q 478 1115 531 1113 q 326 1068 396 1115 q 201 951 257 1021 q 108 810 146 882 q 0 389 0 603 q 31 209 0 296 q 131 61 61 122 q 290 -4 206 -4 z "},"H":{"ha":1099,"x_min":0,"x_max":1060,"o":"m 232 -31 q 392 25 319 -31 q 503 163 465 81 q 561 401 549 278 l 565 426 q 583 533 575 479 q 588 543 583 543 l 600 540 l 618 542 q 891 535 888 536 q 894 525 894 533 q 881 411 889 468 q 865 238 865 325 q 892 128 865 179 q 972 76 918 76 q 1008 88 993 76 q 1024 118 1024 100 q 1016 141 1022 133 q 993 150 1010 149 q 951 182 958 156 q 944 246 944 208 q 953 379 944 310 q 972 513 963 449 q 975 531 974 521 q 989 540 976 540 l 996 540 q 1040 551 1019 540 q 1060 583 1060 563 q 1021 621 1057 615 l 999 618 q 994 619 996 618 q 993 628 993 621 l 1003 679 q 1060 1069 1042 858 q 1028 1111 1060 1111 q 1004 1099 1015 1111 q 993 1068 993 1088 q 917 642 961 854 q 914 624 915 635 q 900 614 913 614 q 600 616 603 614 q 597 626 597 618 q 636 878 622 761 q 664 1060 649 972 l 664 1071 q 624 1113 664 1107 l 550 1114 q 453 1108 496 1114 q 360 1076 411 1101 q 250 908 250 1018 q 267 845 250 874 q 313 817 283 817 q 338 826 328 817 q 347 849 347 836 q 333 876 347 863 q 319 907 319 889 q 472 1031 332 1008 q 544 1036 507 1036 l 585 1036 q 590 1033 590 1036 q 522 635 544 776 q 508 615 518 615 q 499 618 503 617 q 486 619 494 619 q 451 613 464 619 q 436 588 438 607 q 453 558 436 568 q 492 547 471 547 l 496 547 q 506 538 506 547 l 485 404 q 432 197 469 292 q 289 58 394 101 q 231 47 258 47 q 124 103 171 47 q 78 228 78 158 q 186 369 78 343 q 244 417 244 383 q 206 451 242 451 q 64 390 121 447 q 1 249 7 332 l 0 231 q 69 49 0 128 q 232 -31 139 -31 z "},"I":{"ha":594,"x_min":0,"x_max":631,"o":"m 250 -11 q 436 94 383 -11 q 492 264 474 176 q 542 544 524 407 q 579 769 551 632 q 622 1028 607 899 l 624 1042 q 631 1099 631 1069 q 599 1147 628 1147 q 584 1144 590 1147 q 569 1142 578 1142 l 533 1144 q 458 1149 496 1149 l 432 1149 q 298 1142 365 1149 q 172 1104 231 1135 q 88 1013 118 1072 q 58 894 58 953 q 106 767 58 819 q 233 690 154 714 l 246 689 q 286 728 283 689 q 257 761 286 747 q 173 809 204 782 q 136 896 142 836 q 146 949 136 924 q 254 1054 169 1032 q 464 1075 351 1075 q 551 1073 544 1075 q 557 1061 557 1071 q 528 903 554 1040 q 461 525 486 700 q 363 121 426 263 q 249 65 333 65 q 128 122 178 65 q 78 254 78 178 q 93 336 78 294 q 146 397 108 378 q 176 439 176 414 q 167 463 176 451 q 140 474 157 474 q 126 471 133 474 q 30 388 60 447 q 0 263 0 329 q 70 72 0 154 q 250 -11 140 -11 z "},"J":{"ha":800,"x_min":0,"x_max":857,"o":"m 224 -279 q 321 -264 274 -279 q 494 -167 419 -237 q 606 19 567 -87 q 668 232 644 126 q 753 649 696 344 q 836 1028 801 918 q 857 1119 851 1072 q 847 1144 857 1135 q 824 1154 838 1154 l 715 1143 q 631 1139 674 1139 l 610 1139 l 544 1138 q 383 1106 461 1131 q 271 1028 304 1081 q 238 910 238 975 q 339 700 238 789 q 447 656 393 656 q 496 689 496 656 q 460 724 496 724 q 388 753 415 724 q 315 915 315 815 q 378 1019 315 989 q 556 1061 463 1057 q 692 1064 597 1064 q 775 1072 731 1064 q 678 660 706 867 q 654 538 668 599 q 604 292 628 415 q 565 149 588 219 l 564 146 q 472 -71 538 29 q 218 -200 374 -200 l 207 -200 q 93 -119 122 -200 q 78 -42 78 -81 q 139 121 78 50 q 304 196 200 192 q 372 186 342 196 q 417 176 393 179 q 443 186 432 176 q 454 210 454 196 q 444 235 451 226 q 421 250 438 244 q 306 274 364 274 q 153 231 225 274 q 40 116 81 189 q 0 -37 0 43 q 18 -139 0 -87 q 224 -279 68 -279 z "},"K":{"ha":1094,"x_min":0,"x_max":1135,"o":"m 222 -67 q 451 85 360 -67 q 531 326 508 199 q 542 339 533 339 q 593 333 572 333 q 644 339 621 333 q 655 329 653 339 q 661 310 657 319 q 668 289 665 300 q 721 149 685 217 q 809 35 757 81 q 928 -11 861 -11 q 1040 67 1007 -11 q 1043 85 1043 75 q 1031 113 1043 101 q 1004 125 1018 125 q 971 97 985 125 q 955 76 964 86 q 931 67 946 67 q 776 208 844 67 q 746 297 758 253 l 731 344 l 728 358 q 744 376 728 371 q 1001 664 906 458 q 1121 1010 1078 832 l 1124 1024 q 1135 1086 1132 1054 q 1126 1106 1135 1099 q 1106 1114 1117 1114 q 1082 1101 1092 1114 q 1068 1074 1072 1089 l 1050 1018 q 927 686 1003 847 q 707 443 851 525 q 697 440 701 440 q 688 449 692 440 q 569 519 649 519 l 564 519 l 597 786 q 632 1035 625 1003 q 642 1099 639 1067 q 604 1133 642 1132 l 472 1136 q 165 893 172 1136 q 206 778 165 832 q 324 704 247 724 q 369 711 360 704 q 382 742 379 718 q 324 785 382 769 q 243 900 243 821 q 349 1043 246 1013 q 486 1064 417 1064 l 503 1064 l 557 1065 q 564 1060 564 1065 q 553 997 564 1056 q 511 710 524 857 q 493 578 504 644 q 486 519 486 526 q 474 478 486 496 q 453 429 453 454 q 458 406 453 415 q 463 375 463 396 q 389 136 429 219 q 228 11 329 11 q 139 47 179 11 q 78 200 78 110 q 127 322 78 274 q 246 371 176 371 l 264 369 q 312 378 296 369 q 329 408 328 386 q 290 446 329 436 q 244 449 268 449 q 74 376 149 449 q 0 210 0 304 q 17 97 3 146 q 75 1 32 47 q 222 -67 139 -67 m 596 410 l 583 411 q 560 414 571 411 q 556 415 558 415 q 551 417 554 415 q 549 422 549 418 q 571 442 549 442 q 599 435 586 442 q 615 417 613 428 q 596 410 615 410 z "},"L":{"ha":736,"x_min":0,"x_max":783,"o":"m 535 -124 q 657 -107 597 -124 q 758 -21 721 -81 q 783 39 782 10 q 774 64 783 54 q 750 74 764 74 q 722 61 735 74 q 701 33 708 49 q 669 -9 688 10 q 624 -36 651 -28 q 551 -47 589 -47 q 263 -19 392 -42 q 147 -6 206 -10 q 139 -1 139 -6 q 210 390 204 174 q 232 610 215 499 l 236 639 q 270 806 247 725 q 350 959 293 888 q 483 1031 407 1031 q 565 1011 526 1031 q 657 889 657 982 q 578 767 656 800 q 556 736 556 760 q 568 710 556 719 q 594 700 581 700 q 682 757 638 700 q 733 896 733 822 q 715 981 733 938 q 611 1076 682 1049 q 483 1108 550 1108 q 338 1058 399 1108 q 181 769 225 964 q 128 347 144 590 q 110 175 124 261 q 57 11 97 89 q 28 -19 44 -12 q 0 -57 0 -33 q 12 -85 0 -72 q 40 -97 24 -97 q 61 -93 50 -97 q 111 -82 86 -82 q 229 -94 167 -83 q 389 -114 292 -104 q 535 -124 463 -124 z "},"M":{"ha":1156,"x_min":0,"x_max":1139,"o":"m 232 -28 q 346 10 300 -28 q 465 244 424 75 q 499 394 483 318 l 508 443 q 543 643 531 553 l 557 729 l 581 883 q 586 922 582 903 q 629 632 615 757 q 675 321 646 475 l 686 256 q 742 214 690 217 q 775 241 761 214 q 800 303 789 268 l 961 721 l 1007 835 q 1035 906 1019 871 l 1036 892 q 1001 644 1017 772 q 971 425 983 499 q 956 310 961 368 l 953 278 q 947 135 947 207 q 952 81 947 103 q 974 33 957 58 q 1056 -8 1008 -8 q 1095 2 1078 -8 q 1113 35 1113 13 q 1094 60 1110 54 q 1064 67 1078 65 q 1040 77 1050 68 q 1026 99 1029 86 l 1024 136 l 1029 250 q 1082 661 1035 342 q 1131 1031 1107 824 l 1135 1056 q 1139 1100 1139 1078 q 1131 1138 1139 1128 q 1097 1153 1122 1147 q 1072 1160 1083 1160 q 1038 1128 1047 1160 q 904 779 947 894 q 746 378 867 679 l 743 378 q 706 638 719 524 q 657 971 693 740 q 642 1103 644 1036 q 631 1135 640 1122 q 607 1147 621 1147 q 589 1144 597 1147 q 571 1142 581 1142 l 557 1144 q 538 1133 547 1144 q 522 1122 529 1122 l 399 1133 q 315 1142 357 1142 q 208 1117 260 1142 q 133 1035 157 1093 q 125 990 125 1013 q 154 897 125 942 q 185 857 168 871 q 232 838 203 843 q 256 849 247 838 q 265 872 265 860 q 246 901 265 890 q 210 941 221 915 q 200 988 200 967 q 228 1040 200 1018 q 296 1061 256 1061 l 317 1063 q 443 1053 379 1063 l 507 1046 q 522 1033 522 1044 q 499 849 514 936 l 439 486 q 365 176 397 264 q 232 50 319 50 q 151 76 185 50 q 98 140 117 101 q 79 217 79 179 q 120 324 79 279 q 219 368 161 368 l 225 368 q 247 376 240 368 q 254 400 253 383 q 240 433 254 421 q 208 444 225 444 q 181 440 194 444 q 31 335 82 421 q 0 222 0 279 q 30 105 0 163 q 112 10 60 47 q 232 -28 164 -28 z "},"N":{"ha":1085,"x_min":0,"x_max":1232,"o":"m 217 -65 q 390 86 325 -65 q 468 365 435 189 l 511 599 q 558 826 526 683 l 578 935 q 581 931 579 933 q 586 904 583 929 q 644 618 621 722 q 715 318 667 514 q 847 56 775 56 q 876 64 865 56 q 894 121 894 78 q 928 332 894 132 q 1028 1028 993 697 q 1053 1118 1031 1078 q 1121 1158 1075 1158 q 1142 1151 1136 1158 q 1153 1133 1149 1144 l 1157 1124 q 1194 1097 1172 1097 q 1222 1110 1213 1100 q 1232 1142 1232 1119 q 1199 1210 1229 1182 q 1129 1239 1169 1239 q 1046 1215 1088 1239 q 942 944 958 1167 q 926 836 936 890 q 828 222 889 635 l 822 236 q 754 500 783 367 l 742 557 q 697 765 718 661 q 656 950 667 907 q 626 1090 636 1018 q 592 1129 621 1129 q 572 1124 583 1129 q 544 1119 561 1119 l 488 1117 q 288 1094 382 1117 q 140 983 194 1071 q 108 865 108 926 q 168 719 108 786 q 274 664 217 664 q 315 699 315 664 q 282 733 315 724 q 213 781 238 746 q 188 863 188 817 q 217 956 190 913 q 294 1013 244 999 q 507 1036 400 1035 q 518 1029 518 1036 l 518 1022 q 413 511 460 764 q 400 440 406 476 q 362 253 385 347 q 297 79 339 160 q 263 34 282 53 q 213 15 244 15 q 172 22 189 17 q 135 40 156 28 q 92 99 101 63 q 82 175 82 136 q 104 273 82 225 q 178 333 126 321 q 217 349 197 339 q 236 382 236 360 q 219 413 232 407 q 181 418 207 418 q 45 331 90 403 q 0 172 0 260 l 3 131 q 61 -6 8 51 q 134 -49 92 -33 q 217 -65 176 -65 z "},"O":{"ha":793,"x_min":0,"x_max":864,"o":"m 319 46 q 504 110 422 46 q 643 273 586 174 q 726 481 700 372 q 743 563 739 531 q 749 643 747 594 l 747 678 q 760 695 747 690 q 790 704 772 700 q 850 728 822 710 q 864 761 864 743 q 852 788 864 776 q 825 799 840 799 q 781 785 804 799 q 742 772 758 772 q 724 790 726 772 q 646 909 703 861 q 514 957 589 957 q 410 928 458 957 q 346 818 346 881 q 393 719 346 764 q 581 668 458 668 q 656 672 613 668 q 667 660 667 672 q 667 636 667 647 q 626 426 667 526 q 510 224 586 314 q 318 126 433 135 q 181 181 233 126 q 106 315 129 236 q 82 468 82 394 q 122 723 83 618 q 225 915 160 828 q 342 1023 271 979 q 483 1067 413 1067 q 613 1025 550 1067 q 639 1015 626 1015 q 662 1026 651 1015 q 672 1051 672 1036 q 657 1082 672 1068 q 476 1144 578 1144 q 228 1036 342 1144 q 60 785 119 933 q 0 490 0 636 q 19 328 0 411 q 81 179 39 246 q 183 82 121 118 q 319 46 246 46 m 589 749 q 522 753 546 749 q 463 769 497 757 q 426 817 426 788 q 457 863 429 849 q 513 876 485 876 q 651 760 610 876 q 643 753 651 754 q 606 750 624 750 l 589 749 z "},"P":{"ha":1047,"x_min":0,"x_max":1057,"o":"m 236 26 q 388 71 321 26 q 490 200 454 115 q 546 419 531 307 q 556 432 546 432 q 569 429 561 431 q 586 426 576 428 q 610 424 596 424 q 768 450 690 428 q 972 578 888 483 q 1057 801 1057 672 q 1036 926 1057 863 q 975 1038 1015 989 q 825 1127 914 1107 q 643 1147 736 1147 l 547 1149 q 149 947 189 1149 q 146 910 146 928 q 196 765 146 832 q 247 738 215 739 q 285 772 283 738 q 267 803 285 790 q 238 839 247 813 q 222 910 222 876 q 263 996 222 960 q 547 1067 344 1067 q 563 1065 558 1067 q 568 1056 568 1063 q 536 869 557 958 q 490 589 510 731 l 469 453 q 368 157 438 229 q 240 108 314 108 q 121 158 160 113 q 82 268 82 203 l 85 297 q 115 351 92 333 q 169 381 139 368 q 204 400 186 389 q 222 431 222 411 q 211 457 222 446 q 183 468 200 468 q 149 460 164 465 q 0 267 0 406 q 18 174 0 222 q 69 92 36 126 q 236 26 144 26 m 628 504 l 619 504 q 592 507 604 504 q 568 511 581 510 q 561 519 561 514 l 610 828 q 638 1006 625 915 q 640 1043 638 1032 q 649 1066 643 1065 q 672 1067 654 1067 q 946 936 882 1067 q 976 806 976 872 q 923 646 976 714 q 792 544 869 578 q 628 504 711 514 z "},"Q":{"ha":810,"x_min":0,"x_max":864,"o":"m 518 -49 q 572 -30 543 -49 q 600 15 600 -11 q 588 42 600 31 q 561 53 575 53 q 535 42 550 53 q 515 33 525 33 q 499 40 507 33 q 484 56 490 47 q 478 71 478 65 q 485 81 478 75 q 660 283 594 153 q 744 549 725 414 q 749 613 749 581 l 747 661 q 760 677 747 672 q 790 686 772 682 q 864 742 864 699 q 853 769 864 757 q 826 782 843 782 q 786 770 807 782 q 739 754 765 758 q 731 759 733 754 q 726 769 728 764 q 722 779 724 775 q 641 896 697 851 q 514 940 585 940 q 399 903 446 940 q 346 799 351 867 q 424 683 346 728 q 579 651 488 651 q 613 651 600 651 q 658 654 625 651 q 665 651 664 654 q 667 618 667 647 q 639 444 667 532 q 456 157 576 250 q 446 153 450 153 q 438 161 440 153 q 389 231 417 203 q 315 260 361 260 q 182 189 231 256 q 171 179 176 179 q 161 189 165 179 q 98 317 114 254 q 82 457 82 381 q 226 899 82 697 q 342 1006 272 961 q 483 1050 413 1050 q 613 1008 550 1050 q 639 999 626 999 q 663 1009 653 999 q 672 1032 672 1019 q 606 1097 672 1065 q 474 1128 540 1128 q 288 1068 374 1128 q 137 911 201 1008 q 36 697 72 814 q 0 464 0 579 q 36 253 0 361 q 160 79 72 144 q 318 28 233 28 q 371 33 349 28 l 394 38 q 408 28 404 38 q 456 -27 425 -6 q 518 -49 488 -49 m 574 732 q 461 753 508 732 q 428 799 428 765 q 457 845 431 831 q 514 860 483 860 q 597 827 557 860 q 651 742 638 794 q 642 735 651 736 l 574 732 m 325 108 q 246 124 283 108 q 232 133 232 128 q 257 160 232 144 q 313 182 282 176 q 341 166 329 182 q 363 131 353 150 q 367 121 367 125 q 356 113 367 114 q 325 108 340 108 z "},"R":{"ha":1053,"x_min":0,"x_max":1053,"o":"m 232 -6 q 380 35 314 -6 q 483 160 446 75 q 542 390 528 271 q 550 401 543 401 l 565 399 q 614 393 585 393 q 661 397 642 393 l 688 400 q 718 286 704 400 q 735 181 724 233 q 776 83 747 129 q 907 6 828 6 q 971 18 936 6 q 1006 58 1006 31 q 968 94 1003 94 q 938 88 951 93 q 908 83 924 83 q 843 117 865 83 q 810 203 821 151 q 791 312 799 256 q 774 417 783 368 q 788 426 774 421 q 982 562 911 469 q 1053 768 1053 654 q 1040 872 1051 826 q 1000 964 1029 918 q 895 1065 957 1033 q 760 1105 833 1097 q 613 1113 688 1113 l 533 1114 q 179 988 276 1114 q 144 881 144 938 q 186 746 144 808 q 209 719 196 729 q 244 706 222 708 q 270 716 260 706 q 281 740 281 726 q 261 769 281 757 q 247 781 250 775 q 218 869 218 822 q 245 949 218 915 q 318 1000 272 982 q 431 1029 374 1024 q 556 1035 476 1033 q 567 1028 567 1035 q 533 821 553 917 q 489 553 508 688 l 476 475 q 433 250 464 363 q 356 113 417 171 q 240 71 303 71 q 123 120 168 71 q 78 238 78 169 q 153 344 78 311 q 197 364 175 353 q 218 396 218 375 q 208 422 218 410 q 182 433 199 433 q 113 410 151 431 q 18 318 47 383 q 0 231 0 274 q 46 89 0 156 q 232 -6 111 -6 m 747 496 q 708 515 729 496 q 629 549 674 549 q 574 538 601 549 l 564 535 l 590 701 l 607 796 q 638 1026 628 913 q 646 1035 638 1035 q 747 1029 697 1035 q 844 1003 797 1024 q 944 905 913 969 q 975 768 975 840 q 925 616 975 685 q 793 510 875 547 l 776 504 q 747 496 764 496 z "},"S":{"ha":779,"x_min":0,"x_max":799,"o":"m 290 10 q 338 15 314 10 l 353 17 q 590 130 488 40 q 704 363 692 219 q 654 484 704 436 q 531 556 604 532 q 426 578 481 571 q 254 626 338 588 q 192 728 192 665 q 215 815 192 771 q 268 890 239 858 q 403 994 325 954 q 563 1035 481 1035 q 671 1007 619 1035 q 722 935 722 979 q 666 806 715 860 q 554 719 617 753 q 531 686 531 704 q 542 664 531 674 q 567 654 553 654 q 590 661 579 654 q 735 772 679 708 q 799 940 790 835 q 761 1035 799 997 q 669 1092 724 1072 q 557 1111 614 1111 q 399 1076 474 1111 q 164 875 247 1015 q 115 724 118 808 q 163 599 115 643 q 281 532 210 554 q 432 499 353 510 q 574 451 508 490 q 613 415 600 435 q 626 363 626 396 q 504 161 626 247 q 279 88 400 88 q 165 108 219 88 q 83 190 110 128 q 76 226 76 208 q 112 299 76 274 q 192 346 147 325 l 204 351 q 235 392 235 368 q 226 413 235 403 q 206 422 218 422 q 175 417 189 421 q 35 332 89 392 q 0 228 0 283 q 79 68 0 138 q 278 10 154 10 l 290 10 z "},"T":{"ha":824,"x_min":0,"x_max":979,"o":"m 206 -1 q 357 53 285 -1 q 544 375 511 169 q 578 551 565 463 q 624 865 607 739 l 631 918 q 640 1017 638 968 q 642 1026 640 1024 q 650 1028 644 1028 q 790 1024 732 1028 q 940 1021 847 1021 q 979 1060 979 1025 q 952 1092 979 1088 q 894 1097 925 1097 q 664 1106 782 1097 q 428 1115 546 1115 q 279 1106 353 1115 q 140 1072 206 1097 q 54 976 74 1046 q 51 947 51 961 q 108 816 51 872 q 244 760 165 760 q 306 769 278 760 q 335 803 335 779 q 326 828 333 819 q 300 836 319 836 q 277 833 288 835 q 250 831 267 831 q 184 847 214 831 q 139 897 154 864 q 128 946 128 925 q 249 1024 128 1007 q 438 1039 342 1039 q 507 1038 488 1039 l 560 1035 q 574 1022 574 1033 q 546 857 551 882 q 533 771 538 814 q 504 575 525 710 q 438 285 485 422 q 261 89 390 149 q 206 76 232 76 q 113 126 149 76 q 78 239 78 176 q 91 306 79 279 q 142 356 103 333 q 175 376 158 364 q 192 406 192 388 q 179 431 188 424 q 151 440 171 439 q 129 435 140 440 q 31 356 58 406 q 0 231 3 306 q 60 69 0 140 q 206 -1 121 -1 z "},"U":{"ha":803,"x_min":0,"x_max":789,"o":"m 282 -37 q 451 33 376 -37 q 567 203 525 104 l 600 285 l 599 207 l 601 147 q 637 43 607 88 q 718 -1 667 -1 q 767 15 746 -1 q 789 54 789 31 q 778 80 789 69 q 754 90 767 90 q 733 84 744 90 q 714 78 721 78 q 688 111 697 78 q 678 179 678 144 l 678 217 q 681 324 678 269 l 683 379 l 693 493 l 707 622 q 719 717 713 678 q 731 793 726 756 q 754 942 739 868 l 772 1031 q 779 1076 779 1053 q 740 1121 778 1119 q 714 1108 726 1121 q 701 1079 701 1096 q 663 885 679 986 q 579 503 629 686 l 564 446 q 503 251 539 346 q 410 103 468 165 q 269 42 351 42 q 144 86 203 42 q 91 164 104 119 q 78 257 78 208 q 94 474 81 369 l 100 518 q 132 721 118 638 q 175 1022 160 882 q 177 1043 175 1032 q 179 1067 179 1054 q 153 1111 179 1107 q 128 1090 129 1111 l 115 1042 q 76 857 96 974 l 68 807 q 29 578 39 640 q 6 363 18 497 q 0 271 0 317 q 33 104 0 167 q 276 -37 114 -37 l 282 -37 z "},"V":{"ha":954,"x_min":0,"x_max":1093,"o":"m 542 -3 q 622 54 579 -3 q 921 693 803 315 q 950 819 932 732 q 953 828 951 826 q 963 831 956 831 q 1019 842 989 835 q 1093 897 1093 858 q 1082 924 1093 913 q 1056 935 1071 935 q 1007 922 1032 935 q 961 910 986 914 q 956 911 957 910 q 954 921 956 913 q 916 1051 950 988 q 811 1119 882 1114 q 730 1081 767 1119 q 693 993 693 1043 q 763 869 693 922 q 860 833 807 842 q 871 819 871 833 q 835 679 860 747 q 651 249 761 456 l 643 236 q 551 89 603 163 q 542 113 547 101 l 528 151 q 483 499 485 319 q 475 700 475 632 q 483 873 475 800 q 503 1035 490 946 l 503 1044 q 453 1096 503 1092 q 396 1094 425 1096 q 338 1093 367 1093 q 229 1086 283 1093 q 89 1028 151 1075 q 20 933 40 992 q 0 819 0 875 q 20 717 0 769 q 78 630 40 665 q 172 594 117 594 q 222 626 222 594 q 188 658 222 654 q 100 716 122 665 q 78 833 78 767 q 103 931 78 883 q 219 1006 143 990 q 360 1018 288 1018 q 415 1017 410 1018 q 421 1010 421 1017 l 419 993 q 397 711 397 875 q 398 664 397 678 q 399 637 399 650 q 400 597 400 624 q 401 540 400 569 l 415 358 q 439 188 422 276 q 499 25 456 99 q 542 -3 517 -3 m 872 910 l 871 910 q 775 971 806 918 q 771 990 771 981 q 783 1025 771 1010 q 811 1040 796 1040 q 869 963 844 1040 q 876 915 874 947 q 872 910 876 910 z "},"W":{"ha":1232,"x_min":0,"x_max":1371,"o":"m 425 29 q 526 65 485 29 q 599 153 568 101 q 653 258 629 206 q 701 371 679 310 q 743 149 701 253 q 799 65 761 100 q 888 31 842 31 q 1107 301 1025 31 q 1201 750 1164 492 q 1204 773 1201 761 q 1225 785 1207 785 l 1249 783 q 1328 798 1285 783 q 1371 846 1371 813 q 1361 871 1371 860 q 1333 882 1351 882 q 1313 876 1324 882 q 1226 860 1271 860 q 1215 868 1215 860 l 1217 957 q 1206 1022 1217 989 q 1171 1076 1194 1054 q 1111 1099 1147 1099 q 1035 1054 1069 1099 q 1001 954 1001 1010 q 1036 860 1001 900 q 1119 800 1071 819 q 1125 799 1121 800 q 1129 793 1129 799 q 1096 578 1118 679 q 1028 301 1069 438 q 994 217 1015 261 q 947 140 974 172 q 886 108 919 108 q 830 147 853 108 q 794 239 807 186 q 781 338 782 292 q 779 428 781 383 q 796 658 779 574 q 807 749 804 706 q 797 776 807 764 q 774 788 788 788 q 742 772 763 788 q 718 742 721 763 q 521 176 658 403 q 450 110 497 131 l 435 107 q 394 134 403 107 q 385 196 385 161 q 410 511 385 349 q 481 911 442 715 q 488 949 483 931 q 500 1043 500 994 q 491 1086 500 1074 q 451 1103 482 1099 l 422 1100 q 241 1078 335 1096 q 78 1004 147 1061 q 0 822 0 939 q 28 708 3 764 q 135 618 54 631 q 174 651 171 618 q 142 683 174 672 q 101 721 114 696 q 76 822 76 769 q 90 899 78 867 q 139 954 103 931 q 413 1021 240 1018 l 417 1022 q 421 1017 421 1022 q 385 814 404 914 q 338 547 358 683 q 315 356 326 481 l 308 271 q 306 213 306 242 q 318 118 306 165 q 357 60 329 85 q 425 29 389 29 m 1138 879 q 1079 956 1079 911 q 1085 983 1079 968 q 1098 1008 1090 997 q 1113 1019 1106 1019 q 1128 1008 1121 1019 q 1139 964 1139 989 l 1142 921 q 1138 879 1142 900 z "},"X":{"ha":857,"x_min":0,"x_max":878,"o":"m 188 -10 q 236 32 214 -10 q 394 304 329 188 q 535 544 449 399 l 583 360 q 700 56 629 203 q 724 22 708 35 q 756 8 739 8 q 782 19 771 8 q 793 46 793 29 q 778 79 793 64 q 768 92 771 83 l 756 119 q 636 461 681 278 q 604 583 622 524 q 597 625 597 606 q 617 682 597 654 q 728 858 674 768 q 871 1081 796 971 q 878 1103 878 1092 q 868 1124 878 1115 q 846 1133 858 1133 q 772 1061 825 1133 q 604 806 682 938 l 588 781 l 565 743 l 564 749 q 472 1006 529 890 q 297 1138 415 1122 l 271 1139 q 92 1072 172 1139 q 0 872 6 999 q 51 703 0 781 q 142 642 81 653 q 182 676 174 642 q 153 706 182 694 q 122 726 135 711 q 76 864 76 792 q 135 1006 76 949 q 276 1063 193 1063 q 417 941 364 1063 q 499 688 471 819 l 500 681 q 504 656 504 668 q 499 635 504 646 q 311 315 460 575 l 182 94 q 153 26 160 65 q 164 0 153 10 q 188 -10 175 -10 z "},"Y":{"ha":876,"x_min":0,"x_max":897,"o":"m 363 -56 q 726 244 661 -56 q 843 774 792 506 l 863 872 q 889 1028 879 949 q 897 1107 897 1065 q 867 1144 896 1144 q 838 1133 851 1144 q 821 1106 824 1122 q 814 1075 818 1090 l 808 1056 q 604 540 736 740 q 464 450 549 456 q 421 470 435 450 q 407 517 407 490 q 457 904 421 724 l 465 954 q 492 1089 476 1022 l 493 1100 q 461 1139 489 1139 q 447 1133 454 1139 q 429 1128 440 1128 q 373 1133 393 1132 q 329 1135 353 1135 l 296 1135 q 82 1075 163 1135 q 0 919 0 1008 q 38 804 0 861 q 100 767 64 767 q 134 778 122 771 q 146 803 146 785 q 115 835 146 828 q 93 846 100 838 q 74 915 74 881 q 186 1042 74 1004 q 306 1057 246 1057 q 400 1053 353 1057 q 410 1047 410 1051 q 390 951 401 997 q 342 667 360 818 q 331 528 331 597 l 332 486 q 407 385 342 414 q 468 374 439 374 q 586 413 531 374 q 679 514 642 453 q 724 585 699 549 q 668 326 724 569 q 617 166 651 244 q 508 51 583 88 q 368 24 440 24 q 258 44 304 24 q 183 118 213 64 q 157 199 157 165 q 167 235 157 218 q 178 271 178 253 q 166 298 178 288 q 140 308 154 308 q 95 272 110 308 q 81 206 81 236 q 125 65 81 132 q 363 -56 207 -56 z "},"Z":{"ha":706,"x_min":0,"x_max":803,"o":"m 690 -17 q 736 -4 714 -17 q 750 13 744 3 q 756 35 756 24 q 731 63 754 63 l 708 60 l 686 61 q 635 64 658 61 q 583 79 613 67 q 451 154 514 110 q 389 194 421 175 q 385 200 385 197 q 387 204 385 203 q 390 207 389 206 q 715 860 590 522 l 799 1069 q 803 1090 803 1081 q 765 1117 803 1117 q 708 1113 728 1117 q 657 1108 689 1110 q 521 1117 586 1108 q 397 1126 456 1126 q 274 1109 335 1126 q 176 1040 213 1092 q 139 925 139 989 q 251 718 143 789 q 356 682 307 682 q 393 717 393 683 q 371 747 393 738 q 359 751 365 750 q 347 753 353 751 q 251 817 288 771 q 215 925 215 864 q 240 998 215 965 q 314 1040 264 1031 q 393 1047 354 1047 q 526 1039 457 1047 q 660 1031 596 1031 l 708 1032 l 660 919 q 603 786 631 854 l 556 675 q 436 435 501 553 q 313 244 329 244 q 299 250 307 244 q 129 306 221 306 q 6 219 29 306 q 0 181 0 200 q 41 64 0 119 q 149 8 82 8 q 240 44 197 8 q 325 128 292 86 q 336 135 331 135 l 344 132 q 547 10 485 39 q 665 -15 606 -11 l 690 -17 m 146 85 q 99 114 119 85 q 78 178 78 143 q 88 219 79 210 q 129 228 96 228 q 197 217 168 228 q 268 179 218 207 q 174 93 226 128 q 146 85 160 85 z "},"[":{"ha":456,"x_min":83,"x_max":483,"o":"m 171 -64 q 217 -57 194 -64 q 239 -24 239 -50 q 201 14 233 14 l 174 13 q 163 24 163 13 q 175 97 167 61 l 185 153 q 201 251 192 201 q 218 350 210 301 q 328 933 260 638 q 371 1113 361 1111 q 408 1110 392 1110 q 444 1107 424 1110 q 471 1117 460 1107 q 483 1143 482 1128 q 452 1177 483 1171 q 393 1183 421 1183 l 381 1182 l 349 1182 q 306 1151 319 1182 q 286 1085 293 1119 l 281 1060 q 192 653 229 860 l 171 535 q 131 296 149 421 q 110 172 121 232 q 85 3 92 86 l 83 -3 q 110 -51 83 -37 q 171 -64 138 -64 z "},"\\":{"ha":511,"x_min":28,"x_max":438,"o":"m 400 6 q 426 17 415 6 q 438 44 438 28 q 426 81 435 63 q 364 263 404 131 l 182 819 q 86 1094 106 1061 q 61 1108 78 1108 q 38 1101 49 1108 q 28 1078 28 1093 q 32 1060 28 1067 q 239 390 121 744 l 315 161 q 367 29 336 93 q 400 6 379 6 z "},"]":{"ha":343,"x_min":0,"x_max":367,"o":"m 74 -57 q 119 -47 104 -56 q 142 -7 135 -37 l 158 86 q 169 149 163 117 l 200 324 q 258 625 214 404 q 310 858 282 746 q 364 1100 340 982 l 367 1128 q 354 1161 367 1149 q 307 1178 342 1174 q 247 1181 276 1181 q 185 1182 217 1181 q 154 1149 157 1182 q 197 1111 154 1121 q 287 1106 282 1108 q 292 1100 292 1104 l 282 1057 q 176 610 219 831 q 143 433 156 522 l 125 342 l 92 160 q 67 29 69 35 q 60 22 65 24 q 42 21 54 21 q 0 -19 1 17 q 15 -47 0 -36 q 46 -57 29 -57 l 74 -57 z "},"^":{"ha":321,"x_min":56,"x_max":285,"o":"m 257 1017 q 285 1060 285 1026 q 272 1107 285 1069 q 238 1178 258 1144 q 190 1213 218 1213 q 135 1181 163 1213 q 82 1114 107 1150 q 65 1091 74 1101 q 56 1069 56 1081 q 66 1045 58 1053 q 92 1035 74 1038 q 118 1049 107 1035 l 131 1064 q 171 1111 151 1086 q 181 1119 176 1119 q 188 1110 186 1119 q 193 1093 190 1100 q 212 1041 200 1065 q 249 1017 224 1017 l 257 1017 z "},"_":{"ha":535,"x_min":28,"x_max":467,"o":"m 426 8 q 467 46 463 8 q 453 76 467 68 q 411 86 439 85 l 72 86 q 42 78 56 86 q 28 54 29 71 q 79 15 28 21 q 145 14 111 15 q 222 13 179 13 q 280 12 265 13 q 310 11 294 11 q 426 8 347 8 z "},"`":{"ha":215,"x_min":28,"x_max":188,"o":"m 153 1031 q 188 1068 188 1031 q 103 1156 188 1089 q 81 1172 92 1164 q 60 1179 71 1179 q 37 1169 46 1179 q 28 1147 28 1160 q 108 1056 28 1121 q 128 1040 118 1049 q 153 1031 139 1031 z "},"a":{"ha":556,"x_min":-56,"x_max":618,"o":"m 343 86 q 415 111 383 86 q 547 283 468 151 q 618 419 618 401 q 610 439 618 431 q 590 447 601 447 q 540 408 567 447 l 424 236 q 371 176 403 201 l 365 174 q 342 163 351 163 q 310 183 318 163 q 303 235 303 203 q 314 366 303 303 q 340 490 325 429 q 347 525 344 507 q 338 551 347 540 q 314 561 328 561 q 291 551 299 560 q 278 527 283 543 q 268 492 274 511 q 161 539 214 539 q 10 447 76 539 q -56 254 -56 356 q -51 195 -56 221 q -29 143 -46 169 q 49 100 3 100 q 110 122 82 100 q 224 260 179 179 l 225 238 q 228 189 225 213 q 269 115 235 144 q 343 86 303 86 m 47 178 q 19 251 22 178 q 92 425 25 347 q 164 465 131 465 q 203 453 185 465 q 222 428 222 442 q 214 406 222 419 l 188 357 q 115 236 157 294 q 47 178 74 178 z "},"b":{"ha":424,"x_min":-28,"x_max":522,"o":"m 101 82 q 228 163 185 92 q 281 315 271 233 q 290 326 281 324 l 392 357 q 447 378 422 365 q 471 413 471 390 q 460 438 471 426 q 436 449 450 449 q 368 426 399 443 q 317 407 344 415 l 306 404 q 283 400 293 400 q 274 410 275 401 q 269 426 272 419 q 222 487 254 463 q 154 511 189 511 q 100 487 124 510 q 76 436 76 464 q 181 328 88 343 q 199 320 196 325 q 203 311 201 315 q 199 294 203 301 q 194 281 196 286 q 158 197 183 236 q 106 158 133 158 q 81 172 92 158 q 51 294 53 208 q 60 375 51 336 q 81 504 67 440 l 81 507 q 90 519 82 517 q 203 579 151 542 q 303 660 254 617 q 488 917 411 761 q 522 1058 518 982 q 492 1144 522 1110 q 419 1179 463 1179 q 340 1158 381 1179 q 168 969 239 1104 q 32 638 81 824 q -28 297 -15 464 q -11 183 -25 235 q 53 97 3 131 q 101 82 75 82 m 97 586 q 257 969 169 828 q 324 1056 285 1017 q 421 1100 364 1094 q 446 1050 446 1100 q 442 1010 446 1031 q 331 788 414 889 q 146 614 247 688 q 97 586 126 597 m 196 399 q 168 409 181 401 q 156 428 156 417 q 161 433 157 433 q 171 428 165 433 q 196 399 186 419 z "},"c":{"ha":407,"x_min":-28,"x_max":465,"o":"m 131 121 q 257 164 194 121 q 460 415 403 267 l 461 419 q 465 435 465 426 q 435 463 463 461 q 407 449 419 463 q 385 418 394 435 q 251 257 325 324 q 194 218 219 232 q 132 200 169 204 q 82 215 106 200 q 47 296 47 240 l 50 321 q 103 515 54 425 q 185 582 126 569 q 210 532 210 582 q 201 486 210 504 q 192 456 196 474 q 199 439 192 446 q 217 432 207 432 q 264 474 246 432 q 282 550 282 517 q 253 627 282 596 q 183 658 225 658 q 65 600 111 658 q -5 455 18 542 q -28 282 -28 368 q 22 166 -25 211 q 131 121 69 121 z "},"d":{"ha":535,"x_min":-14,"x_max":769,"o":"m 350 151 q 438 180 401 151 q 504 253 475 208 q 565 363 542 311 q 589 425 582 390 q 582 441 589 433 q 565 449 575 449 q 532 421 549 449 q 446 274 494 344 q 363 215 406 215 q 324 240 335 215 q 313 292 313 264 q 351 514 321 410 l 361 550 q 371 560 363 560 q 407 572 392 564 q 575 697 503 619 l 581 703 q 769 1088 761 879 q 736 1169 769 1140 q 656 1199 703 1199 q 440 1001 535 1199 q 366 852 401 932 q 315 690 331 772 q 294 606 307 639 q 211 643 257 643 q 38 525 88 632 q -14 336 -10 442 q 16 234 -14 285 q 99 183 46 183 q 190 232 154 185 l 233 293 q 244 236 238 264 q 281 178 256 203 q 336 151 307 154 l 350 151 m 385 629 l 401 681 l 413 710 q 483 892 446 801 l 524 992 q 574 1076 540 1033 q 657 1122 607 1118 q 684 1111 676 1122 q 692 1078 692 1100 q 669 976 692 1025 q 579 818 640 889 q 385 629 506 718 m 103 253 q 83 267 93 253 q 64 325 64 293 l 63 342 q 103 485 71 421 q 208 567 135 550 l 214 568 q 247 547 235 568 l 251 542 q 263 514 263 529 q 260 501 263 508 q 226 435 242 468 q 161 311 196 372 q 133 272 150 290 q 103 253 117 253 z "},"e":{"ha":444,"x_min":-28,"x_max":499,"o":"m 135 122 q 225 144 179 122 q 351 231 296 178 q 454 344 407 283 l 461 353 q 499 424 499 399 q 492 440 499 433 q 475 447 485 447 q 449 433 461 447 q 428 404 438 419 l 418 392 q 298 254 361 313 q 142 183 235 196 q 74 213 104 183 q 53 254 58 232 q 49 304 49 276 l 47 315 q 54 353 47 331 q 56 367 56 358 q 59 381 57 376 q 68 385 61 385 l 107 382 q 261 450 199 382 q 286 510 286 475 q 249 590 282 560 q 167 619 215 619 q 81 585 118 619 q 22 504 44 551 q -15 408 -1 457 q -28 308 -28 360 q -12 216 -26 253 q 46 151 1 179 q 135 122 90 122 m 107 442 q 81 449 81 442 q 93 480 81 457 q 126 522 106 503 q 169 542 147 542 q 197 532 183 542 q 210 508 210 522 q 177 462 210 482 q 107 442 144 442 z "},"f":{"ha":440,"x_min":-97,"x_max":499,"o":"m -68 -250 q -28 -201 -40 -250 q 10 14 -4 -94 l 38 194 q 68 386 50 289 q 160 317 113 343 q 267 290 207 290 q 456 358 376 293 q 485 387 475 374 q 499 424 496 400 q 491 442 499 435 q 472 450 483 450 q 451 440 461 450 q 258 354 375 360 q 197 368 225 354 q 140 400 168 382 q 132 408 136 403 q 135 411 132 410 l 138 413 q 311 567 242 472 q 385 751 385 660 l 385 769 q 340 851 378 817 q 256 886 301 886 q 121 797 181 886 q 17 536 40 678 q -42 190 -19 358 l -87 -124 q -97 -219 -96 -171 q -68 -250 -97 -244 m 76 442 l 94 528 q 221 793 128 710 q 256 807 239 807 q 298 785 283 807 q 313 740 313 763 q 306 704 313 722 q 221 557 283 621 q 93 449 165 494 q 76 442 86 444 z "},"g":{"ha":553,"x_min":-83,"x_max":613,"o":"m 46 -300 q 229 -175 153 -300 q 278 -68 261 -122 q 317 139 306 33 l 318 158 q 331 194 321 183 q 361 214 340 204 l 378 222 q 594 390 508 288 q 613 425 613 411 q 603 449 613 440 q 582 457 593 457 q 561 446 571 457 q 332 263 471 329 l 332 269 q 338 306 332 289 l 339 319 q 364 489 357 468 q 369 515 369 503 l 368 536 q 372 581 368 560 q 378 628 376 603 q 349 661 378 660 q 308 611 314 661 q 301 581 307 596 q 287 593 292 586 q 276 604 282 600 q 188 639 233 639 q 85 593 133 639 q 6 481 36 547 q -25 351 -25 414 q -11 283 -25 318 q 30 224 3 249 q 97 200 57 200 q 217 285 157 200 q 268 363 244 325 q 261 314 268 351 q 250 229 251 258 q 240 207 250 214 q 203 186 219 197 q 172 167 188 175 q 53 83 111 132 q -83 -160 -83 -29 q -79 -201 -83 -179 q -49 -260 -74 -233 q 46 -300 -12 -300 m 44 -222 q -12 -153 -8 -222 q 26 -35 -12 -89 q 119 61 64 18 q 233 136 175 104 l 239 138 l 228 54 q 76 -215 199 -158 q 44 -222 60 -222 m 94 279 q 65 301 78 279 q 53 349 53 322 q 157 551 60 474 q 189 563 172 563 q 231 549 213 563 q 254 514 250 536 q 250 503 254 507 q 211 429 229 468 q 124 293 179 354 q 94 279 108 279 z "},"h":{"ha":515,"x_min":-56,"x_max":568,"o":"m 311 57 q 501 233 415 57 q 568 410 568 368 q 563 438 568 429 q 536 449 557 446 q 519 443 525 449 q 507 426 513 438 l 503 419 q 403 213 460 313 q 359 159 386 185 q 313 133 332 133 q 297 144 303 133 q 292 169 292 156 q 300 273 293 222 q 307 375 307 324 q 224 493 307 485 q 156 467 186 493 q 76 382 101 422 l 54 351 l 53 357 l 71 465 q 83 482 74 476 q 363 817 257 603 q 401 979 401 896 q 374 1084 401 1033 q 292 1135 347 1135 q 222 1115 249 1132 q 174 1063 196 1099 q 101 918 129 994 q 26 639 49 765 q -1 515 10 543 q -11 474 -11 494 q -7 451 -11 463 q -17 413 -17 432 l -18 404 l -47 213 q -56 122 -56 151 q -18 82 -53 88 q 19 118 10 82 q 139 336 67 233 q 210 408 165 381 q 219 413 215 413 q 229 368 229 413 q 222 281 229 325 q 214 189 214 236 q 217 146 214 168 q 311 57 238 57 m 96 583 q 168 874 119 733 q 242 1026 193 954 q 263 1049 250 1039 q 288 1058 276 1058 q 313 1035 304 1058 q 324 976 322 1013 q 300 868 324 922 q 99 586 238 725 q 97 585 99 585 q 96 583 96 585 z "},"i":{"ha":322,"x_min":-69,"x_max":374,"o":"m 38 54 q 145 88 100 58 q 228 164 190 118 q 367 401 318 272 q 374 426 374 415 q 365 447 374 439 q 344 456 357 456 q 310 432 326 456 q 278 375 294 408 l 254 331 q 136 172 207 243 q 43 129 97 135 q 15 143 22 129 q 8 183 8 157 q 18 269 8 231 q 39 346 28 308 q 67 463 58 401 q 59 481 67 472 q 40 489 51 489 q 10 467 18 489 q -39 339 -18 406 l -49 311 q -69 186 -69 251 q -42 91 -68 128 q 38 54 -15 54 m 71 564 q 96 578 86 564 q 124 635 113 607 q 136 669 135 664 q 125 692 136 682 q 101 701 114 701 q 68 675 78 701 q 53 619 58 649 l 46 588 q 65 564 46 567 l 71 564 z "},"j":{"ha":275,"x_min":-458,"x_max":333,"o":"m -314 -512 q -192 -459 -253 -512 q -103 -335 -131 -406 q -75 -240 -87 -287 q 1 33 -35 -104 q 13 46 6 44 q 164 132 122 106 q 251 218 219 168 q 318 363 285 274 q 333 415 333 407 q 326 432 333 425 q 307 439 318 439 q 285 431 296 439 q 192 274 228 326 q 122 192 157 221 q 22 126 86 163 l 22 132 q 35 181 29 154 q 106 444 64 306 l 106 447 q 108 458 108 453 q 97 481 108 471 q 75 492 86 492 q 51 483 63 492 q 35 458 39 474 q -26 245 -7 314 q -54 132 -46 176 q -115 58 -62 76 q -265 -29 -194 24 q -403 -155 -347 -85 q -458 -317 -458 -225 q -444 -403 -458 -357 q -392 -481 -429 -449 q -314 -512 -356 -512 m -314 -433 q -362 -399 -344 -433 q -381 -326 -381 -364 q -297 -154 -381 -232 q -101 -12 -207 -71 l -89 -7 q -165 -276 -142 -199 q -279 -424 -192 -376 q -314 -433 -299 -433 m 78 564 q 106 585 97 567 q 128 651 128 647 q 103 678 128 676 q 54 586 65 678 q 60 570 54 576 q 78 564 67 564 z "},"k":{"ha":506,"x_min":-42,"x_max":563,"o":"m 0 28 q 43 63 25 28 l 56 99 q 119 236 74 165 l 140 171 q 183 90 151 125 q 267 50 225 50 q 558 411 406 50 q 563 424 563 418 q 554 442 563 435 q 536 449 546 449 q 493 406 511 449 q 389 231 443 318 q 331 157 365 193 q 269 121 297 121 q 219 176 240 121 l 208 200 l 206 208 q 218 222 206 218 q 307 354 296 265 q 290 401 307 382 q 247 421 274 421 q 151 377 193 414 q 76 294 110 340 l 51 264 l 60 336 q 65 372 63 353 q 85 394 67 390 q 121 410 104 399 q 263 553 208 469 q 354 732 317 636 q 388 845 379 799 q 399 963 396 892 q 367 1079 399 1025 q 283 1133 336 1133 q 222 1110 254 1133 q 169 1043 189 1082 q -12 369 47 808 l -18 340 q -42 107 -42 188 l -40 72 q 0 28 -40 35 m 81 467 l 92 531 l 100 565 q 251 1025 154 869 l 253 1029 q 281 1053 268 1053 q 321 953 321 1047 q 253 692 321 838 q 88 471 196 563 l 81 467 m 185 274 q 178 277 182 274 q 172 285 175 281 q 169 294 169 290 q 177 307 169 300 q 195 325 185 314 q 217 346 206 336 q 246 357 229 356 q 210 292 238 317 q 197 282 204 286 q 192 278 194 281 q 185 274 189 275 z "},"l":{"ha":376,"x_min":-28,"x_max":425,"o":"m 103 28 q 194 57 151 28 q 265 124 236 86 q 404 360 346 233 l 407 368 q 425 422 421 396 q 418 437 425 431 q 403 443 411 443 q 363 394 385 443 q 207 149 300 261 q 108 97 168 104 q 54 140 71 97 q 49 185 49 163 q 63 333 51 247 l 68 369 q 96 406 68 401 q 115 415 107 408 l 125 421 q 253 550 199 475 q 404 850 360 685 q 424 975 424 911 q 349 1111 424 1086 q 310 1117 328 1117 q 121 938 199 1117 q 33 614 60 782 l -6 397 q -28 194 -28 297 q -25 132 -28 164 q 22 57 -15 86 q 103 28 58 28 m 85 467 l 107 583 q 161 828 128 703 q 243 999 189 919 q 314 1040 269 1036 q 346 972 346 1040 q 342 932 346 953 q 196 585 308 742 q 106 479 156 526 q 85 467 97 471 z "},"m":{"ha":683,"x_min":-56,"x_max":739,"o":"m -19 42 q 21 81 13 42 l 22 92 q 31 131 24 113 q 154 376 82 260 l 161 388 q 208 443 178 421 q 210 446 208 444 q 213 449 211 447 q 218 451 215 451 q 223 444 222 450 q 224 435 224 439 q 215 331 224 383 q 194 224 207 278 q 168 83 179 156 l 168 79 q 178 57 168 65 q 201 49 188 49 q 242 83 228 49 q 375 318 275 217 q 377 322 375 319 q 381 326 379 324 q 386 328 383 328 q 390 325 389 326 q 392 315 392 324 q 385 243 390 278 q 381 174 381 208 q 408 94 381 122 q 479 67 435 67 q 600 136 547 67 q 710 347 671 233 l 738 411 l 739 421 q 732 437 739 429 q 715 444 725 444 q 687 426 699 444 q 664 382 675 407 l 639 329 q 550 172 606 246 q 521 144 536 156 q 483 131 506 132 q 457 158 458 131 q 462 228 457 194 q 467 297 467 261 l 467 326 q 444 380 463 357 q 400 403 426 403 q 294 328 353 403 l 293 336 l 296 357 q 299 413 299 382 q 283 492 299 457 q 229 528 267 528 q 169 505 197 528 q 118 448 142 482 q 74 378 94 414 l 57 351 l 63 404 q 69 488 69 447 q 43 515 69 513 q 19 495 25 515 q 8 456 14 475 l -4 403 q -17 338 -10 369 q -36 218 -28 278 l -44 172 q -56 82 -53 128 q -19 42 -56 43 z "},"n":{"ha":557,"x_min":-56,"x_max":603,"o":"m -19 106 q 25 135 13 110 q 136 350 72 247 q 228 465 172 415 l 231 468 q 247 479 242 479 q 255 476 253 478 q 257 468 257 475 q 235 336 249 400 q 224 240 224 289 q 247 149 224 189 q 318 108 269 108 q 481 218 397 108 q 556 329 522 274 q 600 408 581 367 q 603 422 603 415 q 596 438 603 431 q 581 446 589 446 q 554 428 563 443 l 497 349 q 421 242 460 293 l 413 233 q 356 175 390 197 q 322 165 336 165 q 293 208 294 165 q 306 306 296 258 q 310 329 308 317 q 317 354 313 342 q 329 444 329 399 q 310 524 328 496 q 257 551 293 551 q 186 525 222 551 q 76 401 129 482 l 53 368 q 65 450 60 408 q 68 474 65 461 q 72 511 72 492 q 65 547 71 533 q 38 560 58 560 q 6 532 11 560 q -17 394 -10 431 q -37 283 -25 358 l -43 254 q -56 161 -56 210 q -50 121 -56 136 q -26 106 -44 106 l -19 106 z "},"o":{"ha":488,"x_min":-42,"x_max":544,"o":"m 92 97 q 186 150 146 107 q 286 318 254 222 q 306 339 294 339 q 347 336 314 336 q 442 351 396 336 q 544 414 544 386 q 537 434 544 426 q 519 442 529 442 q 447 421 481 435 q 393 403 421 411 q 328 396 365 396 q 315 406 315 397 l 317 417 q 319 447 319 429 q 297 528 319 496 q 229 565 275 561 q 160 531 185 565 q 135 460 135 496 q 215 357 135 392 q 222 350 222 354 l 222 344 q 154 221 194 279 q 121 185 138 199 q 78 167 104 171 q 33 249 40 167 q 40 308 33 279 l 44 333 q 93 464 57 403 q 99 479 99 472 q 90 499 99 490 q 71 507 81 507 q 33 483 54 507 q -42 246 -39 388 q -10 144 -42 192 q 79 97 21 97 l 92 97 m 236 418 q 228 421 232 418 q 222 426 225 424 q 217 431 219 429 q 201 461 201 446 q 207 481 201 475 q 226 493 213 488 q 241 476 238 493 q 246 428 244 458 q 244 423 246 425 q 236 418 243 421 z "},"p":{"ha":557,"x_min":-139,"x_max":610,"o":"m -100 -328 q -62 -301 -74 -328 q -46 -243 -51 -275 q 43 71 -21 -129 l 54 106 q 247 465 129 369 l 251 468 q 272 478 264 478 q 292 466 288 474 q 296 443 296 458 l 293 394 q 290 308 290 356 q 295 254 290 276 q 315 214 300 232 q 385 182 344 182 q 518 267 451 182 q 608 408 575 332 l 610 421 q 603 440 610 435 q 583 446 596 444 q 560 431 569 446 l 549 414 q 468 301 511 356 q 426 258 442 271 q 382 242 411 246 q 357 272 357 242 q 363 350 357 313 q 369 429 369 388 l 369 450 q 340 521 367 493 q 274 549 313 549 q 213 532 238 546 q 164 492 188 518 q 61 353 106 429 l 75 439 q 81 488 81 464 q 74 524 81 511 q 50 538 68 538 q 18 507 26 538 q -3 408 10 458 q -31 260 -21 335 q -106 -122 -60 75 l -131 -242 q -135 -263 -133 -257 q -139 -287 -137 -269 q -108 -326 -139 -312 l -100 -328 z "},"q":{"ha":615,"x_min":-42,"x_max":668,"o":"m 226 -326 q 304 -292 269 -326 q 378 -90 378 -207 q 333 40 378 -18 q 329 51 329 47 q 339 61 329 57 q 527 192 444 107 q 660 378 610 278 q 668 410 668 393 q 628 449 665 443 q 608 443 618 449 q 596 428 599 438 q 569 374 592 407 q 431 208 518 282 q 235 103 343 133 l 225 101 q 221 106 221 101 l 222 115 q 344 436 276 279 q 349 449 346 443 q 368 519 364 481 q 356 549 368 536 q 328 561 344 561 q 297 544 313 561 q 289 539 292 539 q 281 546 285 539 q 197 586 244 586 q 60 521 114 581 q -29 372 -4 458 q -42 303 -42 339 q -15 219 -42 256 q 53 183 11 183 q 131 213 96 183 q 194 278 165 242 l 194 269 q 131 71 156 172 l 129 61 q 96 -143 96 -58 l 97 -187 q 139 -285 104 -244 q 226 -326 174 -326 m 219 -265 q 187 -249 201 -265 q 169 -212 172 -232 q 165 -167 165 -192 q 185 -49 171 -107 l 200 31 q 203 38 200 38 l 229 25 q 300 -106 300 -4 q 250 -249 300 -183 q 219 -265 238 -265 m 53 247 q 34 258 39 247 q 26 289 29 268 q 47 371 29 333 q 124 478 75 432 q 157 502 142 494 q 196 513 172 510 q 229 499 213 513 q 246 474 246 485 q 238 456 246 464 l 235 451 q 108 279 181 358 q 53 247 75 247 z "},"r":{"ha":486,"x_min":-28,"x_max":542,"o":"m 169 -39 q 211 -32 189 -39 q 367 86 304 6 q 475 258 431 167 l 481 267 q 538 389 514 325 q 540 397 538 393 q 542 408 542 401 q 511 436 539 436 q 483 419 493 436 q 453 367 468 394 q 356 201 403 278 q 171 28 247 28 q 144 44 156 28 q 133 83 133 60 q 140 140 133 113 q 215 332 161 228 q 231 365 224 349 q 239 394 239 381 q 190 438 239 431 q 35 538 86 438 q 23 555 29 550 q 3 561 17 560 q -19 551 -11 561 q -28 531 -28 542 l -25 514 q 125 372 14 401 q 142 363 142 368 q 135 347 142 358 q 56 97 71 222 q 89 -1 56 36 q 169 -39 122 -39 z "},"s":{"ha":467,"x_min":-153,"x_max":521,"o":"m 22 -3 q 167 50 101 3 q 279 201 249 106 q 296 224 282 217 l 313 232 q 458 318 389 269 l 469 328 q 505 357 489 342 q 521 392 521 372 q 510 417 521 407 q 486 426 500 426 q 422 390 465 426 q 288 306 374 349 q 132 438 256 421 q 89 445 108 440 q 69 463 69 450 l 72 474 q 178 538 107 535 q 205 534 192 538 q 231 531 218 531 q 269 560 269 531 q 237 594 269 582 q 176 607 204 607 q 4 508 63 607 q -8 460 -8 483 q 44 381 -8 411 q 124 361 83 364 q 211 274 206 351 q 203 263 211 265 l -60 138 q -125 106 -97 124 q -153 64 -153 89 q -126 24 -153 39 q -61 3 -99 10 q 7 -3 -24 -3 l 22 -3 m 1 74 l -4 74 l -6 78 l 169 161 q 1 74 101 74 z "},"t":{"ha":392,"x_min":-42,"x_max":450,"o":"m 122 50 q 299 175 206 50 q 378 288 340 231 q 444 411 417 344 q 450 431 450 422 q 444 447 450 443 q 425 454 438 451 q 399 439 411 454 q 376 404 388 424 l 360 376 q 231 201 300 286 q 126 125 169 125 q 102 142 110 125 q 94 179 94 158 l 97 219 q 125 444 110 353 q 129 468 128 456 q 146 524 132 497 q 233 688 192 606 q 238 697 235 694 q 310 710 242 699 q 344 722 328 714 q 360 746 360 729 q 335 772 360 772 l 310 772 q 269 769 292 772 q 314 921 299 846 q 331 1025 331 972 q 321 1082 331 1060 q 279 1110 311 1104 q 237 1088 256 1110 q 208 1039 218 1065 q 119 782 154 914 q 104 756 114 758 q 64 753 94 753 q -9 747 24 753 q -42 715 -42 740 q -16 686 -39 692 q 35 681 7 681 q 65 683 53 681 q 88 685 76 685 q 94 681 94 685 l 68 551 q 18 454 51 500 q 2 428 10 442 q -6 404 -6 415 q 25 371 -6 381 q 33 367 32 371 q 35 358 35 364 l 29 324 q 19 192 19 257 q 60 72 19 107 q 122 50 86 50 z "},"u":{"ha":564,"x_min":-42,"x_max":622,"o":"m 64 60 q 135 86 103 60 q 192 150 167 113 q 235 224 217 188 q 240 193 239 208 q 257 128 243 158 q 353 61 288 68 q 494 156 428 61 q 553 253 521 193 q 621 403 592 325 l 622 419 q 615 439 622 431 q 596 447 607 447 q 551 404 571 447 q 451 225 508 311 q 403 162 431 192 q 357 132 376 132 q 330 160 343 132 q 317 222 317 189 q 333 368 318 288 q 347 433 342 411 q 360 507 356 469 q 350 526 360 519 q 331 532 340 532 q 311 524 319 532 q 292 497 303 510 q 269 465 281 483 l 150 226 q 65 131 99 131 q 35 213 35 131 q 67 424 35 314 q 81 489 76 454 q 72 511 81 506 q 50 518 64 517 q 19 497 31 518 q -39 250 -31 376 q -42 215 -42 233 q -33 149 -42 185 q 0 86 -24 113 q 64 60 24 60 z "},"v":{"ha":526,"x_min":-14,"x_max":578,"o":"m 92 90 q 175 125 136 90 q 244 211 214 160 q 293 315 274 263 q 307 329 297 329 l 336 324 q 382 317 354 317 q 474 333 435 317 q 556 382 513 349 q 578 421 576 394 q 569 442 578 433 q 549 451 561 451 q 510 435 531 449 l 506 432 q 379 392 431 392 q 356 393 368 392 q 333 399 343 394 q 324 411 324 403 q 327 426 325 418 q 331 442 329 433 q 332 464 332 451 q 319 526 332 503 q 274 549 306 549 q 222 516 243 549 q 200 447 200 483 q 228 376 200 411 q 232 368 232 372 q 136 192 203 271 q 117 176 125 182 q 96 167 110 171 q 71 193 79 167 q 63 240 63 219 l 63 261 q 76 433 63 358 l 82 489 q 47 526 82 522 q 14 496 24 526 q -14 256 -14 347 q 12 142 -14 194 q 92 90 38 90 z "},"w":{"ha":686,"x_min":-42,"x_max":732,"o":"m 54 71 q 121 99 92 71 q 176 168 150 128 q 281 79 210 79 q 406 160 342 79 q 496 343 471 240 q 507 354 499 354 q 538 349 522 353 q 576 346 554 346 q 643 353 607 346 q 706 376 679 360 q 732 418 732 392 q 723 440 732 431 q 701 449 714 449 q 686 444 694 449 q 576 424 633 424 q 524 428 551 424 q 515 433 517 431 q 514 443 514 436 l 514 450 q 493 515 514 485 q 440 546 472 546 q 406 531 421 544 q 382 472 382 513 q 419 392 382 425 q 426 382 426 386 l 425 378 q 342 203 403 281 q 282 157 308 157 q 256 178 265 157 q 247 222 247 200 q 254 274 247 249 l 257 286 q 286 410 267 350 l 288 419 q 276 448 288 436 q 249 460 264 460 q 208 422 222 460 l 189 375 q 82 160 147 257 l 78 156 q 60 143 68 143 q 49 149 51 144 q 44 160 46 154 q 43 168 43 165 q 38 222 38 194 q 51 343 39 289 q 85 464 63 397 q 89 483 89 475 q 81 507 89 500 q 56 517 74 514 q 27 498 38 517 q 8 454 17 479 l 6 443 q -42 204 -40 324 q -15 112 -42 153 q 54 71 13 71 z "},"x":{"ha":483,"x_min":-97,"x_max":539,"o":"m -71 60 q -36 82 -57 60 q -29 89 -33 86 q 79 226 24 158 q 85 224 85 225 q 86 217 85 222 q 90 208 88 213 q 139 119 106 158 q 233 76 178 76 q 493 301 329 76 q 536 376 519 336 q 539 393 539 385 q 530 411 539 403 q 510 419 521 419 q 494 415 499 418 q 483 406 489 413 q 448 365 476 400 q 390 294 419 329 q 267 167 338 225 q 232 153 249 153 q 178 199 199 153 q 143 299 149 261 q 288 474 143 310 q 308 514 304 493 q 298 538 308 528 q 275 547 288 547 q 254 539 264 547 q 238 522 244 531 q 175 453 231 513 q 117 393 119 393 q 110 401 113 393 q 106 421 108 408 q 99 446 103 433 l 94 457 q 69 518 85 490 q 36 536 54 536 q 15 527 24 536 q 6 503 6 518 q 8 489 6 497 q 39 389 28 440 l 54 336 l 54 328 q 48 311 54 319 q 35 294 42 303 q -64 161 -19 231 l -69 153 q -97 86 -94 115 q -89 67 -97 74 q -71 60 -81 60 z "},"y":{"ha":439,"x_min":-167,"x_max":497,"o":"m -17 -376 q 99 -329 39 -376 q 197 -185 164 -271 q 282 181 253 -37 q 313 226 286 213 q 432 311 379 258 l 443 324 q 480 365 463 343 q 497 408 497 386 q 489 429 497 421 q 469 438 481 438 q 431 410 456 438 q 306 303 375 350 l 303 310 l 335 463 q 351 535 340 499 q 357 563 357 549 q 331 610 357 606 l 322 611 q 297 598 304 611 q 286 567 290 585 q 274 533 282 549 q 174 385 229 454 q 90 315 118 315 q 69 381 69 315 q 79 472 69 429 q 89 551 89 514 q 58 597 89 596 q 24 560 32 597 l 21 540 q -7 360 -7 424 q 32 260 -7 290 q 92 238 58 238 q 163 263 131 238 q 229 325 196 289 l 225 311 q 219 273 221 290 q 204 250 217 256 l 142 222 q -9 133 61 190 q -123 1 -79 76 q -167 -165 -167 -75 q -143 -289 -167 -229 q -58 -371 -119 -349 q -17 -376 -36 -376 m -19 -299 q -72 -262 -56 -299 q -90 -171 -89 -225 q 18 54 -90 -47 q 201 167 100 126 q 193 114 201 138 l 190 96 q 156 -60 178 18 q 76 -242 133 -157 q 33 -281 58 -264 q -19 -299 8 -299 z "},"z":{"ha":446,"x_min":-153,"x_max":506,"o":"m -26 -351 q 73 -321 22 -351 q 160 -254 124 -290 q 285 46 285 -132 q 282 101 285 78 l 279 131 q 289 146 279 140 q 422 252 364 194 q 506 396 479 310 l 506 406 q 497 426 506 418 q 478 435 489 435 q 436 394 451 435 q 267 217 375 282 q 213 317 253 275 l 208 321 l 213 328 q 310 500 283 407 q 313 519 313 510 q 288 574 313 550 q 226 599 263 599 q 193 593 211 599 q 17 457 81 557 l 13 453 q 0 422 1 438 q 8 403 0 413 q 25 394 15 394 q 107 451 68 410 q 160 498 131 476 q 231 526 190 519 q 240 517 240 526 q 231 486 239 501 l 228 482 q 135 349 192 408 l 129 342 q 114 310 114 328 q 126 281 114 293 q 158 265 138 268 q 176 257 167 264 q 207 179 201 225 q 200 172 207 176 l 161 147 q 8 38 81 96 q -114 -96 -65 -19 q -153 -211 -153 -158 q -117 -308 -153 -264 q -26 -351 -82 -351 m -28 -274 q -62 -253 -49 -274 q -75 -206 -75 -233 q -43 -119 -75 -168 q 111 28 19 -31 q 156 59 140 47 q 214 97 171 71 q 198 -43 214 24 q 136 -168 182 -110 q -15 -272 76 -242 l -28 -274 z "},"{":{"ha":382,"x_min":97,"x_max":424,"o":"m 189 -29 q 237 -15 213 -29 q 261 22 261 -1 q 251 47 261 36 q 225 57 242 57 q 206 53 215 57 q 192 50 197 50 q 175 75 175 50 l 174 104 q 201 307 174 186 q 228 479 228 415 q 208 557 228 519 l 207 563 q 213 571 207 565 q 300 838 296 681 l 308 981 q 324 1057 310 1022 q 368 1092 338 1092 l 386 1090 q 424 1122 422 1090 q 404 1151 424 1142 q 361 1161 385 1161 q 257 1083 294 1161 q 224 893 224 997 l 224 885 q 206 726 224 803 q 125 596 189 650 q 103 558 103 578 q 132 522 103 538 q 151 472 151 511 q 128 326 151 439 q 97 107 97 190 q 100 56 97 82 q 131 -5 107 19 q 189 -29 156 -29 z "},"|":{"ha":303,"x_min":69,"x_max":276,"o":"m 107 -15 q 133 -4 122 -15 q 147 25 144 7 q 172 296 161 200 q 215 607 181 369 l 276 1096 q 242 1144 276 1144 q 215 1130 221 1144 q 206 1086 208 1115 l 188 981 q 167 840 174 911 q 150 719 160 779 l 117 471 q 92 258 110 419 q 81 164 88 210 q 69 24 71 96 q 80 -4 69 7 q 107 -15 90 -15 z "},"}":{"ha":326,"x_min":0,"x_max":271,"o":"m 39 -28 q 148 51 122 -17 q 181 203 174 119 q 186 253 181 214 q 256 561 214 506 q 269 594 269 576 q 256 622 269 610 q 222 635 242 635 q 212 637 214 635 q 210 674 210 639 q 231 792 213 713 q 260 938 251 878 q 271 1033 271 985 l 271 1069 q 242 1130 267 1108 q 179 1151 217 1151 q 135 1143 157 1151 q 114 1114 114 1135 q 128 1088 115 1094 q 164 1081 142 1082 l 179 1082 q 197 1074 193 1082 q 200 1051 200 1067 q 164 853 200 1021 l 150 781 q 132 656 132 708 l 132 635 q 148 588 132 600 q 164 563 164 576 q 162 543 164 550 q 156 528 160 536 q 149 507 153 521 q 108 256 122 381 q 88 111 100 182 q 33 47 81 63 q 8 32 17 43 q 0 8 0 21 q 39 -28 4 -28 z "},"~":{"ha":406,"x_min":97,"x_max":336,"o":"m 257 376 q 312 406 288 376 q 336 458 336 435 q 301 497 336 493 q 260 453 272 497 l 257 442 q 251 448 251 446 q 250 451 250 450 q 179 503 222 503 q 124 480 147 503 q 97 422 101 457 q 106 399 97 408 q 126 389 115 389 q 147 396 140 389 q 164 417 154 403 q 178 432 174 432 q 185 426 181 432 q 203 404 192 414 l 207 400 q 257 376 231 376 z "},"¡":{"ha":271,"x_min":14,"x_max":229,"o":"m 51 -286 q 86 -254 76 -286 q 119 -54 106 -143 l 163 219 q 207 519 188 371 l 211 550 q 219 611 219 581 q 208 638 219 628 q 182 649 197 649 q 147 624 154 649 q 136 564 139 599 l 131 524 q 103 346 114 438 l 79 189 q 40 -57 53 39 l 14 -239 l 15 -239 q 22 -274 15 -262 q 51 -286 29 -285 m 188 715 q 217 728 204 715 q 229 760 229 742 q 217 788 229 775 q 189 801 204 801 q 153 761 154 796 q 188 715 153 718 z "},"¢":{"ha":447,"x_min":97,"x_max":396,"o":"m 226 67 q 267 144 267 67 l 267 156 q 269 191 267 174 q 271 231 271 208 q 273 244 271 240 q 279 250 275 247 q 358 367 340 294 l 360 378 q 349 402 360 393 q 328 411 339 411 q 299 397 311 411 q 276 363 288 382 q 253 328 265 343 q 222 313 240 313 q 185 343 197 313 q 172 403 172 374 q 200 526 175 465 q 250 615 217 578 q 276 629 261 629 q 313 615 304 625 q 324 576 322 606 q 300 522 324 546 q 289 500 289 513 q 298 478 289 488 q 321 468 307 468 q 356 482 338 468 q 386 531 376 501 q 396 586 396 561 q 332 689 396 658 q 315 707 315 696 q 336 819 333 778 q 301 854 336 850 q 271 825 278 854 q 247 713 254 771 q 236 696 247 700 q 181 653 200 683 q 97 414 97 535 q 116 311 97 360 q 192 240 135 263 q 200 231 200 238 q 193 103 193 160 q 226 67 196 68 z "},"£":{"ha":607,"x_min":56,"x_max":607,"o":"m 463 14 q 519 17 490 14 q 548 30 536 19 q 560 56 560 40 q 549 80 560 69 q 521 92 538 90 l 465 92 q 331 99 400 92 q 176 107 263 107 q 189 143 178 128 q 247 450 238 293 q 258 464 247 464 l 260 464 q 332 467 294 464 q 379 506 379 475 q 364 535 376 529 q 326 542 351 542 q 285 539 299 542 q 267 536 272 536 q 258 540 260 536 q 256 551 256 543 q 319 929 268 811 q 372 1004 335 976 q 426 1021 399 1021 q 489 1003 458 1021 q 524 963 511 989 q 536 911 536 938 q 533 883 536 897 q 531 850 531 868 q 535 826 531 835 q 557 815 540 818 q 585 835 572 815 q 607 915 607 872 q 555 1047 604 996 q 425 1097 506 1097 q 235 926 289 1097 q 186 650 192 793 l 176 540 q 167 532 176 532 q 140 533 149 532 q 104 500 108 533 q 114 479 104 489 q 139 467 124 469 q 171 461 154 465 l 168 440 q 125 192 160 324 q 124 188 124 190 q 107 144 117 165 q 76 105 97 122 q 56 69 56 88 q 67 41 56 54 q 101 28 79 28 q 121 29 113 28 q 164 31 139 31 q 317 22 239 31 q 463 14 394 14 z "},"¥":{"ha":622,"x_min":83,"x_max":650,"o":"m 250 17 q 289 57 282 17 q 299 222 294 139 q 301 233 299 231 q 313 236 304 236 q 347 233 329 233 q 410 246 390 233 q 426 275 422 253 q 415 302 426 290 q 385 314 403 314 l 310 308 q 300 321 300 308 q 301 342 300 332 q 306 418 306 376 q 309 438 306 435 q 322 440 313 440 l 361 440 q 432 478 432 440 q 415 507 432 496 q 365 518 399 518 q 511 765 444 638 q 606 931 588 904 q 646 1004 626 967 q 650 1025 650 1014 q 640 1050 650 1039 q 617 1061 631 1061 q 589 1050 597 1058 q 572 1025 581 1042 q 449 814 507 918 q 336 615 392 710 q 269 515 304 563 l 267 521 q 218 719 238 619 q 151 1031 171 901 q 117 1060 142 1060 q 83 1021 83 1060 q 103 886 90 950 l 106 876 q 178 546 138 710 q 183 533 179 540 q 186 521 186 526 q 171 510 186 510 l 150 511 q 113 478 115 511 q 134 449 113 457 q 181 440 156 440 l 204 440 q 226 431 217 439 q 235 411 235 422 l 228 319 q 218 308 228 308 l 149 310 q 124 301 133 310 q 113 276 114 292 q 141 245 113 251 q 210 239 169 239 q 222 226 222 239 l 219 194 q 213 76 213 136 q 219 32 213 47 q 250 17 226 17 z "},"¦":{"ha":267,"x_min":56,"x_max":267,"o":"m 167 599 q 206 632 196 599 l 251 910 l 256 944 q 267 1043 267 990 q 258 1073 267 1061 q 233 1086 249 1085 q 201 1049 210 1086 l 140 715 q 129 640 132 679 q 167 599 129 603 m 93 -4 q 133 35 125 -4 q 141 121 139 90 q 147 180 143 151 q 160 260 150 208 q 179 388 171 322 l 178 388 q 146 436 178 436 q 115 415 122 436 q 97 324 108 393 q 90 289 93 307 q 56 39 67 172 q 65 10 56 24 q 93 -4 75 -4 z "},"§":{"ha":533,"x_min":28,"x_max":506,"o":"m 243 67 q 382 104 314 67 q 446 163 425 128 q 467 238 467 199 q 403 367 467 310 q 332 401 374 389 l 342 407 q 392 435 371 419 q 429 482 414 451 q 437 510 435 496 q 443 534 439 524 q 447 553 447 544 q 432 597 447 575 q 401 638 417 619 q 332 683 371 672 q 251 697 293 694 q 144 725 194 701 q 106 778 106 744 q 115 811 106 793 q 260 940 163 901 q 343 961 300 961 q 402 946 374 961 q 431 899 431 931 q 386 797 431 853 q 374 772 374 786 q 407 736 379 736 q 454 769 433 736 q 506 896 506 850 q 454 1002 501 965 q 344 1039 407 1039 q 197 997 269 1039 q 76 894 125 954 q 28 779 33 846 q 119 650 28 697 l 178 629 q 104 549 132 596 q 76 464 76 501 q 107 393 76 424 q 174 352 138 363 q 251 337 211 342 q 331 319 290 332 q 372 289 356 311 q 390 240 388 267 q 365 183 390 204 q 304 154 340 163 q 235 146 268 146 q 182 157 201 146 q 158 200 163 168 q 144 222 154 214 q 121 231 133 231 q 92 217 104 231 q 79 185 79 204 q 105 119 79 146 q 169 80 131 93 q 243 67 207 67 m 213 460 l 196 460 l 165 461 q 154 469 154 463 q 192 542 161 507 q 267 583 224 576 l 288 585 q 340 572 315 585 q 364 535 364 560 q 312 478 364 497 q 213 460 260 460 z "},"¨":{"ha":267,"x_min":28,"x_max":239,"o":"m 199 1074 q 239 1124 236 1074 q 225 1153 239 1144 q 186 1161 211 1161 q 160 1149 171 1161 q 149 1114 149 1136 q 163 1085 149 1097 q 196 1074 176 1074 l 199 1074 m 72 1069 q 101 1083 90 1071 q 113 1113 113 1094 q 74 1151 110 1150 q 42 1138 56 1150 q 28 1110 29 1126 q 41 1081 28 1093 q 72 1069 54 1069 z "},"©":{"ha":726,"x_min":83,"x_max":660,"o":"m 360 94 q 576 206 497 97 q 660 443 660 310 q 620 617 660 536 q 494 746 581 699 q 381 774 438 774 q 228 723 294 774 q 122 592 161 672 q 83 426 83 513 q 117 267 83 343 q 212 143 150 192 q 360 94 274 94 m 361 172 q 217 249 272 172 q 161 424 161 326 q 189 549 161 486 q 267 653 217 611 q 385 696 318 696 q 489 661 444 696 q 558 574 533 626 q 582 469 582 521 q 567 345 582 399 q 506 240 551 292 q 361 172 440 172 m 357 247 q 465 326 424 247 q 469 343 469 335 q 460 365 469 356 q 440 374 451 374 q 398 344 424 374 q 358 314 372 314 q 328 334 342 314 q 314 378 314 354 l 314 397 q 322 444 314 422 q 340 488 329 465 q 362 520 347 504 q 393 536 376 536 q 413 529 404 536 q 421 511 421 522 l 417 476 q 424 456 417 461 q 446 449 431 450 q 479 472 468 449 q 490 517 490 494 q 389 608 490 600 q 332 591 356 608 q 289 549 308 574 q 247 469 257 508 q 238 381 238 431 q 271 288 238 321 q 357 247 314 247 z "},"ª":{"ha":293,"x_min":28,"x_max":265,"o":"m 179 932 q 224 993 210 932 l 238 1043 q 265 1178 258 1108 l 264 1200 q 237 1263 260 1238 q 182 1288 214 1288 q 163 1285 172 1288 q 95 1260 129 1278 q 61 1213 61 1242 q 71 1190 61 1199 q 94 1181 81 1181 q 118 1189 106 1181 q 176 1218 142 1210 q 189 1204 186 1218 l 189 1165 q 175 1156 188 1156 l 169 1156 q 75 1127 122 1156 q 28 1044 28 1099 q 47 989 28 1014 q 85 963 64 969 q 132 951 107 956 q 158 942 146 951 q 179 932 169 932 m 140 1017 l 132 1018 q 100 1039 103 1021 q 121 1073 100 1061 q 164 1089 142 1085 q 168 1083 168 1089 l 153 1025 q 140 1017 151 1017 z "},"«":{"ha":553,"x_min":83,"x_max":508,"o":"m 271 185 q 297 195 286 185 q 308 221 308 206 q 297 251 308 236 q 174 407 232 328 q 169 417 169 413 q 253 514 169 426 q 340 611 297 561 q 351 642 351 628 q 342 663 351 653 q 319 672 332 672 q 290 658 304 672 q 203 568 247 613 q 83 424 83 454 q 200 246 83 383 l 238 201 q 271 185 253 185 m 428 185 q 454 195 443 185 q 465 221 465 206 q 454 251 465 236 q 331 407 389 328 q 326 417 326 413 q 410 514 326 426 q 497 611 454 561 q 508 642 508 628 q 499 663 508 653 q 476 672 489 672 q 447 658 461 672 q 360 568 404 613 q 240 424 240 454 q 357 246 240 383 l 394 201 q 428 185 410 185 z "},"®":{"ha":729,"x_min":83,"x_max":667,"o":"m 357 125 q 517 179 447 125 q 627 317 588 233 q 667 488 667 401 q 655 592 665 546 q 615 686 644 639 q 392 817 528 817 q 207 739 286 817 q 83 451 85 621 q 101 328 86 381 q 160 224 115 276 q 357 125 240 125 m 357 203 q 214 281 272 203 q 161 424 161 358 q 242 664 161 581 q 390 739 306 739 q 490 708 443 739 q 565 617 538 678 q 590 490 590 551 q 560 356 590 422 q 476 247 529 290 q 357 203 424 203 m 299 281 q 327 295 315 281 q 339 328 339 310 l 349 419 q 358 411 356 417 q 450 319 390 365 q 474 308 460 308 q 502 320 494 311 q 513 349 510 329 q 497 379 513 367 q 425 451 458 411 q 418 464 418 458 q 429 475 418 469 q 485 528 463 494 q 507 600 507 563 q 418 689 507 683 q 353 674 386 689 q 311 621 321 660 l 293 533 q 268 393 278 464 l 267 381 q 263 332 263 357 q 269 296 263 310 q 299 281 275 282 m 372 531 q 369 531 371 531 q 367 533 367 532 q 365 536 367 535 q 367 544 365 540 q 371 551 369 549 q 381 603 371 579 q 417 626 392 626 q 430 622 425 626 q 435 606 435 618 q 389 540 426 564 q 382 535 386 539 q 372 531 378 531 z "},"°":{"ha":254,"x_min":28,"x_max":226,"o":"m 129 1014 q 198 1044 172 1014 q 226 1114 224 1074 q 194 1176 226 1146 q 111 1204 169 1203 q 55 1172 82 1204 q 28 1106 28 1140 q 124 1014 35 1014 l 129 1014 m 126 1078 l 122 1078 q 100 1099 104 1078 q 106 1122 100 1108 q 121 1136 113 1135 q 131 1131 125 1136 q 143 1119 138 1126 q 149 1108 149 1113 q 144 1097 149 1104 q 135 1083 140 1089 q 126 1078 129 1078 z "},"²":{"ha":304,"x_min":28,"x_max":276,"o":"m 207 939 l 231 942 q 265 975 263 949 q 240 1013 265 1000 q 209 1017 226 1017 q 185 1017 192 1017 q 179 1019 179 1018 q 178 1022 179 1019 q 182 1026 178 1025 q 201 1047 193 1036 l 208 1056 q 276 1188 276 1132 q 186 1276 276 1269 q 93 1238 133 1276 q 56 1185 56 1210 q 64 1163 56 1172 q 85 1153 72 1153 q 119 1169 103 1156 q 183 1204 144 1196 q 201 1190 201 1204 q 182 1147 201 1175 q 47 1017 128 1068 q 28 985 28 1004 q 57 947 29 954 l 65 946 l 69 946 l 81 944 l 147 944 q 207 939 197 939 z "},"³":{"ha":278,"x_min":28,"x_max":250,"o":"m 69 931 q 153 947 113 933 q 222 988 194 961 q 250 1054 250 1014 q 210 1125 250 1093 q 235 1160 229 1149 q 240 1186 240 1172 q 203 1251 240 1232 q 131 1271 165 1271 q 64 1260 97 1271 q 31 1226 31 1250 q 40 1203 31 1213 q 64 1193 50 1193 q 97 1200 82 1194 q 128 1206 111 1206 q 143 1203 135 1206 q 157 1198 151 1201 q 163 1190 163 1194 q 146 1174 163 1182 q 107 1158 129 1167 q 66 1138 85 1149 q 47 1107 47 1126 q 89 1067 49 1067 l 147 1067 q 164 1063 156 1067 q 172 1053 172 1058 q 135 1021 172 1038 q 100 1013 118 1015 q 28 967 28 1001 q 64 931 32 931 l 69 931 z "},"´":{"ha":203,"x_min":28,"x_max":175,"o":"m 60 1043 q 87 1057 74 1043 q 112 1087 100 1071 q 138 1119 124 1103 q 163 1153 151 1135 q 175 1188 175 1171 q 135 1222 175 1221 q 114 1210 122 1222 q 28 1074 28 1093 q 38 1051 28 1060 q 60 1043 47 1043 z "},"·":{"ha":311,"x_min":97,"x_max":240,"o":"m 157 349 q 212 371 186 349 q 240 419 238 393 q 218 478 240 454 q 172 501 196 501 q 153 498 160 501 q 138 486 146 494 l 128 479 q 97 419 97 454 q 115 370 97 392 q 157 349 133 349 z "},"∙":{"ha":311,"x_min":97,"x_max":240,"o":"m 157 349 q 212 371 186 349 q 240 419 238 393 q 218 478 240 454 q 172 501 196 501 q 153 498 160 501 q 138 486 146 494 l 128 479 q 97 419 97 454 q 115 370 97 392 q 157 349 133 349 z "},"¸":{"ha":194,"x_min":28,"x_max":167,"o":"m 69 -262 q 138 -220 108 -256 q 167 -146 167 -185 q 154 -103 165 -118 q 115 -86 143 -89 q 106 -83 107 -86 q 106 -75 106 -81 l 113 -32 q 79 1 113 1 q 40 -36 49 1 q 32 -111 32 -74 q 39 -137 32 -124 q 58 -155 46 -150 q 85 -161 71 -160 q 64 -183 81 -174 l 58 -187 q 28 -228 28 -204 q 38 -252 28 -242 q 64 -262 49 -262 l 69 -262 z "},"¹":{"ha":226,"x_min":28,"x_max":199,"o":"m 81 924 q 154 933 117 933 l 164 933 q 189 945 179 933 q 199 971 199 957 q 167 1006 199 994 q 162 1006 165 1006 q 154 1008 158 1007 q 150 1017 150 1010 l 151 1021 l 158 1065 q 175 1140 164 1103 l 196 1247 q 161 1292 196 1292 q 144 1284 153 1292 q 125 1267 135 1276 q 83 1224 103 1247 q 64 1181 64 1201 q 92 1150 64 1160 q 100 1142 100 1149 q 68 1009 72 1017 q 49 1000 64 1001 q 35 990 42 1000 q 28 971 28 981 q 40 940 28 956 q 72 924 51 924 l 81 924 z "},"º":{"ha":324,"x_min":28,"x_max":296,"o":"m 142 928 q 224 963 189 928 q 277 1050 258 997 q 296 1157 296 1103 q 188 1265 274 1242 q 163 1269 175 1269 q 121 1251 139 1269 q 56 1163 78 1214 q 28 1044 28 1092 q 44 976 29 1001 q 100 936 60 950 q 142 928 121 928 m 138 1006 q 101 1043 101 1008 q 113 1108 104 1074 q 135 1167 122 1142 q 164 1192 149 1192 q 190 1181 174 1192 q 212 1160 206 1171 q 218 1121 218 1149 q 167 1018 213 1068 q 138 1006 153 1006 z "},"»":{"ha":528,"x_min":14,"x_max":431,"o":"m 196 185 q 239 206 217 185 l 319 283 q 411 376 383 344 q 431 419 428 396 q 421 450 431 439 q 288 606 363 535 l 243 653 q 215 667 229 667 q 194 657 203 667 q 185 636 185 647 q 206 588 185 613 q 249 543 226 564 q 343 431 290 501 q 346 421 346 426 q 340 411 346 417 q 218 293 278 353 l 207 283 q 176 251 190 268 q 163 218 163 235 q 173 195 163 206 q 196 185 183 185 m 47 185 q 90 206 68 185 l 171 283 q 263 376 235 344 q 282 419 279 396 q 272 450 282 439 q 139 606 214 535 l 94 653 q 67 667 81 667 q 45 657 54 667 q 36 636 36 647 q 57 588 36 613 q 100 543 78 564 q 194 431 142 501 q 197 421 197 426 q 192 411 197 417 q 69 293 129 353 l 58 283 q 28 251 42 268 q 14 218 14 235 q 24 195 14 206 q 47 185 35 185 z "},"¿":{"ha":593,"x_min":-14,"x_max":524,"o":"m 211 -294 q 352 -262 283 -294 q 472 -165 421 -231 q 524 -53 515 -118 q 490 -12 524 -15 q 457 -47 467 -12 q 425 -110 447 -81 q 213 -218 342 -211 q 189 -214 200 -218 l 183 -212 q 82 -147 114 -206 q 61 -64 61 -106 q 89 47 61 -4 q 161 141 117 97 q 258 225 206 185 q 358 311 311 265 q 440 417 406 357 l 451 435 q 471 466 463 450 q 479 499 479 482 q 471 519 479 511 q 443 529 463 528 q 406 507 421 529 q 376 460 390 485 q 300 363 343 404 q 208 283 257 321 q 113 201 160 246 q -14 -71 -14 79 q -6 -145 -14 -112 q 28 -208 1 -178 q 211 -294 106 -294 m 442 657 q 469 672 458 657 q 481 708 479 686 q 446 746 481 743 q 416 732 422 746 q 408 693 410 718 q 442 657 408 658 z "},"À":{"ha":947,"x_min":-14,"x_max":1015,"o":"m 183 4 q 300 42 244 4 q 504 247 422 124 l 549 314 q 544 238 549 276 q 619 82 544 126 q 693 61 654 61 q 782 90 740 61 q 960 292 878 156 l 976 319 q 1000 361 990 340 q 1015 410 1010 382 q 1006 438 1015 429 q 978 449 996 446 q 936 408 951 449 l 928 392 q 728 143 835 215 q 692 133 710 133 q 635 169 657 133 q 622 235 622 201 q 654 442 622 322 q 724 635 679 557 q 743 692 739 660 q 731 722 743 711 q 704 732 718 732 q 678 719 689 732 q 636 640 657 696 q 608 582 624 610 q 476 344 549 460 q 307 142 404 228 q 183 82 240 82 q 110 121 136 82 q 74 215 85 160 q 64 321 64 271 q 126 643 64 467 q 301 942 179 813 q 490 1039 394 1039 q 583 992 550 1039 q 617 875 615 944 q 596 769 617 821 q 592 753 592 760 q 601 731 592 739 q 622 722 611 722 q 644 731 632 722 q 660 753 656 740 q 690 883 690 818 q 637 1044 690 976 q 479 1115 583 1111 q 368 1088 421 1115 q 270 1019 315 1061 q 190 932 225 978 q 56 680 100 811 q -8 406 11 549 q -14 318 -14 361 q -8 224 -11 251 q 14 144 -4 189 q 108 22 39 65 q 183 4 147 4 m 511 1144 q 546 1182 546 1144 q 461 1269 546 1203 q 440 1285 450 1278 q 418 1293 429 1293 q 395 1283 404 1293 q 386 1261 386 1274 q 467 1169 386 1235 q 487 1153 476 1163 q 511 1144 497 1144 z "},"Á":{"ha":947,"x_min":-14,"x_max":1015,"o":"m 183 4 q 300 42 244 4 q 504 247 422 124 l 549 314 q 544 238 549 276 q 619 82 544 126 q 693 61 654 61 q 782 90 740 61 q 960 292 878 156 l 976 319 q 1000 361 990 340 q 1015 410 1010 382 q 1006 438 1015 429 q 978 449 996 446 q 936 408 951 449 l 928 392 q 728 143 835 215 q 692 133 710 133 q 635 169 657 133 q 622 235 622 201 q 654 442 622 322 q 724 635 679 557 q 743 692 739 660 q 731 722 743 711 q 704 732 718 732 q 678 719 689 732 q 636 640 657 696 q 608 582 624 610 q 476 344 549 460 q 307 142 404 228 q 183 82 240 82 q 110 121 136 82 q 74 215 85 160 q 64 321 64 271 q 126 643 64 467 q 301 942 179 813 q 490 1039 394 1039 q 583 992 550 1039 q 617 875 615 944 q 596 769 617 821 q 592 753 592 760 q 601 731 592 739 q 622 722 611 722 q 644 731 632 722 q 660 753 656 740 q 690 883 690 818 q 637 1044 690 976 q 479 1115 583 1111 q 368 1088 421 1115 q 270 1019 315 1061 q 190 932 225 978 q 56 680 100 811 q -8 406 11 549 q -14 318 -14 361 q -8 224 -11 251 q 14 144 -4 189 q 108 22 39 65 q 183 4 147 4 m 483 1146 q 510 1160 497 1146 q 535 1190 524 1174 q 561 1222 547 1206 q 587 1256 575 1238 q 599 1290 599 1274 q 558 1325 599 1324 q 538 1313 546 1325 q 451 1176 451 1196 q 461 1154 451 1163 q 483 1146 471 1146 z "},"Â":{"ha":947,"x_min":-14,"x_max":1015,"o":"m 183 4 q 300 42 244 4 q 504 247 422 124 l 549 314 q 544 238 549 276 q 619 82 544 126 q 693 61 654 61 q 782 90 740 61 q 960 292 878 156 l 976 319 q 1000 361 990 340 q 1015 410 1010 382 q 1006 438 1015 429 q 978 449 996 446 q 936 408 951 449 l 928 392 q 728 143 835 215 q 692 133 710 133 q 635 169 657 133 q 622 235 622 201 q 654 442 622 322 q 724 635 679 557 q 743 692 739 660 q 731 722 743 711 q 704 732 718 732 q 678 719 689 732 q 636 640 657 696 q 608 582 624 610 q 476 344 549 460 q 307 142 404 228 q 183 82 240 82 q 110 121 136 82 q 74 215 85 160 q 64 321 64 271 q 126 643 64 467 q 301 942 179 813 q 490 1039 394 1039 q 583 992 550 1039 q 617 875 615 944 q 596 769 617 821 q 592 753 592 760 q 601 731 592 739 q 622 722 611 722 q 644 731 632 722 q 660 753 656 740 q 690 883 690 818 q 637 1044 690 976 q 479 1115 583 1111 q 368 1088 421 1115 q 270 1019 315 1061 q 190 932 225 978 q 56 680 100 811 q -8 406 11 549 q -14 318 -14 361 q -8 224 -11 251 q 14 144 -4 189 q 108 22 39 65 q 183 4 147 4 m 586 1133 q 614 1176 614 1143 q 601 1224 614 1186 q 567 1295 588 1261 q 519 1329 547 1329 q 465 1298 492 1329 q 411 1231 438 1267 q 394 1208 403 1218 q 386 1186 386 1197 q 396 1162 389 1169 q 421 1151 403 1154 q 447 1165 438 1151 l 460 1181 q 500 1228 481 1203 q 511 1236 507 1236 q 517 1226 515 1236 q 522 1210 519 1217 q 541 1158 529 1182 q 578 1133 553 1133 l 586 1133 z "},"Ã":{"ha":947,"x_min":-14,"x_max":1015,"o":"m 183 4 q 300 42 244 4 q 504 247 422 124 l 549 314 q 544 238 549 276 q 619 82 544 126 q 693 61 654 61 q 782 90 740 61 q 960 292 878 156 l 976 319 q 1000 361 990 340 q 1015 410 1010 382 q 1006 438 1015 429 q 978 449 996 446 q 936 408 951 449 l 928 392 q 728 143 835 215 q 692 133 710 133 q 635 169 657 133 q 622 235 622 201 q 654 442 622 322 q 724 635 679 557 q 743 692 739 660 q 731 722 743 711 q 704 732 718 732 q 678 719 689 732 q 636 640 657 696 q 608 582 624 610 q 476 344 549 460 q 307 142 404 228 q 183 82 240 82 q 110 121 136 82 q 74 215 85 160 q 64 321 64 271 q 126 643 64 467 q 301 942 179 813 q 490 1039 394 1039 q 583 992 550 1039 q 617 875 615 944 q 596 769 617 821 q 592 753 592 760 q 601 731 592 739 q 622 722 611 722 q 644 731 632 722 q 660 753 656 740 q 690 883 690 818 q 637 1044 690 976 q 479 1115 583 1111 q 368 1088 421 1115 q 270 1019 315 1061 q 190 932 225 978 q 56 680 100 811 q -8 406 11 549 q -14 318 -14 361 q -8 224 -11 251 q 14 144 -4 189 q 108 22 39 65 q 183 4 147 4 m 540 1140 q 596 1169 572 1140 q 619 1222 619 1199 q 586 1261 619 1257 q 544 1217 556 1261 l 540 1206 q 534 1212 535 1210 q 533 1215 533 1214 q 464 1267 507 1267 q 408 1244 431 1267 q 381 1186 385 1221 q 390 1163 381 1172 q 411 1153 399 1153 q 431 1160 424 1153 q 448 1181 438 1167 q 463 1196 458 1196 q 468 1190 465 1196 q 486 1168 475 1178 l 490 1164 q 540 1140 515 1140 z "},"Ä":{"ha":947,"x_min":-14,"x_max":1015,"o":"m 183 4 q 300 42 244 4 q 504 247 422 124 l 549 314 q 544 238 549 276 q 619 82 544 126 q 693 61 654 61 q 782 90 740 61 q 960 292 878 156 l 976 319 q 1000 361 990 340 q 1015 410 1010 382 q 1006 438 1015 429 q 978 449 996 446 q 936 408 951 449 l 928 392 q 728 143 835 215 q 692 133 710 133 q 635 169 657 133 q 622 235 622 201 q 654 442 622 322 q 724 635 679 557 q 743 692 739 660 q 731 722 743 711 q 704 732 718 732 q 678 719 689 732 q 636 640 657 696 q 608 582 624 610 q 476 344 549 460 q 307 142 404 228 q 183 82 240 82 q 110 121 136 82 q 74 215 85 160 q 64 321 64 271 q 126 643 64 467 q 301 942 179 813 q 490 1039 394 1039 q 583 992 550 1039 q 617 875 615 944 q 596 769 617 821 q 592 753 592 760 q 601 731 592 739 q 622 722 611 722 q 644 731 632 722 q 660 753 656 740 q 690 883 690 818 q 637 1044 690 976 q 479 1115 583 1111 q 368 1088 421 1115 q 270 1019 315 1061 q 190 932 225 978 q 56 680 100 811 q -8 406 11 549 q -14 318 -14 361 q -8 224 -11 251 q 14 144 -4 189 q 108 22 39 65 q 183 4 147 4 m 567 1150 q 607 1200 604 1150 q 593 1229 607 1221 q 554 1238 579 1238 q 528 1225 539 1238 q 517 1190 517 1213 q 531 1162 517 1174 q 564 1150 544 1150 l 567 1150 m 440 1146 q 469 1159 458 1147 q 481 1189 481 1171 q 442 1228 478 1226 q 410 1215 424 1226 q 396 1186 397 1203 q 409 1158 396 1169 q 440 1146 422 1146 z "},"Å":{"ha":947,"x_min":-14,"x_max":1015,"o":"m 183 4 q 300 42 244 4 q 504 247 422 124 l 549 314 q 544 238 549 276 q 619 82 544 126 q 693 61 654 61 q 782 90 740 61 q 960 292 878 156 l 976 319 q 1000 361 990 340 q 1015 410 1010 382 q 1006 438 1015 429 q 978 449 996 446 q 936 408 951 449 l 928 392 q 728 143 835 215 q 692 133 710 133 q 635 169 657 133 q 622 235 622 201 q 654 442 622 322 q 724 635 679 557 q 743 692 739 660 q 731 722 743 711 q 704 732 718 732 q 678 719 689 732 q 636 640 657 696 q 608 582 624 610 q 476 344 549 460 q 307 142 404 228 q 183 82 240 82 q 110 121 136 82 q 74 215 85 160 q 64 321 64 271 q 126 643 64 467 q 301 942 179 813 q 490 1039 394 1039 q 583 992 550 1039 q 617 875 615 944 q 596 769 617 821 q 592 753 592 760 q 601 731 592 739 q 622 722 611 722 q 644 731 632 722 q 660 753 656 740 q 690 883 690 818 q 637 1044 690 976 q 479 1115 583 1111 q 368 1088 421 1115 q 270 1019 315 1061 q 190 932 225 978 q 56 680 100 811 q -8 406 11 549 q -14 318 -14 361 q -8 224 -11 251 q 14 144 -4 189 q 108 22 39 65 q 183 4 147 4 m 503 1143 q 571 1173 544 1143 q 599 1243 597 1203 q 567 1306 599 1275 q 483 1333 542 1332 q 428 1301 454 1333 q 401 1235 401 1269 q 496 1143 407 1143 l 503 1143 m 499 1207 l 496 1207 q 474 1228 476 1207 q 479 1251 474 1238 q 493 1265 485 1264 q 504 1260 497 1265 q 516 1249 511 1256 q 521 1238 521 1242 q 517 1226 521 1233 q 508 1213 513 1218 q 499 1207 503 1207 z "},"Æ":{"ha":1413,"x_min":-14,"x_max":1388,"o":"m 913 -62 q 1106 -20 1007 -62 q 1272 96 1204 22 q 1339 261 1339 169 q 1271 395 1339 343 q 1121 447 1203 447 q 915 385 1015 447 l 913 382 q 864 325 864 361 q 876 296 864 308 q 901 283 888 283 q 919 290 911 283 q 1011 349 958 328 q 1114 371 1064 371 q 1192 354 1153 371 q 1260 258 1260 325 q 1245 190 1258 218 q 1203 135 1232 163 q 1067 47 1146 79 q 917 14 989 14 q 787 44 850 14 q 697 138 724 74 q 683 215 683 176 q 690 281 683 249 q 914 578 735 482 q 1068 618 986 618 q 1132 612 1104 617 q 1197 607 1160 607 q 1254 647 1249 607 q 1169 696 1254 686 q 1068 699 1135 699 q 919 765 986 717 q 858 879 858 811 q 929 1026 858 953 q 1029 1093 969 1068 q 1144 1118 1089 1118 q 1279 1072 1217 1118 q 1308 1028 1308 1053 q 1289 989 1308 1007 q 1106 914 1214 917 q 1054 922 1074 914 l 1018 931 q 998 921 1006 931 q 990 900 990 911 q 1013 865 990 878 q 1067 847 1036 853 q 1122 842 1097 842 q 1154 844 1139 842 l 1158 844 q 1266 879 1214 854 q 1353 943 1318 904 q 1388 1031 1388 982 q 1350 1115 1388 1078 q 1257 1173 1313 1151 q 1146 1196 1201 1194 q 972 1151 1056 1196 q 834 1033 888 1106 q 781 876 781 960 q 818 760 781 813 q 925 669 856 707 q 799 599 847 635 q 706 496 751 563 q 640 383 665 440 l 654 442 q 724 635 679 557 q 743 692 739 660 q 731 722 743 711 q 704 732 718 732 q 678 719 689 732 q 636 640 657 694 q 608 582 624 610 q 476 344 549 460 q 307 142 404 228 q 183 82 240 82 q 110 121 136 82 q 74 215 85 160 q 64 321 64 271 q 126 643 64 468 q 301 942 179 813 q 390 1011 340 983 q 490 1039 439 1039 q 583 992 550 1039 q 617 875 615 944 q 596 769 617 821 q 592 753 592 760 q 601 731 592 739 q 622 722 611 722 q 644 731 632 722 q 660 753 656 740 q 690 883 690 818 q 637 1044 690 976 q 479 1115 583 1111 q 368 1088 421 1115 q 270 1019 315 1061 q 190 932 225 978 q 56 680 100 811 q -8 406 11 549 q -14 311 -14 361 q -8 224 -12 260 q 14 144 -4 189 q 108 22 39 65 q 183 4 147 4 q 300 42 244 4 q 504 247 422 124 l 549 314 q 544 238 549 297 q 644 69 544 108 q 706 4 667 33 q 913 -62 801 -62 z "},"Ç":{"ha":726,"x_min":-14,"x_max":783,"o":"m 257 6 q 433 51 346 6 q 597 165 521 96 q 731 308 674 233 l 739 319 q 767 361 756 342 q 783 408 779 381 q 774 430 783 421 q 754 439 764 439 q 711 404 735 439 q 579 254 650 325 q 381 113 493 161 q 260 83 310 83 q 85 210 136 83 q 64 365 64 281 q 92 557 64 457 q 221 857 128 719 q 316 957 263 919 q 446 1001 369 994 q 508 985 479 1001 q 550 900 550 960 q 533 826 550 861 q 332 682 476 699 q 286 700 307 682 q 261 713 272 713 q 245 706 251 713 q 239 688 239 699 q 272 638 239 653 q 350 622 306 624 q 528 695 446 622 q 625 874 611 768 l 626 907 q 574 1030 626 981 q 451 1079 522 1079 q 175 925 293 1079 q 26 610 75 794 q -3 481 6 539 q -14 349 -12 424 q 27 154 -14 246 q 171 21 68 63 q 257 6 214 6 m 231 -214 q 299 -172 269 -207 q 328 -97 328 -136 q 315 -55 326 -69 q 276 -37 304 -40 q 267 -35 268 -37 q 267 -26 267 -32 l 274 17 q 240 50 274 50 q 201 13 210 50 q 193 -62 193 -25 q 200 -88 193 -75 q 219 -106 207 -101 q 246 -112 232 -111 q 225 -135 242 -125 l 219 -139 q 189 -179 189 -156 q 199 -203 189 -193 q 225 -214 210 -214 l 231 -214 z "},"È":{"ha":860,"x_min":28,"x_max":808,"o":"m 333 -62 q 526 -20 428 -62 q 692 96 625 22 q 760 261 760 169 q 692 395 760 343 q 542 447 624 447 q 338 385 435 447 l 333 382 q 285 325 285 360 q 297 296 285 308 q 322 283 308 283 q 340 290 332 283 q 433 349 379 328 q 535 371 486 371 q 613 354 574 371 q 681 258 681 325 q 666 190 679 218 q 624 135 653 163 q 488 47 567 79 q 338 14 410 14 q 208 44 271 14 q 118 138 144 74 q 104 215 104 176 q 111 281 104 249 q 335 578 156 482 q 489 618 407 618 q 553 612 525 617 q 618 607 581 607 q 675 647 672 608 q 590 696 675 688 q 489 699 556 699 q 340 765 407 717 q 279 879 279 811 q 350 1026 279 953 q 451 1093 392 1068 q 565 1118 510 1118 q 700 1072 638 1118 q 729 1028 729 1053 q 710 989 729 1007 q 526 914 635 917 q 475 922 496 914 l 439 931 q 419 921 428 931 q 411 900 411 911 q 434 865 411 878 q 488 847 457 853 q 543 842 518 842 q 688 879 608 842 q 774 943 739 904 q 808 1031 808 982 q 771 1115 808 1078 q 678 1173 733 1151 q 567 1196 622 1194 q 393 1151 476 1196 q 256 1033 310 1106 q 201 876 201 960 q 346 669 201 749 q 220 599 268 635 q 126 497 172 563 q 54 365 81 432 q 28 221 28 297 q 126 4 28 79 q 333 -62 222 -62 m 600 1218 q 635 1256 635 1218 q 550 1343 635 1276 q 528 1359 539 1351 q 507 1367 518 1367 q 484 1357 493 1367 q 475 1335 475 1347 q 556 1243 475 1308 q 576 1227 565 1236 q 600 1218 586 1218 z "},"É":{"ha":860,"x_min":28,"x_max":808,"o":"m 333 -62 q 526 -20 428 -62 q 692 96 625 22 q 760 261 760 169 q 692 395 760 343 q 542 447 624 447 q 338 385 435 447 l 333 382 q 285 325 285 360 q 297 296 285 308 q 322 283 308 283 q 340 290 332 283 q 433 349 379 328 q 535 371 486 371 q 613 354 574 371 q 681 258 681 325 q 666 190 679 218 q 624 135 653 163 q 488 47 567 79 q 338 14 410 14 q 208 44 271 14 q 118 138 144 74 q 104 215 104 176 q 111 281 104 249 q 335 578 156 482 q 489 618 407 618 q 553 612 525 617 q 618 607 581 607 q 675 647 672 608 q 590 696 675 688 q 489 699 556 699 q 340 765 407 717 q 279 879 279 811 q 350 1026 279 953 q 451 1093 392 1068 q 565 1118 510 1118 q 700 1072 638 1118 q 729 1028 729 1053 q 710 989 729 1007 q 526 914 635 917 q 475 922 496 914 l 439 931 q 419 921 428 931 q 411 900 411 911 q 434 865 411 878 q 488 847 457 853 q 543 842 518 842 q 688 879 608 842 q 774 943 739 904 q 808 1031 808 982 q 771 1115 808 1078 q 678 1173 733 1151 q 567 1196 622 1194 q 393 1151 476 1196 q 256 1033 310 1106 q 201 876 201 960 q 346 669 201 749 q 220 599 268 635 q 126 497 172 563 q 54 365 81 432 q 28 221 28 297 q 126 4 28 79 q 333 -62 222 -62 m 558 1226 q 585 1240 572 1226 q 610 1270 599 1254 q 636 1302 622 1286 q 662 1336 650 1318 q 674 1371 674 1354 q 633 1406 674 1404 q 613 1393 621 1406 q 526 1257 526 1276 q 536 1235 526 1243 q 558 1226 546 1226 z "},"Ê":{"ha":860,"x_min":28,"x_max":808,"o":"m 333 -62 q 526 -20 428 -62 q 692 96 625 22 q 760 261 760 169 q 692 395 760 343 q 542 447 624 447 q 338 385 435 447 l 333 382 q 285 325 285 360 q 297 296 285 308 q 322 283 308 283 q 340 290 332 283 q 433 349 379 328 q 535 371 486 371 q 613 354 574 371 q 681 258 681 325 q 666 190 679 218 q 624 135 653 163 q 488 47 567 79 q 338 14 410 14 q 208 44 271 14 q 118 138 144 74 q 104 215 104 176 q 111 281 104 249 q 335 578 156 482 q 489 618 407 618 q 553 612 525 617 q 618 607 581 607 q 675 647 672 608 q 590 696 675 688 q 489 699 556 699 q 340 765 407 717 q 279 879 279 811 q 350 1026 279 953 q 451 1093 392 1068 q 565 1118 510 1118 q 700 1072 638 1118 q 729 1028 729 1053 q 710 989 729 1007 q 526 914 635 917 q 475 922 496 914 l 439 931 q 419 921 428 931 q 411 900 411 911 q 434 865 411 878 q 488 847 457 853 q 543 842 518 842 q 688 879 608 842 q 774 943 739 904 q 808 1031 808 982 q 771 1115 808 1078 q 678 1173 733 1151 q 567 1196 622 1194 q 393 1151 476 1196 q 256 1033 310 1106 q 201 876 201 960 q 346 669 201 749 q 220 599 268 635 q 126 497 172 563 q 54 365 81 432 q 28 221 28 297 q 126 4 28 79 q 333 -62 222 -62 m 676 1204 q 704 1247 704 1214 q 691 1294 704 1257 q 658 1366 678 1332 q 610 1400 638 1400 q 555 1369 582 1400 q 501 1301 528 1338 q 485 1278 493 1289 q 476 1257 476 1268 q 486 1233 479 1240 q 511 1222 493 1225 q 538 1236 528 1222 l 550 1251 q 590 1299 571 1274 q 601 1307 597 1307 q 608 1297 606 1307 q 613 1281 610 1288 q 631 1228 619 1253 q 668 1204 643 1204 l 676 1204 z "},"Ë":{"ha":860,"x_min":28,"x_max":808,"o":"m 333 -62 q 526 -20 428 -62 q 692 96 625 22 q 760 261 760 169 q 692 395 760 343 q 542 447 624 447 q 338 385 435 447 l 333 382 q 285 325 285 360 q 297 296 285 308 q 322 283 308 283 q 340 290 332 283 q 433 349 379 328 q 535 371 486 371 q 613 354 574 371 q 681 258 681 325 q 666 190 679 218 q 624 135 653 163 q 488 47 567 79 q 338 14 410 14 q 208 44 271 14 q 118 138 144 74 q 104 215 104 176 q 111 281 104 249 q 335 578 156 482 q 489 618 407 618 q 553 612 525 617 q 618 607 581 607 q 675 647 672 608 q 590 696 675 688 q 489 699 556 699 q 340 765 407 717 q 279 879 279 811 q 350 1026 279 953 q 451 1093 392 1068 q 565 1118 510 1118 q 700 1072 638 1118 q 729 1028 729 1053 q 710 989 729 1007 q 526 914 635 917 q 475 922 496 914 l 439 931 q 419 921 428 931 q 411 900 411 911 q 434 865 411 878 q 488 847 457 853 q 543 842 518 842 q 688 879 608 842 q 774 943 739 904 q 808 1031 808 982 q 771 1115 808 1078 q 678 1173 733 1151 q 567 1196 622 1194 q 393 1151 476 1196 q 256 1033 310 1106 q 201 876 201 960 q 346 669 201 749 q 220 599 268 635 q 126 497 172 563 q 54 365 81 432 q 28 221 28 297 q 126 4 28 79 q 333 -62 222 -62 m 631 1226 q 671 1276 668 1226 q 657 1306 671 1297 q 618 1314 643 1314 q 592 1301 603 1314 q 581 1267 581 1289 q 594 1238 581 1250 q 628 1226 608 1226 l 631 1226 m 504 1222 q 533 1235 522 1224 q 544 1265 544 1247 q 506 1304 542 1303 q 474 1291 488 1303 q 460 1263 461 1279 q 473 1234 460 1246 q 504 1222 486 1222 z "},"Ì":{"ha":594,"x_min":0,"x_max":631,"o":"m 250 -11 q 436 94 383 -11 q 492 264 474 176 q 542 544 524 407 q 579 769 551 632 q 622 1028 607 899 l 624 1042 q 631 1099 631 1069 q 599 1147 628 1147 q 584 1144 590 1147 q 569 1142 578 1142 l 533 1144 q 458 1149 496 1149 l 432 1149 q 298 1142 365 1149 q 172 1104 231 1135 q 88 1013 118 1072 q 58 894 58 953 q 106 767 58 819 q 233 690 154 714 l 246 689 q 286 728 283 689 q 257 761 286 747 q 173 809 204 782 q 136 896 142 836 q 146 949 136 924 q 254 1054 169 1032 q 464 1075 351 1075 q 551 1073 544 1075 q 557 1061 557 1071 q 528 903 554 1040 q 461 525 486 700 q 363 121 426 263 q 249 65 333 65 q 128 122 178 65 q 78 254 78 178 q 93 336 78 294 q 146 397 108 378 q 176 439 176 414 q 167 463 176 451 q 140 474 157 474 q 126 471 133 474 q 30 388 60 447 q 0 263 0 329 q 70 72 0 154 q 250 -11 140 -11 m 439 1181 q 474 1218 474 1181 q 389 1306 474 1239 q 367 1322 378 1314 q 346 1329 357 1329 q 323 1319 332 1329 q 314 1297 314 1310 q 394 1206 314 1271 q 415 1190 404 1199 q 439 1181 425 1181 z "},"Í":{"ha":594,"x_min":0,"x_max":631,"o":"m 250 -11 q 436 94 383 -11 q 492 264 474 176 q 542 544 524 407 q 579 769 551 632 q 622 1028 607 899 l 624 1042 q 631 1099 631 1069 q 599 1147 628 1147 q 584 1144 590 1147 q 569 1142 578 1142 l 533 1144 q 458 1149 496 1149 l 432 1149 q 298 1142 365 1149 q 172 1104 231 1135 q 88 1013 118 1072 q 58 894 58 953 q 106 767 58 819 q 233 690 154 714 l 246 689 q 286 728 283 689 q 257 761 286 747 q 173 809 204 782 q 136 896 142 836 q 146 949 136 924 q 254 1054 169 1032 q 464 1075 351 1075 q 551 1073 544 1075 q 557 1061 557 1071 q 528 903 554 1040 q 461 525 486 700 q 363 121 426 263 q 249 65 333 65 q 128 122 178 65 q 78 254 78 178 q 93 336 78 294 q 146 397 108 378 q 176 439 176 414 q 167 463 176 451 q 140 474 157 474 q 126 471 133 474 q 30 388 60 447 q 0 263 0 329 q 70 72 0 154 q 250 -11 140 -11 m 397 1176 q 424 1190 411 1176 q 449 1220 438 1204 q 475 1252 461 1236 q 501 1286 489 1268 q 513 1321 513 1304 q 472 1356 513 1354 q 451 1343 460 1356 q 365 1207 365 1226 q 375 1185 365 1193 q 397 1176 385 1176 z "},"Î":{"ha":594,"x_min":0,"x_max":631,"o":"m 250 -11 q 436 94 383 -11 q 492 264 474 176 q 542 544 524 407 q 579 769 551 632 q 622 1028 607 899 l 624 1042 q 631 1099 631 1069 q 599 1147 628 1147 q 584 1144 590 1147 q 569 1142 578 1142 l 533 1144 q 458 1149 496 1149 l 432 1149 q 298 1142 365 1149 q 172 1104 231 1135 q 88 1013 118 1072 q 58 894 58 953 q 106 767 58 819 q 233 690 154 714 l 246 689 q 286 728 283 689 q 257 761 286 747 q 173 809 204 782 q 136 896 142 836 q 146 949 136 924 q 254 1054 169 1032 q 464 1075 351 1075 q 551 1073 544 1075 q 557 1061 557 1071 q 528 903 554 1040 q 461 525 486 700 q 363 121 426 263 q 249 65 333 65 q 128 122 178 65 q 78 254 78 178 q 93 336 78 294 q 146 397 108 378 q 176 439 176 414 q 167 463 176 451 q 140 474 157 474 q 126 471 133 474 q 30 388 60 447 q 0 263 0 329 q 70 72 0 154 q 250 -11 140 -11 m 497 1175 q 525 1218 525 1185 q 512 1265 525 1228 q 478 1337 499 1303 q 431 1371 458 1371 q 376 1340 403 1371 q 322 1272 349 1308 q 306 1249 314 1260 q 297 1228 297 1239 q 307 1203 300 1211 q 332 1193 314 1196 q 358 1207 349 1193 l 371 1222 q 411 1269 392 1244 q 422 1278 418 1278 q 428 1268 426 1278 q 433 1251 431 1258 q 452 1199 440 1224 q 489 1175 464 1175 l 497 1175 z "},"Ï":{"ha":594,"x_min":0,"x_max":631,"o":"m 250 -11 q 436 94 383 -11 q 492 264 474 176 q 542 544 524 407 q 579 769 551 632 q 622 1028 607 899 l 624 1042 q 631 1099 631 1069 q 599 1147 628 1147 q 584 1144 590 1147 q 569 1142 578 1142 l 533 1144 q 458 1149 496 1149 l 432 1149 q 298 1142 365 1149 q 172 1104 231 1135 q 88 1013 118 1072 q 58 894 58 953 q 106 767 58 819 q 233 690 154 714 l 246 689 q 286 728 283 689 q 257 761 286 747 q 173 809 204 782 q 136 896 142 836 q 146 949 136 924 q 254 1054 169 1032 q 464 1075 351 1075 q 551 1073 544 1075 q 557 1061 557 1071 q 528 903 554 1040 q 461 525 486 700 q 363 121 426 263 q 249 65 333 65 q 128 122 178 65 q 78 254 78 178 q 93 336 78 294 q 146 397 108 378 q 176 439 176 414 q 167 463 176 451 q 140 474 157 474 q 126 471 133 474 q 30 388 60 447 q 0 263 0 329 q 70 72 0 154 q 250 -11 140 -11 m 456 1190 q 496 1240 493 1190 q 482 1269 496 1261 q 443 1278 468 1278 q 417 1265 428 1278 q 406 1231 406 1253 q 419 1202 406 1214 q 453 1190 433 1190 l 456 1190 m 329 1186 q 358 1199 347 1188 q 369 1229 369 1211 q 331 1268 367 1267 q 299 1255 313 1267 q 285 1226 286 1243 q 298 1198 285 1210 q 329 1186 311 1186 z "},"Ð":{"ha":921,"x_min":-28,"x_max":906,"o":"m 165 -118 q 325 -79 235 -118 q 582 97 468 -14 q 747 286 674 182 q 906 757 906 511 q 825 1003 906 893 q 722 1083 782 1057 q 592 1117 663 1110 q 451 1125 522 1125 q 289 1103 367 1125 q 57 968 149 1076 q 3 832 3 900 q 23 760 4 792 q 72 728 42 728 q 95 738 86 728 q 104 758 104 747 q 93 781 104 771 q 72 829 72 804 q 81 865 72 847 q 278 1021 144 989 l 283 1022 q 289 1017 289 1022 q 265 911 279 964 q 239 779 250 850 q 219 672 229 725 q 202 567 210 619 q 185 459 194 514 q 169 349 176 404 q 133 285 168 308 q 22 186 72 247 q -28 57 -28 125 q 18 -58 -28 -10 q 139 -117 64 -107 l 165 -118 m 164 -39 q 85 -13 119 -39 q 50 54 50 13 q 81 131 50 86 q 149 199 111 176 q 142 139 146 164 l 139 111 q 150 80 139 92 q 175 68 161 68 q 201 78 189 68 q 217 107 214 89 l 233 246 q 240 262 235 257 q 251 271 244 267 q 460 354 356 326 q 588 399 522 374 q 607 428 607 407 q 568 463 606 463 q 522 454 543 463 l 519 453 q 257 360 383 421 l 250 358 q 260 442 253 401 l 269 500 q 322 806 300 701 q 360 1029 344 911 q 362 1037 360 1035 q 369 1039 364 1039 q 468 1047 413 1047 q 662 1021 572 1047 q 799 900 751 994 q 829 757 829 831 q 770 479 829 611 q 613 238 711 347 q 193 -37 403 3 l 164 -39 m 442 510 q 482 547 478 510 q 468 578 482 569 q 426 588 454 586 l 88 588 q 58 580 71 588 q 43 556 44 572 q 94 517 43 522 q 160 515 126 517 q 238 514 194 514 q 295 513 281 514 q 325 513 310 513 q 442 510 363 510 z "},"Ñ":{"ha":1085,"x_min":0,"x_max":1232,"o":"m 217 -65 q 390 86 325 -65 q 468 365 435 189 l 511 599 q 558 826 526 683 l 578 935 q 581 931 579 933 q 586 904 583 929 q 644 618 621 722 q 715 318 667 514 q 847 56 775 56 q 876 64 865 56 q 894 121 894 78 q 928 332 894 132 q 1028 1028 993 697 q 1053 1118 1031 1078 q 1121 1158 1075 1158 q 1142 1151 1136 1158 q 1153 1133 1149 1144 l 1157 1124 q 1194 1097 1172 1097 q 1222 1110 1213 1100 q 1232 1142 1232 1119 q 1199 1210 1229 1182 q 1129 1239 1169 1239 q 1046 1215 1088 1239 q 942 944 958 1167 q 926 836 936 890 q 828 222 889 635 l 822 236 q 754 500 783 367 l 742 557 q 697 765 718 661 q 656 950 667 907 q 626 1090 636 1018 q 592 1129 621 1129 q 572 1124 583 1129 q 544 1119 561 1119 l 488 1117 q 288 1094 382 1117 q 140 983 194 1071 q 108 865 108 926 q 168 719 108 786 q 274 664 217 664 q 315 699 315 664 q 282 733 315 724 q 213 781 238 746 q 188 863 188 817 q 217 956 190 913 q 294 1013 244 999 q 507 1036 400 1035 q 518 1029 518 1036 l 518 1022 q 413 511 460 764 q 400 440 406 476 q 362 253 385 347 q 297 79 339 160 q 263 34 282 53 q 213 15 244 15 q 172 22 189 17 q 135 40 156 28 q 92 99 101 63 q 82 175 82 136 q 104 273 82 225 q 178 333 126 321 q 217 349 197 339 q 236 382 236 360 q 219 413 232 407 q 181 418 207 418 q 45 331 90 403 q 0 172 0 260 l 3 131 q 61 -6 8 51 q 134 -49 92 -33 q 217 -65 176 -65 m 847 1176 q 903 1206 879 1176 q 926 1258 926 1235 q 893 1297 926 1293 q 851 1253 863 1297 l 847 1242 q 841 1248 842 1246 q 840 1251 840 1250 q 771 1303 814 1303 q 715 1280 738 1303 q 688 1222 692 1257 q 697 1199 688 1208 q 718 1189 706 1189 q 738 1196 731 1189 q 755 1217 744 1203 q 769 1232 765 1232 q 775 1226 772 1232 q 793 1204 782 1214 l 797 1200 q 847 1176 822 1176 z "},"Ò":{"ha":793,"x_min":0,"x_max":864,"o":"m 319 46 q 504 110 422 46 q 643 273 586 174 q 726 481 700 372 q 743 563 739 531 q 749 643 747 594 l 747 678 q 760 695 747 690 q 790 704 772 700 q 850 728 822 710 q 864 761 864 743 q 852 788 864 776 q 825 799 840 799 q 781 785 804 799 q 742 772 758 772 q 724 790 726 772 q 646 909 703 861 q 514 957 589 957 q 410 928 458 957 q 346 818 346 881 q 393 719 346 764 q 581 668 458 668 q 656 672 613 668 q 667 660 667 672 q 667 636 667 647 q 626 426 667 526 q 510 224 586 314 q 318 126 433 135 q 181 181 233 126 q 106 315 129 236 q 82 468 82 394 q 122 723 83 618 q 225 915 160 828 q 342 1023 271 979 q 483 1067 413 1067 q 613 1025 550 1067 q 639 1015 626 1015 q 662 1026 651 1015 q 672 1051 672 1036 q 657 1082 672 1068 q 476 1144 578 1144 q 228 1036 342 1144 q 60 785 119 933 q 0 490 0 636 q 19 328 0 411 q 81 179 39 246 q 183 82 121 118 q 319 46 246 46 m 589 749 q 522 753 546 749 q 463 769 497 757 q 426 817 426 788 q 457 863 429 849 q 513 876 485 876 q 651 760 610 876 q 643 753 651 754 q 606 750 624 750 l 589 749 m 478 1175 q 513 1213 513 1175 q 428 1300 513 1233 q 406 1316 417 1308 q 385 1324 396 1324 q 362 1314 371 1324 q 353 1292 353 1304 q 433 1200 353 1265 q 453 1184 443 1193 q 478 1175 464 1175 z "},"Ó":{"ha":793,"x_min":0,"x_max":864,"o":"m 319 46 q 504 110 422 46 q 643 273 586 174 q 726 481 700 372 q 743 563 739 531 q 749 643 747 594 l 747 678 q 760 695 747 690 q 790 704 772 700 q 850 728 822 710 q 864 761 864 743 q 852 788 864 776 q 825 799 840 799 q 781 785 804 799 q 742 772 758 772 q 724 790 726 772 q 646 909 703 861 q 514 957 589 957 q 410 928 458 957 q 346 818 346 881 q 393 719 346 764 q 581 668 458 668 q 656 672 613 668 q 667 660 667 672 q 667 636 667 647 q 626 426 667 526 q 510 224 586 314 q 318 126 433 135 q 181 181 233 126 q 106 315 129 236 q 82 468 82 394 q 122 723 83 618 q 225 915 160 828 q 342 1023 271 979 q 483 1067 413 1067 q 613 1025 550 1067 q 639 1015 626 1015 q 662 1026 651 1015 q 672 1051 672 1036 q 657 1082 672 1068 q 476 1144 578 1144 q 228 1036 342 1144 q 60 785 119 933 q 0 490 0 636 q 19 328 0 411 q 81 179 39 246 q 183 82 121 118 q 319 46 246 46 m 589 749 q 522 753 546 749 q 463 769 497 757 q 426 817 426 788 q 457 863 429 849 q 513 876 485 876 q 651 760 610 876 q 643 753 651 754 q 606 750 624 750 l 589 749 m 428 1171 q 455 1185 442 1171 q 480 1215 468 1199 q 506 1247 492 1231 q 531 1281 519 1263 q 543 1315 543 1299 q 503 1350 543 1349 q 482 1338 490 1350 q 396 1201 396 1221 q 406 1179 396 1188 q 428 1171 415 1171 z "},"Ô":{"ha":793,"x_min":0,"x_max":864,"o":"m 319 46 q 504 110 422 46 q 643 273 586 174 q 726 481 700 372 q 743 563 739 531 q 749 643 747 594 l 747 678 q 760 695 747 690 q 790 704 772 700 q 850 728 822 710 q 864 761 864 743 q 852 788 864 776 q 825 799 840 799 q 781 785 804 799 q 742 772 758 772 q 724 790 726 772 q 646 909 703 861 q 514 957 589 957 q 410 928 458 957 q 346 818 346 881 q 393 719 346 764 q 581 668 458 668 q 656 672 613 668 q 667 660 667 672 q 667 636 667 647 q 626 426 667 526 q 510 224 586 314 q 318 126 433 135 q 181 181 233 126 q 106 315 129 236 q 82 468 82 394 q 122 723 83 618 q 225 915 160 828 q 342 1023 271 979 q 483 1067 413 1067 q 613 1025 550 1067 q 639 1015 626 1015 q 662 1026 651 1015 q 672 1051 672 1036 q 657 1082 672 1068 q 476 1144 578 1144 q 228 1036 342 1144 q 60 785 119 933 q 0 490 0 636 q 19 328 0 411 q 81 179 39 246 q 183 82 121 118 q 319 46 246 46 m 589 749 q 522 753 546 749 q 463 769 497 757 q 426 817 426 788 q 457 863 429 849 q 513 876 485 876 q 651 760 610 876 q 643 753 651 754 q 606 750 624 750 l 589 749 m 578 1164 q 606 1207 606 1174 q 592 1254 606 1217 q 559 1326 579 1292 q 511 1360 539 1360 q 456 1328 483 1360 q 403 1261 429 1297 q 386 1238 394 1249 q 378 1217 378 1228 q 388 1192 381 1200 q 413 1182 394 1185 q 439 1196 429 1182 l 451 1211 q 492 1258 472 1233 q 503 1267 499 1267 q 509 1257 507 1267 q 514 1240 511 1247 q 533 1188 521 1213 q 569 1164 544 1164 l 578 1164 z "},"Õ":{"ha":793,"x_min":0,"x_max":864,"o":"m 319 46 q 504 110 422 46 q 643 273 586 174 q 726 481 700 372 q 743 563 739 531 q 749 643 747 594 l 747 678 q 760 695 747 690 q 790 704 772 700 q 850 728 822 710 q 864 761 864 743 q 852 788 864 776 q 825 799 840 799 q 781 785 804 799 q 742 772 758 772 q 724 790 726 772 q 646 909 703 861 q 514 957 589 957 q 410 928 458 957 q 346 818 346 881 q 393 719 346 764 q 581 668 458 668 q 656 672 613 668 q 667 660 667 672 q 667 636 667 647 q 626 426 667 526 q 510 224 586 314 q 318 126 433 135 q 181 181 233 126 q 106 315 129 236 q 82 468 82 394 q 122 723 83 618 q 225 915 160 828 q 342 1023 271 979 q 483 1067 413 1067 q 613 1025 550 1067 q 639 1015 626 1015 q 662 1026 651 1015 q 672 1051 672 1036 q 657 1082 672 1068 q 476 1144 578 1144 q 228 1036 342 1144 q 60 785 119 933 q 0 490 0 636 q 19 328 0 411 q 81 179 39 246 q 183 82 121 118 q 319 46 246 46 m 589 749 q 522 753 546 749 q 463 769 497 757 q 426 817 426 788 q 457 863 429 849 q 513 876 485 876 q 651 760 610 876 q 643 753 651 754 q 606 750 624 750 l 589 749 m 500 1174 q 556 1203 532 1174 q 579 1256 579 1232 q 546 1294 579 1290 q 504 1250 515 1294 l 500 1239 q 494 1245 494 1243 q 493 1249 493 1247 q 424 1300 467 1300 q 367 1277 390 1300 q 340 1219 344 1254 q 349 1196 340 1206 q 371 1186 358 1186 q 390 1193 383 1186 q 408 1215 397 1200 q 422 1229 418 1229 q 428 1224 425 1229 q 446 1201 435 1211 l 450 1197 q 500 1174 475 1174 z "},"Ö":{"ha":793,"x_min":0,"x_max":864,"o":"m 319 46 q 504 110 422 46 q 643 273 586 174 q 726 481 700 372 q 743 563 739 531 q 749 643 747 594 l 747 678 q 760 695 747 690 q 790 704 772 700 q 850 728 822 710 q 864 761 864 743 q 852 788 864 776 q 825 799 840 799 q 781 785 804 799 q 742 772 758 772 q 724 790 726 772 q 646 909 703 861 q 514 957 589 957 q 410 928 458 957 q 346 818 346 881 q 393 719 346 764 q 581 668 458 668 q 656 672 613 668 q 667 660 667 672 q 667 636 667 647 q 626 426 667 526 q 510 224 586 314 q 318 126 433 135 q 181 181 233 126 q 106 315 129 236 q 82 468 82 394 q 122 723 83 618 q 225 915 160 828 q 342 1023 271 979 q 483 1067 413 1067 q 613 1025 550 1067 q 639 1015 626 1015 q 662 1026 651 1015 q 672 1051 672 1036 q 657 1082 672 1068 q 476 1144 578 1144 q 228 1036 342 1144 q 60 785 119 933 q 0 490 0 636 q 19 328 0 411 q 81 179 39 246 q 183 82 121 118 q 319 46 246 46 m 589 749 q 522 753 546 749 q 463 769 497 757 q 426 817 426 788 q 457 863 429 849 q 513 876 485 876 q 651 760 610 876 q 643 753 651 754 q 606 750 624 750 l 589 749 m 531 1181 q 571 1231 568 1181 q 557 1260 571 1251 q 518 1268 543 1268 q 492 1256 503 1268 q 481 1221 481 1243 q 494 1192 481 1204 q 528 1181 508 1181 l 531 1181 m 404 1176 q 433 1190 422 1178 q 444 1219 444 1201 q 406 1258 442 1257 q 374 1245 388 1257 q 360 1217 361 1233 q 373 1188 360 1200 q 404 1176 386 1176 z "},"×":{"ha":482,"x_min":28,"x_max":421,"o":"m 68 210 q 118 247 92 214 q 159 293 126 260 q 225 364 192 326 q 236 372 232 372 q 247 363 240 372 q 349 246 297 303 q 376 232 360 232 q 415 268 415 236 q 400 303 415 285 q 368 340 385 321 q 296 424 333 382 q 292 432 292 428 q 296 442 292 436 q 371 526 336 483 q 386 542 378 535 q 410 569 399 556 q 421 600 421 583 q 412 620 421 611 q 392 629 403 629 q 350 606 372 629 l 263 514 q 239 494 247 494 q 218 513 231 494 l 215 517 l 131 617 q 101 633 118 633 q 60 597 60 633 q 66 574 61 582 q 81 556 71 567 l 168 456 q 182 435 182 440 q 175 424 182 429 l 156 403 q 78 319 115 363 l 61 301 q 40 276 49 289 q 28 244 31 264 q 38 219 28 229 q 64 210 49 210 l 68 210 z "},"Ø":{"ha":793,"x_min":0,"x_max":864,"o":"m 319 46 q 504 110 422 46 q 643 273 586 174 q 726 481 700 372 q 743 563 739 531 q 749 643 747 594 l 747 678 q 760 695 747 690 q 790 704 772 700 q 850 728 822 710 q 864 761 864 743 q 852 788 864 776 q 825 799 840 799 q 781 785 804 799 q 742 772 758 772 q 724 790 726 772 q 646 909 703 861 q 514 957 589 957 q 410 928 458 957 q 346 818 346 881 q 393 719 346 764 q 581 668 458 668 q 656 672 613 668 q 667 660 667 672 q 667 636 667 647 q 626 426 667 526 q 510 224 586 314 q 318 126 433 135 q 181 181 233 126 q 106 315 129 236 q 82 468 82 394 q 122 723 83 618 q 225 915 160 828 q 342 1023 271 979 q 483 1067 413 1067 q 613 1025 550 1067 q 639 1015 626 1015 q 662 1026 651 1015 q 672 1051 672 1036 q 657 1082 672 1068 q 476 1144 578 1144 q 228 1036 342 1144 q 60 785 119 933 q 0 490 0 636 q 19 328 0 411 q 81 179 39 246 q 183 82 121 118 q 319 46 246 46 m 589 749 q 522 753 546 749 q 463 769 497 757 q 426 817 426 788 q 457 863 429 849 q 513 876 485 876 q 651 760 610 876 q 643 753 651 754 q 606 750 624 750 l 589 749 m 92 68 q 126 92 113 68 l 194 225 l 385 606 l 544 918 q 643 1110 601 1038 q 657 1144 653 1125 q 647 1169 656 1161 q 621 1179 639 1176 q 594 1161 604 1179 q 415 835 497 1000 l 103 215 q 54 104 54 126 q 66 78 54 88 q 92 68 78 68 z "},"Ù":{"ha":803,"x_min":0,"x_max":789,"o":"m 282 -37 q 451 33 376 -37 q 567 203 525 104 l 600 285 l 599 207 l 601 147 q 637 43 607 88 q 718 -1 667 -1 q 767 15 746 -1 q 789 54 789 31 q 778 80 789 69 q 754 90 767 90 q 733 84 744 90 q 714 78 721 78 q 688 111 697 78 q 678 179 678 144 l 678 217 q 681 324 678 269 l 683 379 l 693 493 l 707 622 q 719 717 713 678 q 731 793 726 756 q 754 942 739 868 l 772 1031 q 779 1076 779 1053 q 740 1121 778 1119 q 714 1108 726 1121 q 701 1079 701 1096 q 663 885 679 986 q 579 503 629 686 l 564 446 q 503 251 539 346 q 410 103 468 165 q 269 42 351 42 q 144 86 203 42 q 91 164 104 119 q 78 257 78 208 q 94 474 81 369 l 100 518 q 132 721 118 638 q 175 1022 160 882 q 177 1043 175 1032 q 179 1067 179 1054 q 153 1111 179 1107 q 128 1090 129 1111 l 115 1042 q 76 857 96 974 l 68 807 q 29 578 39 640 q 6 363 18 497 q 0 271 0 317 q 33 104 0 167 q 276 -37 114 -37 l 282 -37 m 456 1110 q 490 1147 490 1110 q 406 1235 490 1168 q 384 1251 394 1243 q 363 1258 374 1258 q 340 1249 349 1258 q 331 1226 331 1239 q 411 1135 331 1200 q 431 1119 421 1128 q 456 1110 442 1110 z "},"Ú":{"ha":803,"x_min":0,"x_max":789,"o":"m 282 -37 q 451 33 376 -37 q 567 203 525 104 l 600 285 l 599 207 l 601 147 q 637 43 607 88 q 718 -1 667 -1 q 767 15 746 -1 q 789 54 789 31 q 778 80 789 69 q 754 90 767 90 q 733 84 744 90 q 714 78 721 78 q 688 111 697 78 q 678 179 678 144 l 678 217 q 681 324 678 269 l 683 379 l 693 493 l 707 622 q 719 717 713 678 q 731 793 726 756 q 754 942 739 868 l 772 1031 q 779 1076 779 1053 q 740 1121 778 1119 q 714 1108 726 1121 q 701 1079 701 1096 q 663 885 679 986 q 579 503 629 686 l 564 446 q 503 251 539 346 q 410 103 468 165 q 269 42 351 42 q 144 86 203 42 q 91 164 104 119 q 78 257 78 208 q 94 474 81 369 l 100 518 q 132 721 118 638 q 175 1022 160 882 q 177 1043 175 1032 q 179 1067 179 1054 q 153 1111 179 1107 q 128 1090 129 1111 l 115 1042 q 76 857 96 974 l 68 807 q 29 578 39 640 q 6 363 18 497 q 0 271 0 317 q 33 104 0 167 q 276 -37 114 -37 l 282 -37 m 411 1117 q 438 1131 425 1117 q 463 1160 451 1144 q 489 1192 475 1176 q 515 1226 503 1208 q 526 1261 526 1244 q 486 1296 526 1294 q 465 1283 474 1296 q 379 1147 379 1167 q 389 1125 379 1133 q 411 1117 399 1117 z "},"Û":{"ha":803,"x_min":0,"x_max":789,"o":"m 282 -37 q 451 33 376 -37 q 567 203 525 104 l 600 285 l 599 207 l 601 147 q 637 43 607 88 q 718 -1 667 -1 q 767 15 746 -1 q 789 54 789 31 q 778 80 789 69 q 754 90 767 90 q 733 84 744 90 q 714 78 721 78 q 688 111 697 78 q 678 179 678 144 l 678 217 q 681 324 678 269 l 683 379 l 693 493 l 707 622 q 719 717 713 678 q 731 793 726 756 q 754 942 739 868 l 772 1031 q 779 1076 779 1053 q 740 1121 778 1119 q 714 1108 726 1121 q 701 1079 701 1096 q 663 885 679 986 q 579 503 629 686 l 564 446 q 503 251 539 346 q 410 103 468 165 q 269 42 351 42 q 144 86 203 42 q 91 164 104 119 q 78 257 78 208 q 94 474 81 369 l 100 518 q 132 721 118 638 q 175 1022 160 882 q 177 1043 175 1032 q 179 1067 179 1054 q 153 1111 179 1107 q 128 1090 129 1111 l 115 1042 q 76 857 96 974 l 68 807 q 29 578 39 640 q 6 363 18 497 q 0 271 0 317 q 33 104 0 167 q 276 -37 114 -37 l 282 -37 m 513 1104 q 540 1147 540 1114 q 527 1194 540 1157 q 494 1266 514 1232 q 446 1300 474 1300 q 391 1269 418 1300 q 338 1201 364 1238 q 321 1178 329 1189 q 313 1157 313 1168 q 322 1133 315 1140 q 347 1122 329 1125 q 374 1136 364 1122 l 386 1151 q 426 1199 407 1174 q 438 1207 433 1207 q 444 1197 442 1207 q 449 1181 446 1188 q 467 1128 456 1153 q 504 1104 479 1104 l 513 1104 z "},"Ü":{"ha":803,"x_min":0,"x_max":789,"o":"m 282 -37 q 451 33 376 -37 q 567 203 525 104 l 600 285 l 599 207 l 601 147 q 637 43 607 88 q 718 -1 667 -1 q 767 15 746 -1 q 789 54 789 31 q 778 80 789 69 q 754 90 767 90 q 733 84 744 90 q 714 78 721 78 q 688 111 697 78 q 678 179 678 144 l 678 217 q 681 324 678 269 l 683 379 l 693 493 l 707 622 q 719 717 713 678 q 731 793 726 756 q 754 942 739 868 l 772 1031 q 779 1076 779 1053 q 740 1121 778 1119 q 714 1108 726 1121 q 701 1079 701 1096 q 663 885 679 986 q 579 503 629 686 l 564 446 q 503 251 539 346 q 410 103 468 165 q 269 42 351 42 q 144 86 203 42 q 91 164 104 119 q 78 257 78 208 q 94 474 81 369 l 100 518 q 132 721 118 638 q 175 1022 160 882 q 177 1043 175 1032 q 179 1067 179 1054 q 153 1111 179 1107 q 128 1090 129 1111 l 115 1042 q 76 857 96 974 l 68 807 q 29 578 39 640 q 6 363 18 497 q 0 271 0 317 q 33 104 0 167 q 276 -37 114 -37 l 282 -37 m 488 1119 q 528 1169 525 1119 q 514 1199 528 1190 q 475 1207 500 1207 q 449 1194 460 1207 q 438 1160 438 1182 q 451 1131 438 1143 q 485 1119 465 1119 l 488 1119 m 361 1115 q 390 1128 379 1117 q 401 1158 401 1140 q 363 1197 399 1196 q 331 1184 344 1196 q 317 1156 318 1172 q 330 1127 317 1139 q 361 1115 343 1115 z "},"Ÿ":{"ha":876,"x_min":0,"x_max":897,"o":"m 363 -56 q 726 244 661 -56 q 843 774 792 506 l 863 872 q 889 1028 879 949 q 897 1107 897 1065 q 867 1144 896 1144 q 838 1133 851 1144 q 821 1106 824 1122 q 814 1075 818 1090 l 808 1056 q 604 540 736 740 q 464 450 549 456 q 421 470 435 450 q 407 517 407 490 q 457 904 421 724 l 465 954 q 492 1089 476 1022 l 493 1100 q 461 1139 489 1139 q 447 1133 454 1139 q 429 1128 440 1128 q 373 1133 393 1132 q 329 1135 353 1135 l 296 1135 q 82 1075 163 1135 q 0 919 0 1008 q 38 804 0 861 q 100 767 64 767 q 134 778 122 771 q 146 803 146 785 q 115 835 146 828 q 93 846 100 838 q 74 915 74 881 q 186 1042 74 1004 q 306 1057 246 1057 q 400 1053 353 1057 q 410 1047 410 1051 q 390 951 401 997 q 342 667 360 818 q 331 528 331 597 l 332 486 q 407 385 342 414 q 468 374 439 374 q 586 413 531 374 q 679 514 642 453 q 724 585 699 549 q 668 326 724 569 q 617 166 651 244 q 508 51 583 88 q 368 24 440 24 q 258 44 304 24 q 183 118 213 64 q 157 199 157 165 q 167 235 157 218 q 178 271 178 253 q 166 298 178 288 q 140 308 154 308 q 95 272 110 308 q 81 206 81 236 q 125 65 81 132 q 363 -56 207 -56 m 722 1161 q 763 1211 760 1161 q 749 1240 763 1232 q 710 1249 735 1249 q 683 1236 694 1249 q 672 1201 672 1224 q 686 1173 672 1185 q 719 1161 700 1161 l 722 1161 m 596 1157 q 625 1170 614 1158 q 636 1200 636 1182 q 597 1239 633 1238 q 566 1226 579 1238 q 551 1197 553 1214 q 565 1169 551 1181 q 596 1157 578 1157 z "},"Ý":{"ha":876,"x_min":0,"x_max":897,"o":"m 363 -56 q 726 244 661 -56 q 843 774 792 506 l 863 872 q 889 1028 879 949 q 897 1107 897 1065 q 867 1144 896 1144 q 838 1133 851 1144 q 821 1106 824 1122 q 814 1075 818 1090 l 808 1056 q 604 540 736 740 q 464 450 549 456 q 421 470 435 450 q 407 517 407 490 q 457 904 421 724 l 465 954 q 492 1089 476 1022 l 493 1100 q 461 1139 489 1139 q 447 1133 454 1139 q 429 1128 440 1128 q 373 1133 393 1132 q 329 1135 353 1135 l 296 1135 q 82 1075 163 1135 q 0 919 0 1008 q 38 804 0 861 q 100 767 64 767 q 134 778 122 771 q 146 803 146 785 q 115 835 146 828 q 93 846 100 838 q 74 915 74 881 q 186 1042 74 1004 q 306 1057 246 1057 q 400 1053 353 1057 q 410 1047 410 1051 q 390 951 401 997 q 342 667 360 818 q 331 528 331 597 l 332 486 q 407 385 342 414 q 468 374 439 374 q 586 413 531 374 q 679 514 642 453 q 724 585 699 549 q 668 326 724 569 q 617 166 651 244 q 508 51 583 88 q 368 24 440 24 q 258 44 304 24 q 183 118 213 64 q 157 199 157 165 q 167 235 157 218 q 178 271 178 253 q 166 298 178 288 q 140 308 154 308 q 95 272 110 308 q 81 206 81 236 q 125 65 81 132 q 363 -56 207 -56 m 642 1146 q 669 1160 656 1146 q 694 1190 682 1174 q 719 1222 706 1206 q 745 1256 733 1238 q 757 1290 757 1274 q 717 1325 757 1324 q 696 1313 704 1325 q 610 1176 610 1196 q 619 1154 610 1163 q 642 1146 629 1146 z "},"ß":{"ha":708,"x_min":42,"x_max":694,"o":"m 358 4 q 482 47 424 4 q 576 156 540 90 q 613 290 613 222 q 589 410 613 349 q 553 476 574 446 q 537 499 544 488 q 529 519 529 510 q 538 545 529 532 q 558 572 547 558 q 650 719 610 643 q 694 881 690 794 q 646 1042 694 988 q 493 1111 581 1111 q 323 1051 401 1111 q 201 901 244 992 q 150 734 165 822 q 125 560 135 646 q 100 383 115 467 l 85 289 q 43 58 71 172 l 42 44 q 50 20 42 26 q 74 11 58 14 q 109 44 97 11 q 128 108 121 76 q 206 575 179 346 q 228 728 214 651 q 310 933 249 843 q 494 1033 372 1024 q 553 1018 524 1033 q 618 886 618 985 q 599 792 614 829 q 553 707 585 756 q 492 611 522 658 q 465 572 479 593 q 450 524 450 551 q 463 474 454 493 q 490 429 471 456 q 536 296 536 364 q 497 175 536 238 q 389 88 458 113 q 357 82 372 82 q 324 88 339 82 q 307 117 308 94 q 271 153 301 150 q 231 106 232 153 q 274 30 231 56 q 358 4 318 4 z "},"à":{"ha":556,"x_min":-56,"x_max":618,"o":"m 343 86 q 415 111 383 86 q 547 283 468 151 q 618 419 618 401 q 610 439 618 431 q 590 447 601 447 q 540 408 567 447 l 424 236 q 371 176 403 201 l 365 174 q 342 163 351 163 q 310 183 318 163 q 303 235 303 203 q 314 366 303 303 q 340 490 325 429 q 347 525 344 507 q 338 551 347 540 q 314 561 328 561 q 291 551 299 560 q 278 527 283 543 q 268 492 274 511 q 161 539 214 539 q 10 447 76 539 q -56 254 -56 356 q -51 195 -56 221 q -29 143 -46 169 q 49 100 3 100 q 110 122 82 100 q 224 260 179 179 l 225 238 q 228 189 225 213 q 269 115 235 144 q 343 86 303 86 m 47 178 q 19 251 22 178 q 92 425 25 347 q 164 465 131 465 q 203 453 185 465 q 222 428 222 442 q 214 406 222 419 l 188 357 q 115 236 157 294 q 47 178 74 178 m 199 565 q 233 603 233 565 q 149 690 233 624 q 127 706 138 699 q 106 714 117 714 q 83 704 92 714 q 74 682 74 694 q 154 590 74 656 q 174 574 164 583 q 199 565 185 565 z "},"á":{"ha":556,"x_min":-56,"x_max":618,"o":"m 343 86 q 415 111 383 86 q 547 283 468 151 q 618 419 618 401 q 610 439 618 431 q 590 447 601 447 q 540 408 567 447 l 424 236 q 371 176 403 201 l 365 174 q 342 163 351 163 q 310 183 318 163 q 303 235 303 203 q 314 366 303 303 q 340 490 325 429 q 347 525 344 507 q 338 551 347 540 q 314 561 328 561 q 291 551 299 560 q 278 527 283 543 q 268 492 274 511 q 161 539 214 539 q 10 447 76 539 q -56 254 -56 356 q -51 195 -56 221 q -29 143 -46 169 q 49 100 3 100 q 110 122 82 100 q 224 260 179 179 l 225 238 q 228 189 225 213 q 269 115 235 144 q 343 86 303 86 m 47 178 q 19 251 22 178 q 92 425 25 347 q 164 465 131 465 q 203 453 185 465 q 222 428 222 442 q 214 406 222 419 l 188 357 q 115 236 157 294 q 47 178 74 178 m 179 558 q 206 572 193 558 q 231 602 219 586 q 257 634 243 618 q 283 668 271 650 q 294 703 294 686 q 254 738 294 736 q 233 725 242 738 q 147 589 147 608 q 157 567 147 575 q 179 558 167 558 z "},"â":{"ha":556,"x_min":-56,"x_max":618,"o":"m 343 86 q 415 111 383 86 q 547 283 468 151 q 618 419 618 401 q 610 439 618 431 q 590 447 601 447 q 540 408 567 447 l 424 236 q 371 176 403 201 l 365 174 q 342 163 351 163 q 310 183 318 163 q 303 235 303 203 q 314 366 303 303 q 340 490 325 429 q 347 525 344 507 q 338 551 347 540 q 314 561 328 561 q 291 551 299 560 q 278 527 283 543 q 268 492 274 511 q 161 539 214 539 q 10 447 76 539 q -56 254 -56 356 q -51 195 -56 221 q -29 143 -46 169 q 49 100 3 100 q 110 122 82 100 q 224 260 179 179 l 225 238 q 228 189 225 213 q 269 115 235 144 q 343 86 303 86 m 47 178 q 19 251 22 178 q 92 425 25 347 q 164 465 131 465 q 203 453 185 465 q 222 428 222 442 q 214 406 222 419 l 188 357 q 115 236 157 294 q 47 178 74 178 m 253 557 q 281 600 281 567 q 267 647 281 610 q 234 719 254 685 q 186 753 214 753 q 131 722 158 753 q 78 654 104 690 q 61 631 69 642 q 53 610 53 621 q 63 585 56 593 q 88 575 69 578 q 114 589 104 575 l 126 604 q 167 651 147 626 q 178 660 174 660 q 184 650 182 660 q 189 633 186 640 q 208 581 196 606 q 244 557 219 557 l 253 557 z "},"ã":{"ha":556,"x_min":-56,"x_max":618,"o":"m 343 86 q 415 111 383 86 q 547 283 468 151 q 618 419 618 401 q 610 439 618 431 q 590 447 601 447 q 540 408 567 447 l 424 236 q 371 176 403 201 l 365 174 q 342 163 351 163 q 310 183 318 163 q 303 235 303 203 q 314 366 303 303 q 340 490 325 429 q 347 525 344 507 q 338 551 347 540 q 314 561 328 561 q 291 551 299 560 q 278 527 283 543 q 268 492 274 511 q 161 539 214 539 q 10 447 76 539 q -56 254 -56 356 q -51 195 -56 221 q -29 143 -46 169 q 49 100 3 100 q 110 122 82 100 q 224 260 179 179 l 225 238 q 228 189 225 213 q 269 115 235 144 q 343 86 303 86 m 47 178 q 19 251 22 178 q 92 425 25 347 q 164 465 131 465 q 203 453 185 465 q 222 428 222 442 q 214 406 222 419 l 188 357 q 115 236 157 294 q 47 178 74 178 m 222 561 q 278 590 254 561 q 301 643 301 619 q 268 682 301 678 q 226 638 238 682 l 222 626 q 216 633 217 631 q 215 636 215 635 q 146 688 189 688 q 90 665 113 688 q 63 607 67 642 q 72 583 63 593 q 93 574 81 574 q 113 581 106 574 q 130 602 119 588 q 144 617 140 617 q 150 611 147 617 q 168 589 157 599 l 172 585 q 222 561 197 561 z "},"ä":{"ha":556,"x_min":-56,"x_max":618,"o":"m 343 86 q 415 111 383 86 q 547 283 468 151 q 618 419 618 401 q 610 439 618 431 q 590 447 601 447 q 540 408 567 447 l 424 236 q 371 176 403 201 l 365 174 q 342 163 351 163 q 310 183 318 163 q 303 235 303 203 q 314 366 303 303 q 340 490 325 429 q 347 525 344 507 q 338 551 347 540 q 314 561 328 561 q 291 551 299 560 q 278 527 283 543 q 268 492 274 511 q 161 539 214 539 q 10 447 76 539 q -56 254 -56 356 q -51 195 -56 221 q -29 143 -46 169 q 49 100 3 100 q 110 122 82 100 q 224 260 179 179 l 225 238 q 228 189 225 213 q 269 115 235 144 q 343 86 303 86 m 47 178 q 19 251 22 178 q 92 425 25 347 q 164 465 131 465 q 203 453 185 465 q 222 428 222 442 q 214 406 222 419 l 188 357 q 115 236 157 294 q 47 178 74 178 m 235 574 q 275 624 272 574 q 261 653 275 644 q 222 661 247 661 q 196 649 207 661 q 185 614 185 636 q 199 585 185 597 q 232 574 213 574 l 235 574 m 108 569 q 138 583 126 571 q 149 613 149 594 q 110 651 146 650 q 78 638 92 650 q 64 610 65 626 q 77 581 64 593 q 108 569 90 569 z "},"å":{"ha":556,"x_min":-56,"x_max":618,"o":"m 343 86 q 415 111 383 86 q 547 283 468 151 q 618 419 618 401 q 610 439 618 431 q 590 447 601 447 q 540 408 567 447 l 424 236 q 371 176 403 201 l 365 174 q 342 163 351 163 q 310 183 318 163 q 303 235 303 203 q 314 366 303 303 q 340 490 325 429 q 347 525 344 507 q 338 551 347 540 q 314 561 328 561 q 291 551 299 560 q 278 527 283 543 q 268 492 274 511 q 161 539 214 539 q 10 447 76 539 q -56 254 -56 356 q -51 195 -56 221 q -29 143 -46 169 q 49 100 3 100 q 110 122 82 100 q 224 260 179 179 l 225 238 q 228 189 225 213 q 269 115 235 144 q 343 86 303 86 m 47 178 q 19 251 22 178 q 92 425 25 347 q 164 465 131 465 q 203 453 185 465 q 222 428 222 442 q 214 406 222 419 l 188 357 q 115 236 157 294 q 47 178 74 178 m 196 564 q 264 594 238 564 q 292 664 290 624 q 260 726 292 696 q 176 754 235 753 q 121 722 147 754 q 94 656 94 690 q 189 564 100 564 l 196 564 m 192 628 l 189 628 q 167 649 169 628 q 172 672 167 658 q 186 686 178 685 q 197 681 190 686 q 209 669 204 676 q 214 658 214 663 q 210 647 214 654 q 201 633 206 639 q 192 628 196 628 z "},"æ":{"ha":707,"x_min":-56,"x_max":764,"o":"m 47 178 q 19 251 24 178 q 92 425 25 347 q 164 465 132 465 q 203 453 185 465 q 222 428 222 442 q 214 406 222 419 q 188 357 200 382 q 114 236 157 294 q 47 178 71 178 m 371 442 q 344 449 344 442 q 358 481 344 457 q 435 542 393 542 q 460 532 447 542 q 474 508 474 522 q 441 462 474 482 q 371 442 408 442 m 49 100 q 109 122 82 100 q 164 174 136 144 q 224 260 192 203 q 228 189 224 224 q 244 163 231 172 q 288 154 257 154 l 303 154 q 400 122 351 122 q 489 144 444 122 q 617 231 561 178 q 719 344 672 283 l 726 353 q 752 388 740 369 q 764 424 764 406 q 756 440 764 433 q 740 447 749 447 q 715 433 726 447 q 693 404 703 419 q 683 392 689 400 q 563 254 626 313 q 406 183 500 196 q 339 213 369 183 q 318 254 322 232 q 313 310 314 276 q 318 353 313 331 q 321 367 319 358 q 324 381 322 376 q 333 385 326 385 l 372 382 q 526 450 463 382 q 551 510 551 475 q 514 590 547 560 q 431 619 481 619 q 346 586 383 619 q 322 560 333 574 l 314 561 q 291 551 299 560 q 278 527 283 543 q 268 492 274 511 q 161 539 214 539 q 10 447 76 539 q -56 254 -56 356 q -51 195 -56 221 q -29 143 -46 169 q 49 100 3 100 z "},"ç":{"ha":407,"x_min":-28,"x_max":465,"o":"m 131 121 q 257 164 194 121 q 460 415 403 267 l 461 419 q 465 435 465 426 q 435 463 463 461 q 407 449 419 463 q 385 418 394 435 q 251 257 325 324 q 194 218 219 232 q 132 200 169 204 q 82 215 106 200 q 47 296 47 240 l 50 321 q 103 515 54 425 q 185 582 126 569 q 210 532 210 582 q 201 486 210 504 q 192 456 196 474 q 199 439 192 446 q 217 432 207 432 q 264 474 246 432 q 282 550 282 517 q 253 627 282 596 q 183 658 225 658 q 65 600 111 658 q -5 455 18 542 q -28 282 -28 368 q 22 166 -25 211 q 131 121 69 121 m 108 -101 q 176 -59 147 -94 q 206 15 206 -24 q 193 58 204 43 q 154 75 182 72 q 145 78 146 75 q 144 86 144 81 l 151 129 q 118 163 151 163 q 79 125 88 163 q 71 50 71 88 q 78 24 71 38 q 97 6 85 11 q 124 0 110 1 q 103 -22 119 -12 l 97 -26 q 67 -67 67 -43 q 77 -91 67 -81 q 103 -101 88 -101 l 108 -101 z "},"è":{"ha":444,"x_min":-28,"x_max":499,"o":"m 135 122 q 225 144 179 122 q 351 231 296 178 q 454 344 407 283 l 461 353 q 499 424 499 399 q 492 440 499 433 q 475 447 485 447 q 449 433 461 447 q 428 404 438 419 l 418 392 q 298 254 361 313 q 142 183 235 196 q 74 213 104 183 q 53 254 58 232 q 49 304 49 276 l 47 315 q 54 353 47 331 q 56 367 56 358 q 59 381 57 376 q 68 385 61 385 l 107 382 q 261 450 199 382 q 286 510 286 475 q 249 590 282 560 q 167 619 215 619 q 81 585 118 619 q 22 504 44 551 q -15 408 -1 457 q -28 308 -28 360 q -12 216 -26 253 q 46 151 1 179 q 135 122 90 122 m 107 442 q 81 449 81 442 q 93 480 81 457 q 126 522 106 503 q 169 542 147 542 q 197 532 183 542 q 210 508 210 522 q 177 462 210 482 q 107 442 144 442 m 207 650 q 242 688 242 650 q 157 775 242 708 q 135 791 146 783 q 114 799 125 799 q 91 789 100 799 q 82 767 82 779 q 163 675 82 740 q 183 659 172 668 q 207 650 193 650 z "},"é":{"ha":444,"x_min":-28,"x_max":499,"o":"m 135 122 q 225 144 179 122 q 351 231 296 178 q 454 344 407 283 l 461 353 q 499 424 499 399 q 492 440 499 433 q 475 447 485 447 q 449 433 461 447 q 428 404 438 419 l 418 392 q 298 254 361 313 q 142 183 235 196 q 74 213 104 183 q 53 254 58 232 q 49 304 49 276 l 47 315 q 54 353 47 331 q 56 367 56 358 q 59 381 57 376 q 68 385 61 385 l 107 382 q 261 450 199 382 q 286 510 286 475 q 249 590 282 560 q 167 619 215 619 q 81 585 118 619 q 22 504 44 551 q -15 408 -1 457 q -28 308 -28 360 q -12 216 -26 253 q 46 151 1 179 q 135 122 90 122 m 107 442 q 81 449 81 442 q 93 480 81 457 q 126 522 106 503 q 169 542 147 542 q 197 532 183 542 q 210 508 210 522 q 177 462 210 482 q 107 442 144 442 m 172 646 q 199 660 186 646 q 224 690 213 674 q 250 722 236 706 q 276 756 264 738 q 288 790 288 774 q 247 825 288 824 q 226 813 235 825 q 140 676 140 696 q 150 654 140 663 q 172 646 160 646 z "},"ê":{"ha":444,"x_min":-28,"x_max":499,"o":"m 135 122 q 225 144 179 122 q 351 231 296 178 q 454 344 407 283 l 461 353 q 499 424 499 399 q 492 440 499 433 q 475 447 485 447 q 449 433 461 447 q 428 404 438 419 l 418 392 q 298 254 361 313 q 142 183 235 196 q 74 213 104 183 q 53 254 58 232 q 49 304 49 276 l 47 315 q 54 353 47 331 q 56 367 56 358 q 59 381 57 376 q 68 385 61 385 l 107 382 q 261 450 199 382 q 286 510 286 475 q 249 590 282 560 q 167 619 215 619 q 81 585 118 619 q 22 504 44 551 q -15 408 -1 457 q -28 308 -28 360 q -12 216 -26 253 q 46 151 1 179 q 135 122 90 122 m 107 442 q 81 449 81 442 q 93 480 81 457 q 126 522 106 503 q 169 542 147 542 q 197 532 183 542 q 210 508 210 522 q 177 462 210 482 q 107 442 144 442 m 271 622 q 299 665 299 632 q 285 713 299 675 q 252 784 272 750 q 204 818 232 818 q 149 787 176 818 q 96 719 122 756 q 79 697 88 707 q 71 675 71 686 q 81 651 74 658 q 106 640 88 643 q 132 654 122 640 l 144 669 q 185 717 165 692 q 196 725 192 725 q 202 715 200 725 q 207 699 204 706 q 226 647 214 671 q 263 622 238 622 l 271 622 z "},"ë":{"ha":444,"x_min":-28,"x_max":499,"o":"m 135 122 q 225 144 179 122 q 351 231 296 178 q 454 344 407 283 l 461 353 q 499 424 499 399 q 492 440 499 433 q 475 447 485 447 q 449 433 461 447 q 428 404 438 419 l 418 392 q 298 254 361 313 q 142 183 235 196 q 74 213 104 183 q 53 254 58 232 q 49 304 49 276 l 47 315 q 54 353 47 331 q 56 367 56 358 q 59 381 57 376 q 68 385 61 385 l 107 382 q 261 450 199 382 q 286 510 286 475 q 249 590 282 560 q 167 619 215 619 q 81 585 118 619 q 22 504 44 551 q -15 408 -1 457 q -28 308 -28 360 q -12 216 -26 253 q 46 151 1 179 q 135 122 90 122 m 107 442 q 81 449 81 442 q 93 480 81 457 q 126 522 106 503 q 169 542 147 542 q 197 532 183 542 q 210 508 210 522 q 177 462 210 482 q 107 442 144 442 m 253 653 q 293 703 290 653 q 279 732 293 724 q 240 740 265 740 q 214 728 225 740 q 203 693 203 715 q 217 665 203 676 q 250 653 231 653 l 253 653 m 126 649 q 156 662 144 650 q 167 692 167 674 q 128 731 164 729 q 97 717 110 729 q 82 689 83 706 q 95 660 82 672 q 126 649 108 649 z "},"ì":{"ha":311,"x_min":-69,"x_max":374,"o":"m 38 54 q 145 88 100 58 q 228 164 190 118 q 367 401 318 272 q 374 426 374 415 q 365 447 374 439 q 344 456 357 456 q 310 432 326 456 q 278 375 294 408 l 254 331 q 136 172 207 243 q 43 129 97 135 q 15 143 22 129 q 8 183 8 157 q 18 269 8 231 q 39 346 28 308 q 67 463 58 401 q 59 481 67 472 q 40 489 51 489 q 10 467 18 489 q -39 339 -18 406 l -49 311 q -69 186 -69 251 q -42 91 -68 128 q 38 54 -15 54 m 108 497 q 143 535 143 497 q 58 622 143 556 q 37 638 47 631 q 15 646 26 646 q -8 636 1 646 q -17 614 -17 626 q 64 522 -17 588 q 84 506 74 515 q 108 497 94 497 z "},"í":{"ha":311,"x_min":-69,"x_max":374,"o":"m 38 54 q 145 88 100 58 q 228 164 190 118 q 367 401 318 272 q 374 426 374 415 q 365 447 374 439 q 344 456 357 456 q 310 432 326 456 q 278 375 294 408 l 254 331 q 136 172 207 243 q 43 129 97 135 q 15 143 22 129 q 8 183 8 157 q 18 269 8 231 q 39 346 28 308 q 67 463 58 401 q 59 481 67 472 q 40 489 51 489 q 10 467 18 489 q -39 339 -18 406 l -49 311 q -69 186 -69 251 q -42 91 -68 128 q 38 54 -15 54 m 51 521 q 78 535 65 521 q 103 565 92 549 q 129 597 115 581 q 155 631 143 613 q 167 665 167 649 q 126 700 167 699 q 106 688 114 700 q 19 551 19 571 q 29 529 19 538 q 51 521 39 521 z "},"î":{"ha":311,"x_min":-69,"x_max":374,"o":"m 38 54 q 145 88 100 58 q 228 164 190 118 q 367 401 318 272 q 374 426 374 415 q 365 447 374 439 q 344 456 357 456 q 310 432 326 456 q 278 375 294 408 l 254 331 q 136 172 207 243 q 43 129 97 135 q 15 143 22 129 q 8 183 8 157 q 18 269 8 231 q 39 346 28 308 q 67 463 58 401 q 59 481 67 472 q 40 489 51 489 q 10 467 18 489 q -39 339 -18 406 l -49 311 q -69 186 -69 251 q -42 91 -68 128 q 38 54 -15 54 m 143 478 q 171 521 171 488 q 158 568 171 531 q 124 640 144 606 q 76 674 104 674 q 22 642 49 674 q -32 575 -6 611 q -49 552 -40 563 q -57 531 -57 542 q -47 506 -54 514 q -22 496 -40 499 q 4 510 -6 496 l 17 525 q 57 572 38 547 q 68 581 64 581 q 74 571 72 581 q 79 554 76 561 q 98 502 86 526 q 135 478 110 478 l 143 478 z "},"ï":{"ha":311,"x_min":-69,"x_max":374,"o":"m 38 54 q 145 88 100 58 q 228 164 190 118 q 367 401 318 272 q 374 426 374 415 q 365 447 374 439 q 344 456 357 456 q 310 432 326 456 q 278 375 294 408 l 254 331 q 136 172 207 243 q 43 129 97 135 q 15 143 22 129 q 8 183 8 157 q 18 269 8 231 q 39 346 28 308 q 67 463 58 401 q 59 481 67 472 q 40 489 51 489 q 10 467 18 489 q -39 339 -18 406 l -49 311 q -69 186 -69 251 q -42 91 -68 128 q 38 54 -15 54 m 110 510 q 150 560 147 510 q 136 589 150 581 q 97 597 122 597 q 71 585 82 597 q 60 550 60 572 q 74 522 60 533 q 107 510 88 510 l 110 510 m -17 506 q 13 519 1 507 q 24 549 24 531 q -15 588 21 586 q -47 574 -33 586 q -61 546 -60 563 q -48 517 -61 529 q -17 506 -35 506 z "},"ñ":{"ha":557,"x_min":-56,"x_max":603,"o":"m -19 106 q 25 135 13 110 q 136 350 72 247 q 228 465 172 415 l 231 468 q 247 479 242 479 q 255 476 253 478 q 257 468 257 475 q 235 336 249 400 q 224 240 224 289 q 247 149 224 189 q 318 108 269 108 q 481 218 397 108 q 556 329 522 274 q 600 408 581 367 q 603 422 603 415 q 596 438 603 431 q 581 446 589 446 q 554 428 563 443 l 497 349 q 421 242 460 293 l 413 233 q 356 175 390 197 q 322 165 336 165 q 293 208 294 165 q 306 306 296 258 q 310 329 308 317 q 317 354 313 342 q 329 444 329 399 q 310 524 328 496 q 257 551 293 551 q 186 525 222 551 q 76 401 129 482 l 53 368 q 65 450 60 408 q 68 474 65 461 q 72 511 72 492 q 65 547 71 533 q 38 560 58 560 q 6 532 11 560 q -17 394 -10 431 q -37 283 -25 358 l -43 254 q -56 161 -56 210 q -50 121 -56 136 q -26 106 -44 106 l -19 106 m 243 586 q 299 615 275 586 q 322 668 322 644 q 289 707 322 703 q 247 663 258 707 l 243 651 q 237 658 238 656 q 236 661 236 660 q 167 713 210 713 q 110 690 133 713 q 83 632 88 667 q 92 608 83 618 q 114 599 101 599 q 133 606 126 599 q 151 627 140 613 q 165 642 161 642 q 171 636 168 642 q 189 614 178 624 l 193 610 q 243 586 218 586 z "},"ò":{"ha":488,"x_min":-42,"x_max":544,"o":"m 92 97 q 186 150 146 107 q 286 318 254 222 q 306 339 294 339 q 347 336 314 336 q 442 351 396 336 q 544 414 544 386 q 537 434 544 426 q 519 442 529 442 q 447 421 481 435 q 393 403 421 411 q 328 396 365 396 q 315 406 315 397 l 317 417 q 319 447 319 429 q 297 528 319 496 q 229 565 275 561 q 160 531 185 565 q 135 460 135 496 q 215 357 135 392 q 222 350 222 354 l 222 344 q 154 221 194 279 q 121 185 138 199 q 78 167 104 171 q 33 249 40 167 q 40 308 33 279 l 44 333 q 93 464 57 403 q 99 479 99 472 q 90 499 99 490 q 71 507 81 507 q 33 483 54 507 q -42 246 -39 388 q -10 144 -42 192 q 79 97 21 97 l 92 97 m 236 418 q 228 421 232 418 q 222 426 225 424 q 217 431 219 429 q 201 461 201 446 q 207 481 201 475 q 226 493 213 488 q 241 476 238 493 q 246 428 244 458 q 244 423 246 425 q 236 418 243 421 m 168 576 q 203 614 203 576 q 118 701 203 635 q 97 717 107 710 q 75 725 86 725 q 52 715 61 725 q 43 693 43 706 q 124 601 43 667 q 144 585 133 594 q 168 576 154 576 z "},"ó":{"ha":488,"x_min":-42,"x_max":544,"o":"m 92 97 q 186 150 146 107 q 286 318 254 222 q 306 339 294 339 q 347 336 314 336 q 442 351 396 336 q 544 414 544 386 q 537 434 544 426 q 519 442 529 442 q 447 421 481 435 q 393 403 421 411 q 328 396 365 396 q 315 406 315 397 l 317 417 q 319 447 319 429 q 297 528 319 496 q 229 565 275 561 q 160 531 185 565 q 135 460 135 496 q 215 357 135 392 q 222 350 222 354 l 222 344 q 154 221 194 279 q 121 185 138 199 q 78 167 104 171 q 33 249 40 167 q 40 308 33 279 l 44 333 q 93 464 57 403 q 99 479 99 472 q 90 499 99 490 q 71 507 81 507 q 33 483 54 507 q -42 246 -39 388 q -10 144 -42 192 q 79 97 21 97 l 92 97 m 236 418 q 228 421 232 418 q 222 426 225 424 q 217 431 219 429 q 201 461 201 446 q 207 481 201 475 q 226 493 213 488 q 241 476 238 493 q 246 428 244 458 q 244 423 246 425 q 236 418 243 421 m 115 572 q 142 586 129 572 q 167 616 156 600 q 193 648 179 632 q 219 682 207 664 q 231 717 231 700 q 190 751 231 750 q 169 739 178 751 q 83 603 83 622 q 93 581 83 589 q 115 572 103 572 z "},"ô":{"ha":488,"x_min":-42,"x_max":544,"o":"m 92 97 q 186 150 146 107 q 286 318 254 222 q 306 339 294 339 q 347 336 314 336 q 442 351 396 336 q 544 414 544 386 q 537 434 544 426 q 519 442 529 442 q 447 421 481 435 q 393 403 421 411 q 328 396 365 396 q 315 406 315 397 l 317 417 q 319 447 319 429 q 297 528 319 496 q 229 565 275 561 q 160 531 185 565 q 135 460 135 496 q 215 357 135 392 q 222 350 222 354 l 222 344 q 154 221 194 279 q 121 185 138 199 q 78 167 104 171 q 33 249 40 167 q 40 308 33 279 l 44 333 q 93 464 57 403 q 99 479 99 472 q 90 499 99 490 q 71 507 81 507 q 33 483 54 507 q -42 246 -39 388 q -10 144 -42 192 q 79 97 21 97 l 92 97 m 236 418 q 228 421 232 418 q 222 426 225 424 q 217 431 219 429 q 201 461 201 446 q 207 481 201 475 q 226 493 213 488 q 241 476 238 493 q 246 428 244 458 q 244 423 246 425 q 236 418 243 421 m 225 585 q 253 628 253 594 q 240 675 253 638 q 206 747 226 713 q 158 781 186 781 q 103 749 131 781 q 50 682 76 718 q 33 659 42 669 q 25 638 25 649 q 35 613 28 621 q 60 603 42 606 q 86 617 76 603 l 99 632 q 139 679 119 654 q 150 688 146 688 q 156 678 154 688 q 161 661 158 668 q 180 609 168 633 q 217 585 192 585 l 225 585 z "},"õ":{"ha":488,"x_min":-42,"x_max":544,"o":"m 92 97 q 186 150 146 107 q 286 318 254 222 q 306 339 294 339 q 347 336 314 336 q 442 351 396 336 q 544 414 544 386 q 537 434 544 426 q 519 442 529 442 q 447 421 481 435 q 393 403 421 411 q 328 396 365 396 q 315 406 315 397 l 317 417 q 319 447 319 429 q 297 528 319 496 q 229 565 275 561 q 160 531 185 565 q 135 460 135 496 q 215 357 135 392 q 222 350 222 354 l 222 344 q 154 221 194 279 q 121 185 138 199 q 78 167 104 171 q 33 249 40 167 q 40 308 33 279 l 44 333 q 93 464 57 403 q 99 479 99 472 q 90 499 99 490 q 71 507 81 507 q 33 483 54 507 q -42 246 -39 388 q -10 144 -42 192 q 79 97 21 97 l 92 97 m 236 418 q 228 421 232 418 q 222 426 225 424 q 217 431 219 429 q 201 461 201 446 q 207 481 201 475 q 226 493 213 488 q 241 476 238 493 q 246 428 244 458 q 244 423 246 425 q 236 418 243 421 m 168 586 q 224 615 200 586 q 247 668 247 644 q 214 707 247 703 q 172 663 183 707 l 168 651 q 162 658 163 656 q 161 661 161 660 q 92 713 135 713 q 35 690 58 713 q 8 632 13 667 q 17 608 8 618 q 39 599 26 599 q 58 606 51 599 q 76 627 65 613 q 90 642 86 642 q 96 636 93 642 q 114 614 103 624 l 118 610 q 168 586 143 586 z "},"ö":{"ha":488,"x_min":-42,"x_max":544,"o":"m 92 97 q 186 150 146 107 q 286 318 254 222 q 306 339 294 339 q 347 336 314 336 q 442 351 396 336 q 544 414 544 386 q 537 434 544 426 q 519 442 529 442 q 447 421 481 435 q 393 403 421 411 q 328 396 365 396 q 315 406 315 397 l 317 417 q 319 447 319 429 q 297 528 319 496 q 229 565 275 561 q 160 531 185 565 q 135 460 135 496 q 215 357 135 392 q 222 350 222 354 l 222 344 q 154 221 194 279 q 121 185 138 199 q 78 167 104 171 q 33 249 40 167 q 40 308 33 279 l 44 333 q 93 464 57 403 q 99 479 99 472 q 90 499 99 490 q 71 507 81 507 q 33 483 54 507 q -42 246 -39 388 q -10 144 -42 192 q 79 97 21 97 l 92 97 m 236 418 q 228 421 232 418 q 222 426 225 424 q 217 431 219 429 q 201 461 201 446 q 207 481 201 475 q 226 493 213 488 q 241 476 238 493 q 246 428 244 458 q 244 423 246 425 q 236 418 243 421 m 193 592 q 233 642 231 592 q 219 671 233 663 q 181 679 206 679 q 154 667 165 679 q 143 632 143 654 q 157 603 143 615 q 190 592 171 592 l 193 592 m 67 588 q 96 601 85 589 q 107 631 107 613 q 68 669 104 668 q 37 656 50 668 q 22 628 24 644 q 35 599 22 611 q 67 588 49 588 z "},"÷":{"ha":390,"x_min":83,"x_max":335,"o":"m 196 539 q 245 558 222 539 q 269 601 268 578 q 250 653 269 632 q 210 674 231 674 q 192 670 199 674 q 181 663 186 667 q 171 654 175 658 q 143 601 143 632 q 159 558 143 576 q 196 539 175 539 m 207 229 q 247 249 229 229 q 267 293 265 268 q 251 332 267 317 q 210 349 235 347 q 165 329 183 347 q 146 285 147 311 q 163 245 146 261 q 207 229 181 229 m 151 393 l 211 397 q 249 399 229 399 q 304 403 276 399 q 335 438 332 411 q 321 465 335 454 q 288 475 307 475 q 119 464 143 464 q 83 428 83 464 q 93 408 83 417 q 118 397 103 399 q 151 393 133 394 z "},"ø":{"ha":488,"x_min":-143,"x_max":544,"o":"m -106 -187 q -72 -164 -85 -187 q -4 -31 -36 -97 q 61 99 39 51 q 92 97 69 97 q 186 150 146 107 q 286 318 254 222 q 288 319 288 318 q 294 333 290 328 q 306 339 297 339 l 314 336 l 347 336 q 442 351 396 336 q 544 414 544 386 q 537 434 544 426 q 519 442 529 442 q 447 421 481 435 q 393 403 421 411 q 328 396 365 396 q 315 406 315 397 q 317 417 315 413 q 319 447 319 429 q 286 542 319 511 l 332 635 q 442 849 392 757 q 458 889 454 861 q 449 913 457 906 q 424 924 442 921 q 396 906 407 924 q 218 579 299 744 l 210 564 q 160 531 179 557 q 135 460 135 496 q 140 426 135 442 l 36 221 l 33 249 q 40 308 33 279 l 44 333 q 93 464 57 403 q 99 479 99 472 q 90 499 99 490 q 71 507 81 507 q 33 483 53 507 q -42 246 -39 388 q -6 138 -42 185 q -94 -40 -81 -10 q -143 -151 -143 -129 q -131 -178 -143 -168 q -106 -187 -119 -187 m 97 172 l 196 367 l 215 357 q 220 354 218 356 q 222 344 222 353 q 154 221 194 279 q 97 172 125 182 m 236 418 q 228 421 232 418 q 222 426 225 424 q 217 431 219 429 q 201 461 201 446 q 207 481 201 475 q 226 493 213 488 q 241 476 238 493 q 246 428 244 458 q 245 422 246 425 q 236 418 244 419 z "},"ù":{"ha":564,"x_min":-42,"x_max":622,"o":"m 64 60 q 135 86 103 60 q 192 150 167 113 q 235 224 217 188 q 240 193 239 208 q 257 128 243 158 q 353 61 288 68 q 494 156 428 61 q 553 253 521 193 q 621 403 592 325 l 622 419 q 615 439 622 431 q 596 447 607 447 q 551 404 571 447 q 451 225 508 311 q 403 162 431 192 q 357 132 376 132 q 330 160 343 132 q 317 222 317 189 q 333 368 318 288 q 347 433 342 411 q 360 507 356 469 q 350 526 360 519 q 331 532 340 532 q 311 524 319 532 q 292 497 303 510 q 269 465 281 483 l 150 226 q 65 131 99 131 q 35 213 35 131 q 67 424 35 314 q 81 489 76 454 q 72 511 81 506 q 50 518 64 517 q 19 497 31 518 q -39 250 -31 376 q -42 215 -42 233 q -33 149 -42 185 q 0 86 -24 113 q 64 60 24 60 m 214 549 q 249 586 249 549 q 164 674 249 607 q 142 690 153 682 q 121 697 132 697 q 98 688 107 697 q 89 665 89 678 q 169 574 89 639 q 190 558 179 567 q 214 549 200 549 z "},"ú":{"ha":564,"x_min":-42,"x_max":622,"o":"m 64 60 q 135 86 103 60 q 192 150 167 113 q 235 224 217 188 q 240 193 239 208 q 257 128 243 158 q 353 61 288 68 q 494 156 428 61 q 553 253 521 193 q 621 403 592 325 l 622 419 q 615 439 622 431 q 596 447 607 447 q 551 404 571 447 q 451 225 508 311 q 403 162 431 192 q 357 132 376 132 q 330 160 343 132 q 317 222 317 189 q 333 368 318 288 q 347 433 342 411 q 360 507 356 469 q 350 526 360 519 q 331 532 340 532 q 311 524 319 532 q 292 497 303 510 q 269 465 281 483 l 150 226 q 65 131 99 131 q 35 213 35 131 q 67 424 35 314 q 81 489 76 454 q 72 511 81 506 q 50 518 64 517 q 19 497 31 518 q -39 250 -31 376 q -42 215 -42 233 q -33 149 -42 185 q 0 86 -24 113 q 64 60 24 60 m 186 533 q 213 547 200 533 q 238 577 226 561 q 264 609 250 593 q 290 643 278 625 q 301 678 301 661 q 261 713 301 711 q 240 700 249 713 q 154 564 154 583 q 164 542 154 550 q 186 533 174 533 z "},"û":{"ha":564,"x_min":-42,"x_max":622,"o":"m 64 60 q 135 86 103 60 q 192 150 167 113 q 235 224 217 188 q 240 193 239 208 q 257 128 243 158 q 353 61 288 68 q 494 156 428 61 q 553 253 521 193 q 621 403 592 325 l 622 419 q 615 439 622 431 q 596 447 607 447 q 551 404 571 447 q 451 225 508 311 q 403 162 431 192 q 357 132 376 132 q 330 160 343 132 q 317 222 317 189 q 333 368 318 288 q 347 433 342 411 q 360 507 356 469 q 350 526 360 519 q 331 532 340 532 q 311 524 319 532 q 292 497 303 510 q 269 465 281 483 l 150 226 q 65 131 99 131 q 35 213 35 131 q 67 424 35 314 q 81 489 76 454 q 72 511 81 506 q 50 518 64 517 q 19 497 31 518 q -39 250 -31 376 q -42 215 -42 233 q -33 149 -42 185 q 0 86 -24 113 q 64 60 24 60 m 281 563 q 308 606 308 572 q 295 653 308 615 q 262 724 282 690 q 214 758 242 758 q 159 727 186 758 q 106 660 132 696 q 89 637 97 647 q 81 615 81 626 q 90 591 83 599 q 115 581 97 583 q 142 594 132 581 l 154 610 q 194 657 175 632 q 206 665 201 665 q 212 656 210 665 q 217 639 214 646 q 235 587 224 611 q 272 563 247 563 l 281 563 z "},"ü":{"ha":564,"x_min":-42,"x_max":622,"o":"m 64 60 q 135 86 103 60 q 192 150 167 113 q 235 224 217 188 q 240 193 239 208 q 257 128 243 158 q 353 61 288 68 q 494 156 428 61 q 553 253 521 193 q 621 403 592 325 l 622 419 q 615 439 622 431 q 596 447 607 447 q 551 404 571 447 q 451 225 508 311 q 403 162 431 192 q 357 132 376 132 q 330 160 343 132 q 317 222 317 189 q 333 368 318 288 q 347 433 342 411 q 360 507 356 469 q 350 526 360 519 q 331 532 340 532 q 311 524 319 532 q 292 497 303 510 q 269 465 281 483 l 150 226 q 65 131 99 131 q 35 213 35 131 q 67 424 35 314 q 81 489 76 454 q 72 511 81 506 q 50 518 64 517 q 19 497 31 518 q -39 250 -31 376 q -42 215 -42 233 q -33 149 -42 185 q 0 86 -24 113 q 64 60 24 60 m 254 546 q 294 596 292 546 q 281 625 294 617 q 242 633 267 633 q 215 621 226 633 q 204 586 204 608 q 218 558 204 569 q 251 546 232 546 l 254 546 m 128 542 q 157 555 146 543 q 168 585 168 567 q 129 624 165 622 q 98 610 111 622 q 83 582 85 599 q 97 553 83 565 q 128 542 110 542 z "},"ý":{"ha":439,"x_min":-167,"x_max":497,"o":"m -17 -376 q 99 -329 39 -376 q 197 -185 164 -271 q 282 181 253 -37 q 313 226 286 213 q 432 311 379 258 l 443 324 q 480 365 463 343 q 497 408 497 386 q 489 429 497 421 q 469 438 481 438 q 431 410 456 438 q 306 303 375 350 l 303 310 l 335 463 q 351 535 340 499 q 357 563 357 549 q 331 610 357 606 l 322 611 q 297 598 304 611 q 286 567 290 585 q 274 533 282 549 q 174 385 229 454 q 90 315 118 315 q 69 381 69 315 q 79 472 69 429 q 89 551 89 514 q 58 597 89 596 q 24 560 32 597 l 21 540 q -7 360 -7 424 q 32 260 -7 290 q 92 238 58 238 q 163 263 131 238 q 229 325 196 289 l 225 311 q 219 273 221 290 q 204 250 217 256 l 142 222 q -9 133 61 190 q -123 1 -79 76 q -167 -165 -167 -75 q -143 -289 -167 -229 q -58 -371 -119 -349 q -17 -376 -36 -376 m -19 -299 q -72 -262 -56 -299 q -90 -171 -89 -225 q 18 54 -90 -47 q 201 167 100 126 q 193 114 201 138 l 190 96 q 156 -60 178 18 q 76 -242 133 -157 q 33 -281 58 -264 q -19 -299 8 -299 m 183 611 q 210 625 197 611 q 235 655 224 639 q 261 687 247 671 q 287 721 275 703 q 299 756 299 739 q 258 790 299 789 q 238 778 246 790 q 151 642 151 661 q 161 619 151 628 q 183 611 171 611 z "},"ÿ":{"ha":439,"x_min":-167,"x_max":497,"o":"m -17 -376 q 99 -329 39 -376 q 197 -185 164 -271 q 282 181 253 -37 q 313 226 286 213 q 432 311 379 258 l 443 324 q 480 365 463 343 q 497 408 497 386 q 489 429 497 421 q 469 438 481 438 q 431 410 456 438 q 306 303 375 350 l 303 310 l 335 463 q 351 535 340 499 q 357 563 357 549 q 331 610 357 606 l 322 611 q 297 598 304 611 q 286 567 290 585 q 274 533 282 549 q 174 385 229 454 q 90 315 118 315 q 69 381 69 315 q 79 472 69 429 q 89 551 89 514 q 58 597 89 596 q 24 560 32 597 l 21 540 q -7 360 -7 424 q 32 260 -7 290 q 92 238 58 238 q 163 263 131 238 q 229 325 196 289 l 225 311 q 219 273 221 290 q 204 250 217 256 l 142 222 q -9 133 61 190 q -123 1 -79 76 q -167 -165 -167 -75 q -143 -289 -167 -229 q -58 -371 -119 -349 q -17 -376 -36 -376 m -19 -299 q -72 -262 -56 -299 q -90 -171 -89 -225 q 18 54 -90 -47 q 201 167 100 126 q 193 114 201 138 l 190 96 q 156 -60 178 18 q 76 -242 133 -157 q 33 -281 58 -264 q -19 -299 8 -299 m 264 625 q 304 675 301 625 q 290 704 304 696 q 251 713 276 713 q 225 700 236 713 q 214 665 214 688 q 228 637 214 649 q 261 625 242 625 l 264 625 m 138 621 q 167 634 156 622 q 178 664 178 646 q 139 703 175 701 q 108 690 121 701 q 93 661 94 678 q 106 633 93 644 q 138 621 119 621 z "},"ı":{"ha":311,"x_min":-69,"x_max":374,"o":"m 38 54 q 145 88 100 58 q 228 164 190 118 q 367 401 318 272 q 374 426 374 415 q 365 447 374 439 q 344 456 357 456 q 310 432 326 456 q 278 375 294 408 l 254 331 q 136 172 207 243 q 43 129 97 135 q 15 143 22 129 q 8 183 8 157 q 18 269 8 231 q 39 346 28 308 q 67 463 58 401 q 59 481 67 472 q 40 489 51 489 q 10 467 18 489 q -39 339 -18 406 l -49 311 q -69 186 -69 251 q -42 91 -68 128 q 38 54 -15 54 z "},"ˆ":{"ha":283,"x_min":28,"x_max":256,"o":"m 228 1031 q 256 1074 256 1040 q 242 1121 256 1083 q 209 1192 229 1158 q 161 1226 189 1226 q 106 1195 133 1226 q 53 1128 79 1164 q 36 1105 44 1115 q 28 1083 28 1094 q 38 1059 31 1067 q 63 1049 44 1051 q 89 1063 79 1049 l 101 1078 q 142 1125 122 1100 q 153 1133 149 1133 q 159 1124 157 1133 q 164 1107 161 1114 q 183 1055 171 1079 q 219 1031 194 1031 l 228 1031 z "},"ˇ":{"ha":303,"x_min":28,"x_max":275,"o":"m 149 1017 q 201 1050 175 1017 q 275 1181 269 1135 q 265 1206 275 1196 q 242 1217 254 1217 q 210 1201 222 1217 q 183 1158 197 1185 q 147 1106 169 1132 l 90 1190 q 61 1208 78 1208 q 38 1199 49 1208 q 28 1176 28 1189 q 32 1161 28 1168 q 111 1038 61 1092 q 149 1017 129 1017 z "},"˚":{"ha":253,"x_min":28,"x_max":225,"o":"m 129 1013 q 197 1042 171 1013 q 225 1113 224 1072 q 193 1175 225 1144 q 110 1203 168 1201 q 54 1171 81 1203 q 28 1104 28 1139 q 122 1013 33 1013 l 129 1013 m 125 1076 l 122 1076 q 100 1097 103 1076 q 106 1120 100 1107 q 119 1135 111 1133 q 131 1130 124 1135 q 142 1118 138 1125 q 147 1107 147 1111 q 143 1095 147 1103 q 134 1082 139 1088 q 125 1076 129 1076 z "},"˜":{"ha":294,"x_min":28,"x_max":267,"o":"m 188 1010 q 243 1039 219 1010 q 267 1092 267 1068 q 233 1131 267 1126 q 192 1086 203 1131 l 188 1075 q 181 1081 182 1079 q 181 1085 181 1083 q 111 1136 154 1136 q 55 1113 78 1136 q 28 1056 32 1090 q 37 1032 28 1042 q 58 1022 46 1022 q 78 1029 71 1022 q 95 1051 85 1036 q 110 1065 106 1065 q 115 1060 113 1065 q 133 1038 122 1047 l 138 1033 q 188 1010 163 1010 z "},"–":{"ha":592,"x_min":97,"x_max":536,"o":"m 496 379 q 536 417 532 379 q 522 447 536 439 q 481 457 508 456 l 143 457 q 112 449 125 457 q 97 425 99 442 q 149 386 97 392 q 215 385 182 386 q 292 383 249 383 q 349 383 335 383 q 379 382 364 382 q 496 379 418 379 z "},"—":{"ha":824,"x_min":83,"x_max":751,"o":"m 658 383 l 714 385 q 741 396 731 385 q 751 421 751 407 q 735 450 751 440 q 650 463 708 463 q 382 468 476 463 q 121 474 288 474 q 94 463 104 474 q 83 436 83 451 q 94 410 83 421 q 217 394 108 394 l 249 396 l 279 394 q 347 392 313 392 l 369 392 q 446 389 407 392 q 484 388 471 388 q 505 387 497 388 q 540 386 513 386 q 658 383 579 386 z "},"‘":{"ha":178,"x_min":28,"x_max":150,"o":"m 82 1017 q 117 1044 103 1017 q 139 1108 131 1071 q 150 1179 147 1146 q 131 1215 150 1201 q 88 1229 111 1229 q 29 1175 35 1229 q 28 1139 29 1151 q 32 1108 28 1124 l 33 1099 q 82 1017 43 1017 z "},"’":{"ha":178,"x_min":28,"x_max":150,"o":"m 82 1017 q 117 1044 103 1017 q 139 1108 131 1071 q 150 1179 147 1146 q 131 1215 150 1201 q 88 1229 111 1229 q 29 1175 35 1229 q 28 1139 29 1151 q 32 1108 28 1124 l 33 1099 q 82 1017 43 1017 z "},"‚":{"ha":250,"x_min":28,"x_max":150,"o":"m 82 -40 q 117 -13 103 -40 q 139 51 131 14 q 150 122 147 89 q 131 158 150 144 q 88 172 111 172 q 29 118 35 172 q 28 82 29 94 q 32 51 28 67 l 33 42 q 82 -40 43 -40 z "},"“":{"ha":313,"x_min":28,"x_max":285,"o":"m 78 1017 q 111 1040 100 1017 q 142 1142 133 1089 q 145 1156 143 1149 q 147 1174 147 1163 q 82 1225 142 1217 q 49 1211 64 1225 q 31 1178 33 1197 q 28 1140 28 1158 q 31 1096 28 1118 l 32 1081 q 42 1038 35 1058 q 78 1017 50 1017 m 215 1017 q 249 1040 238 1017 q 279 1142 271 1089 q 283 1156 281 1149 q 285 1174 285 1163 q 219 1225 279 1217 q 186 1211 201 1225 q 168 1178 171 1197 q 165 1140 165 1158 q 168 1096 165 1118 l 169 1081 q 180 1038 172 1058 q 215 1017 188 1017 z "},"”":{"ha":313,"x_min":28,"x_max":285,"o":"m 78 1017 q 111 1040 100 1017 q 142 1142 133 1089 q 145 1156 143 1149 q 147 1174 147 1163 q 82 1225 142 1217 q 49 1211 64 1225 q 31 1178 33 1197 q 28 1140 28 1158 q 31 1096 28 1118 l 32 1081 q 42 1038 35 1058 q 78 1017 50 1017 m 215 1017 q 249 1040 238 1017 q 279 1142 271 1089 q 283 1156 281 1149 q 285 1174 285 1163 q 219 1225 279 1217 q 186 1211 201 1225 q 168 1178 171 1197 q 165 1140 165 1158 q 168 1096 165 1118 l 169 1081 q 180 1038 172 1058 q 215 1017 188 1017 z "},"„":{"ha":378,"x_min":28,"x_max":285,"o":"m 78 -54 q 111 -31 100 -54 q 142 71 133 18 q 145 85 143 78 q 147 103 147 92 q 82 154 142 146 q 49 140 64 154 q 31 107 33 126 q 28 69 28 88 q 31 25 28 47 l 32 10 q 42 -33 35 -12 q 78 -54 50 -54 m 215 -54 q 249 -31 238 -54 q 279 71 271 18 q 283 85 281 78 q 285 103 285 92 q 219 154 279 146 q 186 140 201 154 q 168 107 171 126 q 165 69 165 88 q 168 25 165 47 l 169 10 q 180 -33 172 -12 q 215 -54 188 -54 z "},"†":{"ha":542,"x_min":28,"x_max":514,"o":"m 174 1 q 200 13 189 1 q 214 42 211 24 q 239 313 228 217 q 282 624 251 424 l 294 728 l 375 714 q 472 699 429 700 q 501 707 489 699 q 514 735 514 715 q 481 773 514 764 q 411 786 449 782 l 304 803 l 343 1113 q 308 1161 343 1161 q 281 1147 288 1161 q 272 1103 275 1132 q 256 997 265 1050 q 228 815 243 932 q 169 824 197 821 q 71 835 124 835 q 40 826 53 835 q 28 801 28 817 q 65 769 28 778 l 218 742 l 192 549 q 179 447 182 479 q 172 390 176 428 q 158 275 167 353 l 149 192 q 136 40 139 119 q 147 13 136 24 q 174 1 157 1 z "},"₣":{"ha":1125,"x_min":28,"x_max":1097,"o":"m 246 -18 q 444 104 375 -18 q 519 303 492 200 l 554 303 q 700 299 596 299 q 740 336 736 299 q 726 367 740 358 q 685 376 713 375 l 538 376 q 565 504 554 440 q 586 524 568 524 l 639 522 q 692 529 674 522 q 711 564 711 536 q 693 592 710 586 q 649 599 676 599 q 603 596 625 599 l 590 594 q 583 600 583 594 l 583 606 q 654 1088 629 856 q 658 1097 656 1094 q 790 1100 660 1099 q 1057 1106 986 1101 q 1086 1119 1075 1108 q 1097 1143 1097 1129 q 1078 1175 1096 1169 q 1035 1181 1060 1181 q 901 1176 972 1181 l 744 1178 q 583 1171 664 1178 q 427 1140 503 1164 q 288 1063 351 1115 q 203 885 203 985 q 242 759 203 817 q 354 683 281 701 l 360 683 q 396 718 393 683 q 371 749 396 740 q 281 883 281 776 q 342 1009 281 960 q 489 1078 404 1058 q 572 1093 531 1093 l 586 1092 q 561 938 571 1004 q 522 704 535 763 l 506 606 q 488 590 503 590 q 451 594 469 594 q 410 561 413 592 q 422 535 410 543 q 456 524 433 528 l 476 525 q 487 522 485 525 q 490 513 489 519 q 487 497 490 504 q 483 481 483 489 q 460 376 482 474 l 347 376 q 301 344 304 376 q 353 306 301 313 q 439 303 419 306 q 393 171 419 236 q 246 60 342 60 q 178 78 210 60 q 129 128 146 96 q 106 222 106 175 q 144 347 106 286 q 246 408 183 408 l 286 407 q 312 417 303 407 q 321 440 321 426 q 246 486 321 483 q 133 447 182 486 q 56 349 83 408 q 28 229 28 290 q 52 111 28 172 q 131 16 76 50 q 246 -18 185 -18 z "},"₤":{"ha":567,"x_min":28,"x_max":539,"o":"m 393 4 q 447 7 421 4 q 478 44 478 14 q 463 72 478 63 q 426 82 447 82 l 132 82 q 124 88 124 82 l 125 93 q 182 400 153 174 q 186 411 183 408 q 197 414 189 414 l 238 413 q 283 422 261 413 q 304 451 304 432 q 261 488 301 488 l 204 488 q 193 494 193 488 l 206 600 q 215 614 206 614 l 217 614 q 283 623 257 614 q 308 657 308 632 q 297 680 307 671 q 272 689 288 689 q 228 688 235 689 q 218 697 218 688 l 224 729 q 263 888 236 810 q 351 1025 289 967 q 390 1040 371 1040 q 438 1019 421 1040 q 461 967 454 997 q 468 913 468 938 q 467 893 467 900 q 466 883 467 886 q 465 876 465 879 q 461 844 464 874 q 470 822 461 831 q 490 814 479 814 q 515 826 506 814 q 539 931 539 854 q 523 1018 539 975 q 474 1090 507 1061 q 392 1118 440 1118 q 272 1056 318 1114 q 183 892 208 982 q 143 711 157 801 q 124 682 143 682 l 90 682 q 56 651 57 682 q 74 622 56 631 q 113 614 92 614 q 128 600 128 614 l 117 503 q 103 488 117 488 l 68 488 q 32 456 32 488 l 32 451 q 68 419 32 422 q 97 418 90 419 l 99 418 q 106 407 106 415 l 99 361 q 38 83 75 163 q 28 49 28 64 q 85 4 28 8 l 393 4 z "},"€":{"ha":671,"x_min":28,"x_max":643,"o":"m 350 49 q 464 106 403 49 q 544 240 519 164 l 550 254 q 563 303 563 276 q 555 331 563 324 q 528 342 547 339 q 499 324 510 342 q 470 258 489 306 q 419 171 451 211 q 331 126 379 126 q 249 167 283 126 q 194 268 214 208 q 172 389 175 328 q 181 400 172 400 l 199 400 q 276 421 258 400 q 285 442 285 431 q 270 470 283 465 q 235 475 257 475 q 181 471 199 475 q 171 479 172 471 l 172 485 q 181 556 179 526 q 184 567 181 564 q 196 569 188 569 q 268 578 235 569 q 296 610 296 583 q 282 639 294 633 q 243 646 269 644 q 207 642 224 646 q 201 646 201 642 q 256 788 218 722 q 335 897 286 846 q 443 949 385 949 q 535 895 499 949 q 571 783 571 842 q 561 733 571 757 q 539 683 551 710 q 533 674 536 681 q 531 661 531 668 q 539 644 531 651 q 557 636 547 636 q 608 672 583 636 q 643 792 643 728 q 585 956 643 885 q 444 1026 528 1026 q 294 963 360 1025 q 126 668 167 839 q 125 664 126 665 q 110 637 119 639 q 86 635 101 635 q 53 628 63 635 q 42 601 44 622 q 54 575 42 581 q 81 568 67 569 q 101 557 101 565 l 96 503 q 92 476 96 481 q 64 472 88 472 q 28 439 31 469 q 35 417 28 428 q 57 407 43 407 q 91 394 83 407 q 99 351 99 382 q 207 101 114 192 q 267 63 233 78 q 350 49 300 49 z "},"":{"ha":1389,"x_min":0,"x_max":0,"o":""}}}
